<svg width="294" height="38" viewBox="0 0 294 38" fill="none" xmlns="http://www.w3.org/2000/svg">
<g filter="url(#filter0_d_7_119)">
<mask id="path-1-outside-1_7_119" maskUnits="userSpaceOnUse" x="3.64" y="2" width="286" height="30" fill="black">
<rect fill="white" x="3.64" y="2" width="286" height="30"/>
<path d="M5 3H21.68L23.96 6.24V10.52L20.04 14.6H20.24L24.32 20.6V28.68L20.56 31H5V3ZM9.84 7.48V14.6H13.8L19.08 9.04V7.48H9.84ZM9.84 19.08V26.48H19.52V21.4L17.84 19.08H9.84ZM36.7444 3H47.4244V31H42.5844V19.04H34.5844V31H29.8244V10.16L36.7444 3ZM34.5844 11.56V14.52H42.5844V7.52H38.5044L34.5844 11.56ZM57.2087 3H69.2088L72.4487 7.88L69.2488 11.24L66.8088 7.56H59.0487L58.3287 8.36V24.72L59.4888 26.48H67.1688L70.0087 23.64L72.5288 27.4L69.0887 31H57.0887L53.4887 25.64V6.76L57.2087 3ZM90.7531 3H97.1931L86.2731 14.28L97.3931 31H92.0731L82.8731 17.56L80.6731 19.72V31H75.8331V3H80.6731V13.2L90.7531 3ZM124.122 3H145.002V7.52H134.362L137.002 9.88V31H132.162V11L131.002 7.52H124.122V3ZM152.626 3H164.666L168.186 8.36V27.16L164.546 31H152.546L148.906 25.64V6.84L152.626 3ZM153.746 24.76L154.906 26.48H162.586L163.346 25.68V9.24L162.186 7.52H154.466L153.746 8.32V24.76ZM196.875 3H201.715V3.44L205.915 9.72L211.355 3H216.195V31H211.355V9.52L208.195 13.24V15.76H204.715V15.12L201.715 10.64V31H196.875V3ZM224.139 3H239.739V7.52H225.979L225.259 8.32V14.6H234.499V19.12H225.259V24.72L226.419 26.48H239.739V31H224.019L220.419 25.64V6.8L224.139 3ZM259.324 3H264.164V31H259.324V22.2L250.004 8.32H249.684V31H244.844V3H252.404L259.324 13.96V3ZM283.308 3H288.148V31H283.308V29.64L281.108 31H272.428L268.788 25.64V3H273.628V24.72L274.788 26.48H282.508L283.308 25.68V3Z"/>
</mask>
<path d="M5 3H21.68L23.96 6.24V10.52L20.04 14.6H20.24L24.32 20.6V28.68L20.56 31H5V3ZM9.84 7.48V14.6H13.8L19.08 9.04V7.48H9.84ZM9.84 19.08V26.48H19.52V21.4L17.84 19.08H9.84ZM36.7444 3H47.4244V31H42.5844V19.04H34.5844V31H29.8244V10.16L36.7444 3ZM34.5844 11.56V14.52H42.5844V7.52H38.5044L34.5844 11.56ZM57.2087 3H69.2088L72.4487 7.88L69.2488 11.24L66.8088 7.56H59.0487L58.3287 8.36V24.72L59.4888 26.48H67.1688L70.0087 23.64L72.5288 27.4L69.0887 31H57.0887L53.4887 25.64V6.76L57.2087 3ZM90.7531 3H97.1931L86.2731 14.28L97.3931 31H92.0731L82.8731 17.56L80.6731 19.72V31H75.8331V3H80.6731V13.2L90.7531 3ZM124.122 3H145.002V7.52H134.362L137.002 9.88V31H132.162V11L131.002 7.52H124.122V3ZM152.626 3H164.666L168.186 8.36V27.16L164.546 31H152.546L148.906 25.64V6.84L152.626 3ZM153.746 24.76L154.906 26.48H162.586L163.346 25.68V9.24L162.186 7.52H154.466L153.746 8.32V24.76ZM196.875 3H201.715V3.44L205.915 9.72L211.355 3H216.195V31H211.355V9.52L208.195 13.24V15.76H204.715V15.12L201.715 10.64V31H196.875V3ZM224.139 3H239.739V7.52H225.979L225.259 8.32V14.6H234.499V19.12H225.259V24.72L226.419 26.48H239.739V31H224.019L220.419 25.64V6.8L224.139 3ZM259.324 3H264.164V31H259.324V22.2L250.004 8.32H249.684V31H244.844V3H252.404L259.324 13.96V3ZM283.308 3H288.148V31H283.308V29.64L281.108 31H272.428L268.788 25.64V3H273.628V24.72L274.788 26.48H282.508L283.308 25.68V3Z" fill="#213084"/>
<path d="M5 3V2H4V3H5ZM21.68 3L22.4978 2.42451L22.1991 2H21.68V3ZM23.96 6.24H24.96V5.92341L24.7778 5.66451L23.96 6.24ZM23.96 10.52L24.6811 11.2128L24.96 10.9225V10.52H23.96ZM20.04 14.6L19.3189 13.9072L17.6925 15.6H20.04V14.6ZM20.24 14.6L21.0669 14.0377L20.7693 13.6H20.24V14.6ZM24.32 20.6H25.32V20.2922L25.1469 20.0377L24.32 20.6ZM24.32 28.68L24.8451 29.531L25.32 29.238V28.68H24.32ZM20.56 31V32H20.8437L21.0851 31.851L20.56 31ZM5 31H4V32H5V31ZM9.84 7.48V6.48H8.84V7.48H9.84ZM9.84 14.6H8.84V15.6H9.84V14.6ZM13.8 14.6V15.6H14.2294L14.5251 15.2886L13.8 14.6ZM19.08 9.04L19.8051 9.72861L20.08 9.43917V9.04H19.08ZM19.08 7.48H20.08V6.48H19.08V7.48ZM9.84 19.08V18.08H8.84V19.08H9.84ZM9.84 26.48H8.84V27.48H9.84V26.48ZM19.52 26.48V27.48H20.52V26.48H19.52ZM19.52 21.4H20.52V21.076L20.3299 20.8135L19.52 21.4ZM17.84 19.08L18.6499 18.4935L18.3505 18.08H17.84V19.08ZM5 3V4H21.68V3V2H5V3ZM21.68 3L20.8622 3.57549L23.1422 6.81549L23.96 6.24L24.7778 5.66451L22.4978 2.42451L21.68 3ZM23.96 6.24H22.96V10.52H23.96H24.96V6.24H23.96ZM23.96 10.52L23.2389 9.82717L19.3189 13.9072L20.04 14.6L20.7611 15.2928L24.6811 11.2128L23.96 10.52ZM20.04 14.6V15.6H20.24V14.6V13.6H20.04V14.6ZM20.24 14.6L19.4131 15.1623L23.4931 21.1623L24.32 20.6L25.1469 20.0377L21.0669 14.0377L20.24 14.6ZM24.32 20.6H23.32V28.68H24.32H25.32V20.6H24.32ZM24.32 28.68L23.7949 27.829L20.0349 30.149L20.56 31L21.0851 31.851L24.8451 29.531L24.32 28.68ZM20.56 31V30H5V31V32H20.56V31ZM5 31H6V3H5H4V31H5ZM9.84 7.48H8.84V14.6H9.84H10.84V7.48H9.84ZM9.84 14.6V15.6H13.8V14.6V13.6H9.84V14.6ZM13.8 14.6L14.5251 15.2886L19.8051 9.72861L19.08 9.04L18.3549 8.35139L13.0749 13.9114L13.8 14.6ZM19.08 9.04H20.08V7.48H19.08H18.08V9.04H19.08ZM19.08 7.48V6.48H9.84V7.48V8.48H19.08V7.48ZM9.84 19.08H8.84V26.48H9.84H10.84V19.08H9.84ZM9.84 26.48V27.48H19.52V26.48V25.48H9.84V26.48ZM19.52 26.48H20.52V21.4H19.52H18.52V26.48H19.52ZM19.52 21.4L20.3299 20.8135L18.6499 18.4935L17.84 19.08L17.0301 19.6665L18.7101 21.9865L19.52 21.4ZM17.84 19.08V18.08H9.84V19.08V20.08H17.84V19.08ZM36.7444 3V2H36.3201L36.0253 2.30505L36.7444 3ZM47.4244 3H48.4244V2H47.4244V3ZM47.4244 31V32H48.4244V31H47.4244ZM42.5844 31H41.5844V32H42.5844V31ZM42.5844 19.04H43.5844V18.04H42.5844V19.04ZM34.5844 19.04V18.04H33.5844V19.04H34.5844ZM34.5844 31V32H35.5844V31H34.5844ZM29.8244 31H28.8244V32H29.8244V31ZM29.8244 10.16L29.1053 9.46505L28.8244 9.75574V10.16H29.8244ZM34.5844 11.56L33.8667 10.8636L33.5844 11.1546V11.56H34.5844ZM34.5844 14.52H33.5844V15.52H34.5844V14.52ZM42.5844 14.52V15.52H43.5844V14.52H42.5844ZM42.5844 7.52H43.5844V6.52H42.5844V7.52ZM38.5044 7.52V6.52H38.0813L37.7867 6.82363L38.5044 7.52ZM36.7444 3V4H47.4244V3V2H36.7444V3ZM47.4244 3H46.4244V31H47.4244H48.4244V3H47.4244ZM47.4244 31V30H42.5844V31V32H47.4244V31ZM42.5844 31H43.5844V19.04H42.5844H41.5844V31H42.5844ZM42.5844 19.04V18.04H34.5844V19.04V20.04H42.5844V19.04ZM34.5844 19.04H33.5844V31H34.5844H35.5844V19.04H34.5844ZM34.5844 31V30H29.8244V31V32H34.5844V31ZM29.8244 31H30.8244V10.16H29.8244H28.8244V31H29.8244ZM29.8244 10.16L30.5434 10.855L37.4634 3.69495L36.7444 3L36.0253 2.30505L29.1053 9.46505L29.8244 10.16ZM34.5844 11.56H33.5844V14.52H34.5844H35.5844V11.56H34.5844ZM34.5844 14.52V15.52H42.5844V14.52V13.52H34.5844V14.52ZM42.5844 14.52H43.5844V7.52H42.5844H41.5844V14.52H42.5844ZM42.5844 7.52V6.52H38.5044V7.52V8.52H42.5844V7.52ZM38.5044 7.52L37.7867 6.82363L33.8667 10.8636L34.5844 11.56L35.3021 12.2564L39.2221 8.21637L38.5044 7.52ZM57.2087 3V2H56.7914L56.4979 2.29668L57.2087 3ZM69.2088 3L70.0419 2.44687L69.7452 2H69.2088V3ZM72.4487 7.88L73.1729 8.56965L73.7233 7.99174L73.2818 7.32688L72.4487 7.88ZM69.2487 11.24L68.4153 11.7926L69.1082 12.8376L69.9729 11.9297L69.2487 11.24ZM66.8087 7.56L67.6422 7.00739L67.3456 6.56H66.8087V7.56ZM59.0488 7.56V6.56H58.6034L58.3055 6.89103L59.0488 7.56ZM58.3288 8.36L57.5855 7.69103L57.3288 7.97626V8.36H58.3288ZM58.3288 24.72H57.3288V25.0199L57.4938 25.2703L58.3288 24.72ZM59.4888 26.48L58.6538 27.0303L58.9502 27.48H59.4888V26.48ZM67.1687 26.48V27.48H67.583L67.8759 27.1871L67.1687 26.48ZM70.0088 23.64L70.8394 23.0833L70.162 22.0725L69.3016 22.9329L70.0088 23.64ZM72.5287 27.4L73.2517 28.0909L73.8065 27.5103L73.3594 26.8433L72.5287 27.4ZM69.0887 31V32H69.5163L69.8117 31.6909L69.0887 31ZM57.0887 31L56.2586 31.5576L56.5558 32H57.0887V31ZM53.4888 25.64H52.4888V25.9447L52.6586 26.1976L53.4888 25.64ZM53.4888 6.76L52.7779 6.05668L52.4888 6.34892V6.76H53.4888ZM57.2087 3V4H69.2088V3V2H57.2087V3ZM69.2088 3L68.3756 3.55312L71.6156 8.43312L72.4487 7.88L73.2818 7.32688L70.0419 2.44687L69.2088 3ZM72.4487 7.88L71.7246 7.19034L68.5246 10.5503L69.2487 11.24L69.9729 11.9297L73.1729 8.56965L72.4487 7.88ZM69.2487 11.24L70.0822 10.6874L67.6422 7.00739L66.8087 7.56L65.9753 8.11261L68.4153 11.7926L69.2487 11.24ZM66.8087 7.56V6.56H59.0488V7.56V8.56H66.8087V7.56ZM59.0488 7.56L58.3055 6.89103L57.5855 7.69103L58.3288 8.36L59.072 9.02896L59.792 8.22896L59.0488 7.56ZM58.3288 8.36H57.3288V24.72H58.3288H59.3288V8.36H58.3288ZM58.3288 24.72L57.4938 25.2703L58.6538 27.0303L59.4888 26.48L60.3237 25.9297L59.1637 24.1697L58.3288 24.72ZM59.4888 26.48V27.48H67.1687V26.48V25.48H59.4888V26.48ZM67.1687 26.48L67.8759 27.1871L70.7159 24.3471L70.0088 23.64L69.3016 22.9329L66.4616 25.7729L67.1687 26.48ZM70.0088 23.64L69.1781 24.1967L71.6981 27.9567L72.5287 27.4L73.3594 26.8433L70.8394 23.0833L70.0088 23.64ZM72.5287 27.4L71.8058 26.7091L68.3658 30.3091L69.0887 31L69.8117 31.6909L73.2517 28.0909L72.5287 27.4ZM69.0887 31V30H57.0887V31V32H69.0887V31ZM57.0887 31L57.9189 30.4424L54.3189 25.0824L53.4888 25.64L52.6586 26.1976L56.2586 31.5576L57.0887 31ZM53.4888 25.64H54.4888V6.76H53.4888H52.4888V25.64H53.4888ZM53.4888 6.76L54.1996 7.46331L57.9196 3.70331L57.2087 3L56.4979 2.29668L52.7779 6.05668L53.4888 6.76ZM90.7531 3V2H90.3354L90.0418 2.29709L90.7531 3ZM97.1931 3L97.9116 3.69555L99.553 2H97.1931V3ZM86.2731 14.28L85.5546 13.5845L84.9944 14.1631L85.4405 14.8338L86.2731 14.28ZM97.3931 31V32H99.2592L98.2258 30.4462L97.3931 31ZM92.0731 31L91.2479 31.5649L91.5458 32H92.0731V31ZM82.8731 17.56L83.6983 16.9951L83.0242 16.0103L82.1725 16.8464L82.8731 17.56ZM80.6731 19.72L79.9725 19.0064L79.6731 19.3004V19.72H80.6731ZM80.6731 31V32H81.6731V31H80.6731ZM75.8331 31H74.8331V32H75.8331V31ZM75.8331 3V2H74.8331V3H75.8331ZM80.6731 3H81.6731V2H80.6731V3ZM80.6731 13.2H79.6731V15.6346L81.3844 13.9029L80.6731 13.2ZM90.7531 3V4H97.1931V3V2H90.7531V3ZM97.1931 3L96.4746 2.30445L85.5546 13.5845L86.2731 14.28L86.9916 14.9755L97.9116 3.69555L97.1931 3ZM86.2731 14.28L85.4405 14.8338L96.5605 31.5538L97.3931 31L98.2258 30.4462L87.1058 13.7262L86.2731 14.28ZM97.3931 31V30H92.0731V31V32H97.3931V31ZM92.0731 31L92.8983 30.4351L83.6983 16.9951L82.8731 17.56L82.0479 18.1249L91.2479 31.5649L92.0731 31ZM82.8731 17.56L82.1725 16.8464L79.9725 19.0064L80.6731 19.72L81.3737 20.4336L83.5737 18.2736L82.8731 17.56ZM80.6731 19.72H79.6731V31H80.6731H81.6731V19.72H80.6731ZM80.6731 31V30H75.8331V31V32H80.6731V31ZM75.8331 31H76.8331V3H75.8331H74.8331V31H75.8331ZM75.8331 3V4H80.6731V3V2H75.8331V3ZM80.6731 3H79.6731V13.2H80.6731H81.6731V3H80.6731ZM80.6731 13.2L81.3844 13.9029L91.4644 3.70291L90.7531 3L90.0418 2.29709L79.9618 12.4971L80.6731 13.2ZM124.122 3V2H123.122V3H124.122ZM145.002 3H146.002V2H145.002V3ZM145.002 7.52V8.52H146.002V7.52H145.002ZM134.362 7.52V6.52H131.743L133.695 8.26554L134.362 7.52ZM137.002 9.88H138.002V9.43262L137.668 9.13446L137.002 9.88ZM137.002 31V32H138.002V31H137.002ZM132.162 31H131.162V32H132.162V31ZM132.162 11H133.162V10.8377L133.111 10.6838L132.162 11ZM131.002 7.52L131.951 7.20377L131.723 6.52H131.002V7.52ZM124.122 7.52H123.122V8.52H124.122V7.52ZM124.122 3V4H145.002V3V2H124.122V3ZM145.002 3H144.002V7.52H145.002H146.002V3H145.002ZM145.002 7.52V6.52H134.362V7.52V8.52H145.002V7.52ZM134.362 7.52L133.695 8.26554L136.335 10.6255L137.002 9.88L137.668 9.13446L135.028 6.77446L134.362 7.52ZM137.002 9.88H136.002V31H137.002H138.002V9.88H137.002ZM137.002 31V30H132.162V31V32H137.002V31ZM132.162 31H133.162V11H132.162H131.162V31H132.162ZM132.162 11L133.111 10.6838L131.951 7.20377L131.002 7.52L130.053 7.83623L131.213 11.3162L132.162 11ZM131.002 7.52V6.52H124.122V7.52V8.52H131.002V7.52ZM124.122 7.52H125.122V3H124.122H123.122V7.52H124.122ZM152.626 3V2H152.203L151.908 2.3042L152.626 3ZM164.666 3L165.502 2.45107L165.206 2H164.666V3ZM168.186 8.36H169.186V8.061L169.022 7.81107L168.186 8.36ZM168.186 27.16L168.912 27.848L169.186 27.5586V27.16H168.186ZM164.546 31V32H164.976L165.272 31.688L164.546 31ZM152.546 31L151.719 31.5618L152.017 32H152.546V31ZM148.906 25.64H147.906V25.9475L148.079 26.2018L148.906 25.64ZM148.906 6.84L148.188 6.1442L147.906 6.43505V6.84H148.906ZM153.746 24.76H152.746V25.0657L152.917 25.3191L153.746 24.76ZM154.906 26.48L154.077 27.0391L154.374 27.48H154.906V26.48ZM162.586 26.48V27.48H163.016L163.311 27.1688L162.586 26.48ZM163.346 25.68L164.071 26.3687L164.346 26.0793V25.68H163.346ZM163.346 9.24H164.346V8.9343L164.175 8.68086L163.346 9.24ZM162.186 7.52L163.015 6.96086L162.718 6.52H162.186V7.52ZM154.466 7.52V6.52H154.021L153.723 6.85103L154.466 7.52ZM153.746 8.32L153.003 7.65103L152.746 7.93626V8.32H153.746ZM152.626 3V4H164.666V3V2H152.626V3ZM164.666 3L163.83 3.54893L167.35 8.90893L168.186 8.36L169.022 7.81107L165.502 2.45107L164.666 3ZM168.186 8.36H167.186V27.16H168.186H169.186V8.36H168.186ZM168.186 27.16L167.46 26.472L163.82 30.312L164.546 31L165.272 31.688L168.912 27.848L168.186 27.16ZM164.546 31V30H152.546V31V32H164.546V31ZM152.546 31L153.374 30.4382L149.734 25.0782L148.906 25.64L148.079 26.2018L151.719 31.5618L152.546 31ZM148.906 25.64H149.906V6.84H148.906H147.906V25.64H148.906ZM148.906 6.84L149.624 7.53579L153.344 3.69579L152.626 3L151.908 2.3042L148.188 6.1442L148.906 6.84ZM153.746 24.76L152.917 25.3191L154.077 27.0391L154.906 26.48L155.735 25.9209L154.575 24.2009L153.746 24.76ZM154.906 26.48V27.48H162.586V26.48V25.48H154.906V26.48ZM162.586 26.48L163.311 27.1688L164.071 26.3687L163.346 25.68L162.621 24.9912L161.861 25.7913L162.586 26.48ZM163.346 25.68H164.346V9.24H163.346H162.346V25.68H163.346ZM163.346 9.24L164.175 8.68086L163.015 6.96086L162.186 7.52L161.357 8.07914L162.517 9.79914L163.346 9.24ZM162.186 7.52V6.52H154.466V7.52V8.52H162.186V7.52ZM154.466 7.52L153.723 6.85103L153.003 7.65103L153.746 8.32L154.49 8.98896L155.21 8.18896L154.466 7.52ZM153.746 8.32H152.746V24.76H153.746H154.746V8.32H153.746ZM196.875 3V2H195.875V3H196.875ZM201.715 3H202.715V2H201.715V3ZM201.715 3.44H200.715V3.74358L200.884 3.99592L201.715 3.44ZM205.915 9.72L205.084 10.2759L205.838 11.4041L206.692 10.3492L205.915 9.72ZM211.355 3V2H210.878L210.578 2.3708L211.355 3ZM216.195 3H217.195V2H216.195V3ZM216.195 31V32H217.195V31H216.195ZM211.355 31H210.355V32H211.355V31ZM211.355 9.52H212.355V6.79817L210.593 8.87259L211.355 9.52ZM208.195 13.24L207.433 12.5926L207.195 12.8726V13.24H208.195ZM208.195 15.76V16.76H209.195V15.76H208.195ZM204.715 15.76H203.715V16.76H204.715V15.76ZM204.715 15.12H205.715V14.8161L205.546 14.5636L204.715 15.12ZM201.715 10.64L202.546 10.0836L200.715 7.34944V10.64H201.715ZM201.715 31V32H202.715V31H201.715ZM196.875 31H195.875V32H196.875V31ZM196.875 3V4H201.715V3V2H196.875V3ZM201.715 3H200.715V3.44H201.715H202.715V3H201.715ZM201.715 3.44L200.884 3.99592L205.084 10.2759L205.915 9.72L206.746 9.16408L202.546 2.88408L201.715 3.44ZM205.915 9.72L206.692 10.3492L212.132 3.6292L211.355 3L210.578 2.3708L205.138 9.0908L205.915 9.72ZM211.355 3V4H216.195V3V2H211.355V3ZM216.195 3H215.195V31H216.195H217.195V3H216.195ZM216.195 31V30H211.355V31V32H216.195V31ZM211.355 31H212.355V9.52H211.355H210.355V31H211.355ZM211.355 9.52L210.593 8.87259L207.433 12.5926L208.195 13.24L208.957 13.8874L212.117 10.1674L211.355 9.52ZM208.195 13.24H207.195V15.76H208.195H209.195V13.24H208.195ZM208.195 15.76V14.76H204.715V15.76V16.76H208.195V15.76ZM204.715 15.76H205.715V15.12H204.715H203.715V15.76H204.715ZM204.715 15.12L205.546 14.5636L202.546 10.0836L201.715 10.64L200.884 11.1964L203.884 15.6764L204.715 15.12ZM201.715 10.64H200.715V31H201.715H202.715V10.64H201.715ZM201.715 31V30H196.875V31V32H201.715V31ZM196.875 31H197.875V3H196.875H195.875V31H196.875ZM224.139 3V2H223.719L223.425 2.30045L224.139 3ZM239.739 3H240.739V2H239.739V3ZM239.739 7.52V8.52H240.739V7.52H239.739ZM225.979 7.52V6.52H225.534L225.236 6.85103L225.979 7.52ZM225.259 8.32L224.516 7.65103L224.259 7.93626V8.32H225.259ZM225.259 14.6H224.259V15.6H225.259V14.6ZM234.499 14.6H235.499V13.6H234.499V14.6ZM234.499 19.12V20.12H235.499V19.12H234.499ZM225.259 19.12V18.12H224.259V19.12H225.259ZM225.259 24.72H224.259V25.0199L224.424 25.2703L225.259 24.72ZM226.419 26.48L225.584 27.0303L225.881 27.48H226.419V26.48ZM239.739 26.48H240.739V25.48H239.739V26.48ZM239.739 31V32H240.739V31H239.739ZM224.019 31L223.189 31.5576L223.486 32H224.019V31ZM220.419 25.64H219.419V25.9447L219.589 26.1976L220.419 25.64ZM220.419 6.8L219.705 6.10045L219.419 6.392V6.8H220.419ZM224.139 3V4H239.739V3V2H224.139V3ZM239.739 3H238.739V7.52H239.739H240.739V3H239.739ZM239.739 7.52V6.52H225.979V7.52V8.52H239.739V7.52ZM225.979 7.52L225.236 6.85103L224.516 7.65103L225.259 8.32L226.003 8.98896L226.723 8.18896L225.979 7.52ZM225.259 8.32H224.259V14.6H225.259H226.259V8.32H225.259ZM225.259 14.6V15.6H234.499V14.6V13.6H225.259V14.6ZM234.499 14.6H233.499V19.12H234.499H235.499V14.6H234.499ZM234.499 19.12V18.12H225.259V19.12V20.12H234.499V19.12ZM225.259 19.12H224.259V24.72H225.259H226.259V19.12H225.259ZM225.259 24.72L224.424 25.2703L225.584 27.0303L226.419 26.48L227.254 25.9297L226.094 24.1697L225.259 24.72ZM226.419 26.48V27.48H239.739V26.48V25.48H226.419V26.48ZM239.739 26.48H238.739V31H239.739H240.739V26.48H239.739ZM239.739 31V30H224.019V31V32H239.739V31ZM224.019 31L224.85 30.4424L221.25 25.0824L220.419 25.64L219.589 26.1976L223.189 31.5576L224.019 31ZM220.419 25.64H221.419V6.8H220.419H219.419V25.64H220.419ZM220.419 6.8L221.134 7.49954L224.854 3.69954L224.139 3L223.425 2.30045L219.705 6.10045L220.419 6.8ZM259.324 3V2H258.324V3H259.324ZM264.164 3H265.164V2H264.164V3ZM264.164 31V32H265.164V31H264.164ZM259.324 31H258.324V32H259.324V31ZM259.324 22.2H260.324V21.8954L260.154 21.6425L259.324 22.2ZM250.004 8.32L250.834 7.76254L250.537 7.32H250.004V8.32ZM249.684 8.32V7.32H248.684V8.32H249.684ZM249.684 31V32H250.684V31H249.684ZM244.844 31H243.844V32H244.844V31ZM244.844 3V2H243.844V3H244.844ZM252.404 3L253.249 2.46612L252.955 2H252.404V3ZM259.324 13.96L258.478 14.4939L260.324 17.4169V13.96H259.324ZM259.324 3V4H264.164V3V2H259.324V3ZM264.164 3H263.164V31H264.164H265.164V3H264.164ZM264.164 31V30H259.324V31V32H264.164V31ZM259.324 31H260.324V22.2H259.324H258.324V31H259.324ZM259.324 22.2L260.154 21.6425L250.834 7.76254L250.004 8.32L249.174 8.87746L258.494 22.7575L259.324 22.2ZM250.004 8.32V7.32H249.684V8.32V9.32H250.004V8.32ZM249.684 8.32H248.684V31H249.684H250.684V8.32H249.684ZM249.684 31V30H244.844V31V32H249.684V31ZM244.844 31H245.844V3H244.844H243.844V31H244.844ZM244.844 3V4H252.404V3V2H244.844V3ZM252.404 3L251.558 3.53387L258.478 14.4939L259.324 13.96L260.169 13.4261L253.249 2.46612L252.404 3ZM259.324 13.96H260.324V3H259.324H258.324V13.96H259.324ZM283.308 3V2H282.308V3H283.308ZM288.148 3H289.148V2H288.148V3ZM288.148 31V32H289.148V31H288.148ZM283.308 31H282.308V32H283.308V31ZM283.308 29.64H284.308V27.8462L282.782 28.7894L283.308 29.64ZM281.108 31V32H281.392L281.634 31.8506L281.108 31ZM272.428 31L271.601 31.5618L271.898 32H272.428V31ZM268.788 25.64H267.788V25.9475L267.961 26.2018L268.788 25.64ZM268.788 3V2H267.788V3H268.788ZM273.628 3H274.628V2H273.628V3ZM273.628 24.72H272.628V25.0199L272.793 25.2703L273.628 24.72ZM274.788 26.48L273.953 27.0303L274.25 27.48H274.788V26.48ZM282.508 26.48V27.48H282.922L283.215 27.1871L282.508 26.48ZM283.308 25.68L284.015 26.3871L284.308 26.0942V25.68H283.308ZM283.308 3V4H288.148V3V2H283.308V3ZM288.148 3H287.148V31H288.148H289.148V3H288.148ZM288.148 31V30H283.308V31V32H288.148V31ZM283.308 31H284.308V29.64H283.308H282.308V31H283.308ZM283.308 29.64L282.782 28.7894L280.582 30.1494L281.108 31L281.634 31.8506L283.834 30.4906L283.308 29.64ZM281.108 31V30H272.428V31V32H281.108V31ZM272.428 31L273.255 30.4382L269.615 25.0782L268.788 25.64L267.961 26.2018L271.601 31.5618L272.428 31ZM268.788 25.64H269.788V3H268.788H267.788V25.64H268.788ZM268.788 3V4H273.628V3V2H268.788V3ZM273.628 3H272.628V24.72H273.628H274.628V3H273.628ZM273.628 24.72L272.793 25.2703L273.953 27.0303L274.788 26.48L275.623 25.9297L274.463 24.1697L273.628 24.72ZM274.788 26.48V27.48H282.508V26.48V25.48H274.788V26.48ZM282.508 26.48L283.215 27.1871L284.015 26.3871L283.308 25.68L282.601 24.9729L281.801 25.7729L282.508 26.48ZM283.308 25.68H284.308V3H283.308H282.308V25.68H283.308Z" fill="white" mask="url(#path-1-outside-1_7_119)"/>
</g>
<defs>
<filter id="filter0_d_7_119" x="0" y="0" width="293.148" height="38" filterUnits="userSpaceOnUse" color-interpolation-filters="sRGB">
<feFlood flood-opacity="0" result="BackgroundImageFix"/>
<feColorMatrix in="SourceAlpha" type="matrix" values="0 0 0 0 0 0 0 0 0 0 0 0 0 0 0 0 0 0 127 0" result="hardAlpha"/>
<feOffset dy="2"/>
<feGaussianBlur stdDeviation="2"/>
<feComposite in2="hardAlpha" operator="out"/>
<feColorMatrix type="matrix" values="0 0 0 0 0 0 0 0 0 0 0 0 0 0 0 0 0 0 0.5 0"/>
<feBlend mode="normal" in2="BackgroundImageFix" result="effect1_dropShadow_7_119"/>
<feBlend mode="normal" in="SourceGraphic" in2="effect1_dropShadow_7_119" result="shape"/>
</filter>
</defs>
</svg>
