<svg width="197" height="38" viewBox="0 0 197 38" fill="none" xmlns="http://www.w3.org/2000/svg">
<g filter="url(#filter0_d_7_114)">
<mask id="path-1-outside-1_7_114" maskUnits="userSpaceOnUse" x="3.12" y="2" width="190" height="30" fill="black">
<rect fill="white" x="3.12" y="2" width="190" height="30"/>
<path d="M8.72 3H20.72L23.96 7.88L20.76 11.24L18.32 7.56H10.56L9.84 8.36V24.72L11 26.48H18.68L21.52 23.64L24.04 27.4L20.6 31H8.6L5 25.64V6.76L8.72 3ZM32.1844 3H44.2244L47.7444 8.36V27.16L44.1044 31H32.1044L28.4644 25.64V6.84L32.1844 3ZM33.3044 24.76L34.4644 26.48H42.1444L42.9044 25.68V9.24L41.7444 7.52H34.0244L33.3044 8.32V24.76ZM66.9288 3H71.7688V31H66.9288V22.2L57.6088 8.32H57.2888V31H52.4488V3H60.0088L66.9288 13.96V3ZM75.6331 3H96.5131V7.52H85.8731L88.5131 9.88V31H83.6731V11L82.5131 7.52H75.6331V3ZM100.378 3H119.738V7.52H112.458V26.48H119.738V31H100.378V26.48H107.618V7.52H100.378V3ZM138.882 3H143.722V31H138.882V22.2L129.562 8.32H129.242V31H124.402V3H131.962L138.882 13.96V3ZM162.866 3H167.706V31H162.866V29.64L160.666 31H151.986L148.346 25.64V3H153.186V24.72L154.346 26.48H162.066L162.866 25.68V3ZM175.651 3H191.251V7.52H177.491L176.771 8.32V14.6H186.011V19.12H176.771V24.72L177.931 26.48H191.251V31H175.531L171.931 25.64V6.8L175.651 3Z"/>
</mask>
<path d="M8.72 3H20.72L23.96 7.88L20.76 11.24L18.32 7.56H10.56L9.84 8.36V24.72L11 26.48H18.68L21.52 23.64L24.04 27.4L20.6 31H8.6L5 25.64V6.76L8.72 3ZM32.1844 3H44.2244L47.7444 8.36V27.16L44.1044 31H32.1044L28.4644 25.64V6.84L32.1844 3ZM33.3044 24.76L34.4644 26.48H42.1444L42.9044 25.68V9.24L41.7444 7.52H34.0244L33.3044 8.32V24.76ZM66.9288 3H71.7688V31H66.9288V22.2L57.6088 8.32H57.2888V31H52.4488V3H60.0088L66.9288 13.96V3ZM75.6331 3H96.5131V7.52H85.8731L88.5131 9.88V31H83.6731V11L82.5131 7.52H75.6331V3ZM100.378 3H119.738V7.52H112.458V26.48H119.738V31H100.378V26.48H107.618V7.52H100.378V3ZM138.882 3H143.722V31H138.882V22.2L129.562 8.32H129.242V31H124.402V3H131.962L138.882 13.96V3ZM162.866 3H167.706V31H162.866V29.64L160.666 31H151.986L148.346 25.64V3H153.186V24.72L154.346 26.48H162.066L162.866 25.68V3ZM175.651 3H191.251V7.52H177.491L176.771 8.32V14.6H186.011V19.12H176.771V24.72L177.931 26.48H191.251V31H175.531L171.931 25.64V6.8L175.651 3Z" fill="#213084"/>
<path d="M8.72 3V2H8.30265L8.00912 2.29668L8.72 3ZM20.72 3L21.5531 2.44687L21.2564 2H20.72V3ZM23.96 7.88L24.6841 8.56965L25.2345 7.99174L24.7931 7.32688L23.96 7.88ZM20.76 11.24L19.9266 11.7926L20.6194 12.8376L21.4841 11.9297L20.76 11.24ZM18.32 7.56L19.1534 7.00739L18.8568 6.56H18.32V7.56ZM10.56 7.56V6.56H10.1146L9.81671 6.89103L10.56 7.56ZM9.84 8.36L9.09671 7.69103L8.84 7.97626V8.36H9.84ZM9.84 24.72H8.84V25.0199L9.00504 25.2703L9.84 24.72ZM11 26.48L10.165 27.0303L10.4614 27.48H11V26.48ZM18.68 26.48V27.48H19.0942L19.3871 27.1871L18.68 26.48ZM21.52 23.64L22.3507 23.0833L21.6733 22.0725L20.8129 22.9329L21.52 23.64ZM24.04 27.4L24.763 28.0909L25.3178 27.5103L24.8707 26.8433L24.04 27.4ZM20.6 31V32H21.0276L21.323 31.6909L20.6 31ZM8.6 31L7.76986 31.5576L8.06703 32H8.6V31ZM5 25.64H4V25.9447L4.16986 26.1976L5 25.64ZM5 6.76L4.28912 6.05668L4 6.34892V6.76H5ZM8.72 3V4H20.72V3V2H8.72V3ZM20.72 3L19.8869 3.55312L23.1269 8.43312L23.96 7.88L24.7931 7.32688L21.5531 2.44687L20.72 3ZM23.96 7.88L23.2359 7.19034L20.0359 10.5503L20.76 11.24L21.4841 11.9297L24.6841 8.56965L23.96 7.88ZM20.76 11.24L21.5934 10.6874L19.1534 7.00739L18.32 7.56L17.4866 8.11261L19.9266 11.7926L20.76 11.24ZM18.32 7.56V6.56H10.56V7.56V8.56H18.32V7.56ZM10.56 7.56L9.81671 6.89103L9.09671 7.69103L9.84 8.36L10.5833 9.02896L11.3033 8.22896L10.56 7.56ZM9.84 8.36H8.84V24.72H9.84H10.84V8.36H9.84ZM9.84 24.72L9.00504 25.2703L10.165 27.0303L11 26.48L11.835 25.9297L10.675 24.1697L9.84 24.72ZM11 26.48V27.48H18.68V26.48V25.48H11V26.48ZM18.68 26.48L19.3871 27.1871L22.2271 24.3471L21.52 23.64L20.8129 22.9329L17.9729 25.7729L18.68 26.48ZM21.52 23.64L20.6893 24.1967L23.2093 27.9567L24.04 27.4L24.8707 26.8433L22.3507 23.0833L21.52 23.64ZM24.04 27.4L23.317 26.7091L19.877 30.3091L20.6 31L21.323 31.6909L24.763 28.0909L24.04 27.4ZM20.6 31V30H8.6V31V32H20.6V31ZM8.6 31L9.43014 30.4424L5.83014 25.0824L5 25.64L4.16986 26.1976L7.76986 31.5576L8.6 31ZM5 25.64H6V6.76H5H4V25.64H5ZM5 6.76L5.71088 7.46331L9.43088 3.70331L8.72 3L8.00912 2.29668L4.28912 6.05668L5 6.76ZM32.1844 3V2H31.7608L31.4661 2.3042L32.1844 3ZM44.2244 3L45.0602 2.45107L44.764 2H44.2244V3ZM47.7444 8.36H48.7444V8.061L48.5802 7.81107L47.7444 8.36ZM47.7444 27.16L48.4701 27.848L48.7444 27.5586V27.16H47.7444ZM44.1044 31V32H44.5343L44.8301 31.688L44.1044 31ZM32.1044 31L31.2771 31.5618L31.5747 32H32.1044V31ZM28.4644 25.64H27.4644V25.9475L27.6371 26.2018L28.4644 25.64ZM28.4644 6.84L27.7461 6.1442L27.4644 6.43505V6.84H28.4644ZM33.3044 24.76H32.3044V25.0657L32.4753 25.3191L33.3044 24.76ZM34.4644 26.48L33.6353 27.0391L33.9326 27.48H34.4644V26.48ZM42.1444 26.48V27.48H42.5737L42.8694 27.1688L42.1444 26.48ZM42.9044 25.68L43.6294 26.3687L43.9044 26.0793V25.68H42.9044ZM42.9044 9.24H43.9044V8.9343L43.7335 8.68086L42.9044 9.24ZM41.7444 7.52L42.5735 6.96086L42.2761 6.52H41.7444V7.52ZM34.0244 7.52V6.52H33.579L33.2811 6.85103L34.0244 7.52ZM33.3044 8.32L32.5611 7.65103L32.3044 7.93626V8.32H33.3044ZM32.1844 3V4H44.2244V3V2H32.1844V3ZM44.2244 3L43.3885 3.54893L46.9085 8.90893L47.7444 8.36L48.5802 7.81107L45.0602 2.45107L44.2244 3ZM47.7444 8.36H46.7444V27.16H47.7444H48.7444V8.36H47.7444ZM47.7444 27.16L47.0186 26.472L43.3786 30.312L44.1044 31L44.8301 31.688L48.4701 27.848L47.7444 27.16ZM44.1044 31V30H32.1044V31V32H44.1044V31ZM32.1044 31L32.9316 30.4382L29.2916 25.0782L28.4644 25.64L27.6371 26.2018L31.2771 31.5618L32.1044 31ZM28.4644 25.64H29.4644V6.84H28.4644H27.4644V25.64H28.4644ZM28.4644 6.84L29.1826 7.53579L32.9026 3.69579L32.1844 3L31.4661 2.3042L27.7461 6.1442L28.4644 6.84ZM33.3044 24.76L32.4753 25.3191L33.6353 27.0391L34.4644 26.48L35.2934 25.9209L34.1334 24.2009L33.3044 24.76ZM34.4644 26.48V27.48H42.1444V26.48V25.48H34.4644V26.48ZM42.1444 26.48L42.8694 27.1688L43.6294 26.3687L42.9044 25.68L42.1794 24.9912L41.4194 25.7913L42.1444 26.48ZM42.9044 25.68H43.9044V9.24H42.9044H41.9044V25.68H42.9044ZM42.9044 9.24L43.7335 8.68086L42.5735 6.96086L41.7444 7.52L40.9153 8.07914L42.0753 9.79914L42.9044 9.24ZM41.7444 7.52V6.52H34.0244V7.52V8.52H41.7444V7.52ZM34.0244 7.52L33.2811 6.85103L32.5611 7.65103L33.3044 8.32L34.0477 8.98896L34.7677 8.18896L34.0244 7.52ZM33.3044 8.32H32.3044V24.76H33.3044H34.3044V8.32H33.3044ZM66.9288 3V2H65.9288V3H66.9288ZM71.7688 3H72.7688V2H71.7688V3ZM71.7688 31V32H72.7688V31H71.7688ZM66.9288 31H65.9288V32H66.9288V31ZM66.9288 22.2H67.9288V21.8954L67.759 21.6425L66.9288 22.2ZM57.6088 8.32L58.439 7.76254L58.1418 7.32H57.6088V8.32ZM57.2888 8.32V7.32H56.2888V8.32H57.2888ZM57.2888 31V32H58.2888V31H57.2888ZM52.4488 31H51.4488V32H52.4488V31ZM52.4488 3V2H51.4488V3H52.4488ZM60.0088 3L60.8543 2.46612L60.56 2H60.0088V3ZM66.9288 13.96L66.0832 14.4939L67.9288 17.4169V13.96H66.9288ZM66.9288 3V4H71.7688V3V2H66.9288V3ZM71.7688 3H70.7688V31H71.7688H72.7688V3H71.7688ZM71.7688 31V30H66.9288V31V32H71.7688V31ZM66.9288 31H67.9288V22.2H66.9288H65.9288V31H66.9288ZM66.9288 22.2L67.759 21.6425L58.439 7.76254L57.6088 8.32L56.7785 8.87746L66.0985 22.7575L66.9288 22.2ZM57.6088 8.32V7.32H57.2888V8.32V9.32H57.6088V8.32ZM57.2888 8.32H56.2888V31H57.2888H58.2888V8.32H57.2888ZM57.2888 31V30H52.4488V31V32H57.2888V31ZM52.4488 31H53.4488V3H52.4488H51.4488V31H52.4488ZM52.4488 3V4H60.0088V3V2H52.4488V3ZM60.0088 3L59.1632 3.53387L66.0832 14.4939L66.9288 13.96L67.7743 13.4261L60.8543 2.46612L60.0088 3ZM66.9288 13.96H67.9288V3H66.9288H65.9288V13.96H66.9288ZM75.6331 3V2H74.6331V3H75.6331ZM96.5131 3H97.5131V2H96.5131V3ZM96.5131 7.52V8.52H97.5131V7.52H96.5131ZM85.8731 7.52V6.52H83.254L85.2067 8.26554L85.8731 7.52ZM88.5131 9.88H89.5131V9.43262L89.1796 9.13446L88.5131 9.88ZM88.5131 31V32H89.5131V31H88.5131ZM83.6731 31H82.6731V32H83.6731V31ZM83.6731 11H84.6731V10.8377L84.6218 10.6838L83.6731 11ZM82.5131 7.52L83.4618 7.20377L83.2339 6.52H82.5131V7.52ZM75.6331 7.52H74.6331V8.52H75.6331V7.52ZM75.6331 3V4H96.5131V3V2H75.6331V3ZM96.5131 3H95.5131V7.52H96.5131H97.5131V3H96.5131ZM96.5131 7.52V6.52H85.8731V7.52V8.52H96.5131V7.52ZM85.8731 7.52L85.2067 8.26554L87.8467 10.6255L88.5131 9.88L89.1796 9.13446L86.5396 6.77446L85.8731 7.52ZM88.5131 9.88H87.5131V31H88.5131H89.5131V9.88H88.5131ZM88.5131 31V30H83.6731V31V32H88.5131V31ZM83.6731 31H84.6731V11H83.6731H82.6731V31H83.6731ZM83.6731 11L84.6218 10.6838L83.4618 7.20377L82.5131 7.52L81.5644 7.83623L82.7244 11.3162L83.6731 11ZM82.5131 7.52V6.52H75.6331V7.52V8.52H82.5131V7.52ZM75.6331 7.52H76.6331V3H75.6331H74.6331V7.52H75.6331ZM100.378 3V2H99.3775V3H100.378ZM119.738 3H120.738V2H119.738V3ZM119.738 7.52V8.52H120.738V7.52H119.738ZM112.458 7.52V6.52H111.458V7.52H112.458ZM112.458 26.48H111.458V27.48H112.458V26.48ZM119.738 26.48H120.738V25.48H119.738V26.48ZM119.738 31V32H120.738V31H119.738ZM100.378 31H99.3775V32H100.378V31ZM100.378 26.48V25.48H99.3775V26.48H100.378ZM107.618 26.48V27.48H108.618V26.48H107.618ZM107.618 7.52H108.618V6.52H107.618V7.52ZM100.378 7.52H99.3775V8.52H100.378V7.52ZM100.378 3V4H119.738V3V2H100.378V3ZM119.738 3H118.738V7.52H119.738H120.738V3H119.738ZM119.738 7.52V6.52H112.458V7.52V8.52H119.738V7.52ZM112.458 7.52H111.458V26.48H112.458H113.458V7.52H112.458ZM112.458 26.48V27.48H119.738V26.48V25.48H112.458V26.48ZM119.738 26.48H118.738V31H119.738H120.738V26.48H119.738ZM119.738 31V30H100.378V31V32H119.738V31ZM100.378 31H101.378V26.48H100.378H99.3775V31H100.378ZM100.378 26.48V27.48H107.618V26.48V25.48H100.378V26.48ZM107.618 26.48H108.618V7.52H107.618H106.618V26.48H107.618ZM107.618 7.52V6.52H100.378V7.52V8.52H107.618V7.52ZM100.378 7.52H101.378V3H100.378H99.3775V7.52H100.378ZM138.882 3V2H137.882V3H138.882ZM143.722 3H144.722V2H143.722V3ZM143.722 31V32H144.722V31H143.722ZM138.882 31H137.882V32H138.882V31ZM138.882 22.2H139.882V21.8954L139.712 21.6425L138.882 22.2ZM129.562 8.32L130.392 7.76254L130.095 7.32H129.562V8.32ZM129.242 8.32V7.32H128.242V8.32H129.242ZM129.242 31V32H130.242V31H129.242ZM124.402 31H123.402V32H124.402V31ZM124.402 3V2H123.402V3H124.402ZM131.962 3L132.807 2.46612L132.513 2H131.962V3ZM138.882 13.96L138.036 14.4939L139.882 17.4169V13.96H138.882ZM138.882 3V4H143.722V3V2H138.882V3ZM143.722 3H142.722V31H143.722H144.722V3H143.722ZM143.722 31V30H138.882V31V32H143.722V31ZM138.882 31H139.882V22.2H138.882H137.882V31H138.882ZM138.882 22.2L139.712 21.6425L130.392 7.76254L129.562 8.32L128.732 8.87746L138.052 22.7575L138.882 22.2ZM129.562 8.32V7.32H129.242V8.32V9.32H129.562V8.32ZM129.242 8.32H128.242V31H129.242H130.242V8.32H129.242ZM129.242 31V30H124.402V31V32H129.242V31ZM124.402 31H125.402V3H124.402H123.402V31H124.402ZM124.402 3V4H131.962V3V2H124.402V3ZM131.962 3L131.116 3.53387L138.036 14.4939L138.882 13.96L139.727 13.4261L132.807 2.46612L131.962 3ZM138.882 13.96H139.882V3H138.882H137.882V13.96H138.882ZM162.866 3V2H161.866V3H162.866ZM167.706 3H168.706V2H167.706V3ZM167.706 31V32H168.706V31H167.706ZM162.866 31H161.866V32H162.866V31ZM162.866 29.64H163.866V27.8462L162.34 28.7894L162.866 29.64ZM160.666 31V32H160.95L161.192 31.8506L160.666 31ZM151.986 31L151.159 31.5618L151.457 32H151.986V31ZM148.346 25.64H147.346V25.9475L147.519 26.2018L148.346 25.64ZM148.346 3V2H147.346V3H148.346ZM153.186 3H154.186V2H153.186V3ZM153.186 24.72H152.186V25.0199L152.351 25.2703L153.186 24.72ZM154.346 26.48L153.511 27.0303L153.808 27.48H154.346V26.48ZM162.066 26.48V27.48H162.48L162.773 27.1871L162.066 26.48ZM162.866 25.68L163.573 26.3871L163.866 26.0942V25.68H162.866ZM162.866 3V4H167.706V3V2H162.866V3ZM167.706 3H166.706V31H167.706H168.706V3H167.706ZM167.706 31V30H162.866V31V32H167.706V31ZM162.866 31H163.866V29.64H162.866H161.866V31H162.866ZM162.866 29.64L162.34 28.7894L160.14 30.1494L160.666 31L161.192 31.8506L163.392 30.4906L162.866 29.64ZM160.666 31V30H151.986V31V32H160.666V31ZM151.986 31L152.814 30.4382L149.174 25.0782L148.346 25.64L147.519 26.2018L151.159 31.5618L151.986 31ZM148.346 25.64H149.346V3H148.346H147.346V25.64H148.346ZM148.346 3V4H153.186V3V2H148.346V3ZM153.186 3H152.186V24.72H153.186H154.186V3H153.186ZM153.186 24.72L152.351 25.2703L153.511 27.0303L154.346 26.48L155.181 25.9297L154.021 24.1697L153.186 24.72ZM154.346 26.48V27.48H162.066V26.48V25.48H154.346V26.48ZM162.066 26.48L162.773 27.1871L163.573 26.3871L162.866 25.68L162.159 24.9729L161.359 25.7729L162.066 26.48ZM162.866 25.68H163.866V3H162.866H161.866V25.68H162.866ZM175.651 3V2H175.23L174.936 2.30045L175.651 3ZM191.251 3H192.251V2H191.251V3ZM191.251 7.52V8.52H192.251V7.52H191.251ZM177.491 7.52V6.52H177.045L176.747 6.85103L177.491 7.52ZM176.771 8.32L176.027 7.65103L175.771 7.93626V8.32H176.771ZM176.771 14.6H175.771V15.6H176.771V14.6ZM186.011 14.6H187.011V13.6H186.011V14.6ZM186.011 19.12V20.12H187.011V19.12H186.011ZM176.771 19.12V18.12H175.771V19.12H176.771ZM176.771 24.72H175.771V25.0199L175.936 25.2703L176.771 24.72ZM177.931 26.48L177.096 27.0303L177.392 27.48H177.931V26.48ZM191.251 26.48H192.251V25.48H191.251V26.48ZM191.251 31V32H192.251V31H191.251ZM175.531 31L174.7 31.5576L174.998 32H175.531V31ZM171.931 25.64H170.931V25.9447L171.1 26.1976L171.931 25.64ZM171.931 6.8L171.216 6.10045L170.931 6.392V6.8H171.931ZM175.651 3V4H191.251V3V2H175.651V3ZM191.251 3H190.251V7.52H191.251H192.251V3H191.251ZM191.251 7.52V6.52H177.491V7.52V8.52H191.251V7.52ZM177.491 7.52L176.747 6.85103L176.027 7.65103L176.771 8.32L177.514 8.98896L178.234 8.18896L177.491 7.52ZM176.771 8.32H175.771V14.6H176.771H177.771V8.32H176.771ZM176.771 14.6V15.6H186.011V14.6V13.6H176.771V14.6ZM186.011 14.6H185.011V19.12H186.011H187.011V14.6H186.011ZM186.011 19.12V18.12H176.771V19.12V20.12H186.011V19.12ZM176.771 19.12H175.771V24.72H176.771H177.771V19.12H176.771ZM176.771 24.72L175.936 25.2703L177.096 27.0303L177.931 26.48L178.766 25.9297L177.606 24.1697L176.771 24.72ZM177.931 26.48V27.48H191.251V26.48V25.48H177.931V26.48ZM191.251 26.48H190.251V31H191.251H192.251V26.48H191.251ZM191.251 31V30H175.531V31V32H191.251V31ZM175.531 31L176.361 30.4424L172.761 25.0824L171.931 25.64L171.1 26.1976L174.7 31.5576L175.531 31ZM171.931 25.64H172.931V6.8H171.931H170.931V25.64H171.931ZM171.931 6.8L172.645 7.49954L176.365 3.69954L175.651 3L174.936 2.30045L171.216 6.10045L171.931 6.8Z" fill="white" mask="url(#path-1-outside-1_7_114)"/>
</g>
<defs>
<filter id="filter0_d_7_114" x="0" y="0" width="196.251" height="38" filterUnits="userSpaceOnUse" color-interpolation-filters="sRGB">
<feFlood flood-opacity="0" result="BackgroundImageFix"/>
<feColorMatrix in="SourceAlpha" type="matrix" values="0 0 0 0 0 0 0 0 0 0 0 0 0 0 0 0 0 0 127 0" result="hardAlpha"/>
<feOffset dy="2"/>
<feGaussianBlur stdDeviation="2"/>
<feComposite in2="hardAlpha" operator="out"/>
<feColorMatrix type="matrix" values="0 0 0 0 0 0 0 0 0 0 0 0 0 0 0 0 0 0 0.5 0"/>
<feBlend mode="normal" in2="BackgroundImageFix" result="effect1_dropShadow_7_114"/>
<feBlend mode="normal" in="SourceGraphic" in2="effect1_dropShadow_7_114" result="shape"/>
</filter>
</defs>
</svg>
