<svg width="173" height="38" viewBox="0 0 173 38" fill="none" xmlns="http://www.w3.org/2000/svg">
<g filter="url(#filter0_d_14_273)">
<mask id="path-1-outside-1_14_273" maskUnits="userSpaceOnUse" x="3.12" y="2" width="166" height="30" fill="black">
<rect fill="white" x="3.12" y="2" width="166" height="30"/>
<path d="M8.72 3H20.72L23.96 7.88L20.76 11.24L18.32 7.56H10.56L9.84 8.36V24.72L11 26.48H18.68L21.52 23.64L24.04 27.4L20.6 31H8.6L5 25.64V6.76L8.72 3ZM28.4244 3H43.1044L47.7844 9.84V14.52L44.1044 18.32L47.7844 23.72V31H42.9444V24.56L39.3044 19.24H35.3844L33.2644 17.92V31H28.4244V3ZM33.2644 7.52V14.72H41.3844L42.9444 13.12V10.8L40.6644 7.52H33.2644ZM55.7288 3H71.3288V7.52H57.5688L56.8488 8.32V14.6H66.0888V19.12H56.8488V24.72L58.0088 26.48H71.3288V31H55.6088L52.0088 25.64V6.8L55.7288 3ZM76.7931 3H90.3931L96.1531 11.6V27.2L92.5131 31H76.7931V3ZM81.6331 7.52V26.52H90.5131L91.3131 25.72V12.52L87.9131 7.52H81.6331ZM100.378 3H119.738V7.52H112.458V26.48H119.738V31H100.378V26.48H107.618V7.52H100.378V3ZM123.602 3H144.482V7.52H133.842L136.482 9.88V31H131.642V11L130.482 7.52H123.602V3ZM152.146 3H164.266L167.026 7.16L163.746 10.36L161.826 7.52H154.026L153.306 8.28V12.96L154.506 14.72H164.626L167.826 19.56V27.6L164.546 31H150.586L148.226 27.64L151.386 24.36L152.946 26.48H162.546L162.986 26.12V20.36L162.186 19.24H152.066L148.466 13.88V6.84L152.146 3Z"/>
</mask>
<path d="M8.72 3H20.72L23.96 7.88L20.76 11.24L18.32 7.56H10.56L9.84 8.36V24.72L11 26.48H18.68L21.52 23.64L24.04 27.4L20.6 31H8.6L5 25.64V6.76L8.72 3ZM28.4244 3H43.1044L47.7844 9.84V14.52L44.1044 18.32L47.7844 23.72V31H42.9444V24.56L39.3044 19.24H35.3844L33.2644 17.92V31H28.4244V3ZM33.2644 7.52V14.72H41.3844L42.9444 13.12V10.8L40.6644 7.52H33.2644ZM55.7288 3H71.3288V7.52H57.5688L56.8488 8.32V14.6H66.0888V19.12H56.8488V24.72L58.0088 26.48H71.3288V31H55.6088L52.0088 25.64V6.8L55.7288 3ZM76.7931 3H90.3931L96.1531 11.6V27.2L92.5131 31H76.7931V3ZM81.6331 7.52V26.52H90.5131L91.3131 25.72V12.52L87.9131 7.52H81.6331ZM100.378 3H119.738V7.52H112.458V26.48H119.738V31H100.378V26.48H107.618V7.52H100.378V3ZM123.602 3H144.482V7.52H133.842L136.482 9.88V31H131.642V11L130.482 7.52H123.602V3ZM152.146 3H164.266L167.026 7.16L163.746 10.36L161.826 7.52H154.026L153.306 8.28V12.96L154.506 14.72H164.626L167.826 19.56V27.6L164.546 31H150.586L148.226 27.64L151.386 24.36L152.946 26.48H162.546L162.986 26.12V20.36L162.186 19.24H152.066L148.466 13.88V6.84L152.146 3Z" fill="#213084"/>
<path d="M8.72 3V2H8.30265L8.00912 2.29668L8.72 3ZM20.72 3L21.5531 2.44687L21.2564 2H20.72V3ZM23.96 7.88L24.6841 8.56965L25.2345 7.99174L24.7931 7.32688L23.96 7.88ZM20.76 11.24L19.9266 11.7926L20.6194 12.8376L21.4841 11.9297L20.76 11.24ZM18.32 7.56L19.1534 7.00739L18.8568 6.56H18.32V7.56ZM10.56 7.56V6.56H10.1146L9.81671 6.89103L10.56 7.56ZM9.84 8.36L9.09671 7.69103L8.84 7.97626V8.36H9.84ZM9.84 24.72H8.84V25.0199L9.00504 25.2703L9.84 24.72ZM11 26.48L10.165 27.0303L10.4614 27.48H11V26.48ZM18.68 26.48V27.48H19.0942L19.3871 27.1871L18.68 26.48ZM21.52 23.64L22.3507 23.0833L21.6733 22.0725L20.8129 22.9329L21.52 23.64ZM24.04 27.4L24.763 28.0909L25.3178 27.5103L24.8707 26.8433L24.04 27.4ZM20.6 31V32H21.0276L21.323 31.6909L20.6 31ZM8.6 31L7.76986 31.5576L8.06703 32H8.6V31ZM5 25.64H4V25.9447L4.16986 26.1976L5 25.64ZM5 6.76L4.28912 6.05668L4 6.34892V6.76H5ZM8.72 3V4H20.72V3V2H8.72V3ZM20.72 3L19.8869 3.55312L23.1269 8.43312L23.96 7.88L24.7931 7.32688L21.5531 2.44687L20.72 3ZM23.96 7.88L23.2359 7.19034L20.0359 10.5503L20.76 11.24L21.4841 11.9297L24.6841 8.56965L23.96 7.88ZM20.76 11.24L21.5934 10.6874L19.1534 7.00739L18.32 7.56L17.4866 8.11261L19.9266 11.7926L20.76 11.24ZM18.32 7.56V6.56H10.56V7.56V8.56H18.32V7.56ZM10.56 7.56L9.81671 6.89103L9.09671 7.69103L9.84 8.36L10.5833 9.02896L11.3033 8.22896L10.56 7.56ZM9.84 8.36H8.84V24.72H9.84H10.84V8.36H9.84ZM9.84 24.72L9.00504 25.2703L10.165 27.0303L11 26.48L11.835 25.9297L10.675 24.1697L9.84 24.72ZM11 26.48V27.48H18.68V26.48V25.48H11V26.48ZM18.68 26.48L19.3871 27.1871L22.2271 24.3471L21.52 23.64L20.8129 22.9329L17.9729 25.7729L18.68 26.48ZM21.52 23.64L20.6893 24.1967L23.2093 27.9567L24.04 27.4L24.8707 26.8433L22.3507 23.0833L21.52 23.64ZM24.04 27.4L23.317 26.7091L19.877 30.3091L20.6 31L21.323 31.6909L24.763 28.0909L24.04 27.4ZM20.6 31V30H8.6V31V32H20.6V31ZM8.6 31L9.43014 30.4424L5.83014 25.0824L5 25.64L4.16986 26.1976L7.76986 31.5576L8.6 31ZM5 25.64H6V6.76H5H4V25.64H5ZM5 6.76L5.71088 7.46331L9.43088 3.70331L8.72 3L8.00912 2.29668L4.28912 6.05668L5 6.76ZM28.4244 3V2H27.4244V3H28.4244ZM43.1044 3L43.9297 2.43531L43.6318 2H43.1044V3ZM47.7844 9.84H48.7844V9.53063L48.6097 9.27531L47.7844 9.84ZM47.7844 14.52L48.5027 15.2157L48.7844 14.9248V14.52H47.7844ZM44.1044 18.32L43.386 17.6243L42.8191 18.2097L43.278 18.8831L44.1044 18.32ZM47.7844 23.72H48.7844V23.4117L48.6107 23.1569L47.7844 23.72ZM47.7844 31V32H48.7844V31H47.7844ZM42.9444 31H41.9444V32H42.9444V31ZM42.9444 24.56H43.9444V24.2506L43.7697 23.9953L42.9444 24.56ZM39.3044 19.24L40.1297 18.6753L39.8318 18.24H39.3044V19.24ZM35.3844 19.24L34.8558 20.0889L35.0985 20.24H35.3844V19.24ZM33.2644 17.92L33.7929 17.0711L32.2644 16.1194V17.92H33.2644ZM33.2644 31V32H34.2644V31H33.2644ZM28.4244 31H27.4244V32H28.4244V31ZM33.2644 7.52V6.52H32.2644V7.52H33.2644ZM33.2644 14.72H32.2644V15.72H33.2644V14.72ZM41.3844 14.72V15.72H41.806L42.1004 15.4181L41.3844 14.72ZM42.9444 13.12L43.6604 13.8181L43.9444 13.5268V13.12H42.9444ZM42.9444 10.8H43.9444V10.4866L43.7655 10.2292L42.9444 10.8ZM40.6644 7.52L41.4855 6.94923L41.1871 6.52H40.6644V7.52ZM28.4244 3V4H43.1044V3V2H28.4244V3ZM43.1044 3L42.2791 3.56468L46.9591 10.4047L47.7844 9.84L48.6097 9.27531L43.9297 2.43531L43.1044 3ZM47.7844 9.84H46.7844V14.52H47.7844H48.7844V9.84H47.7844ZM47.7844 14.52L47.066 13.8243L43.386 17.6243L44.1044 18.32L44.8227 19.0157L48.5027 15.2157L47.7844 14.52ZM44.1044 18.32L43.278 18.8831L46.958 24.2831L47.7844 23.72L48.6107 23.1569L44.9307 17.7569L44.1044 18.32ZM47.7844 23.72H46.7844V31H47.7844H48.7844V23.72H47.7844ZM47.7844 31V30H42.9444V31V32H47.7844V31ZM42.9444 31H43.9444V24.56H42.9444H41.9444V31H42.9444ZM42.9444 24.56L43.7697 23.9953L40.1297 18.6753L39.3044 19.24L38.4791 19.8047L42.1191 25.1247L42.9444 24.56ZM39.3044 19.24V18.24H35.3844V19.24V20.24H39.3044V19.24ZM35.3844 19.24L35.9129 18.3911L33.7929 17.0711L33.2644 17.92L32.7358 18.7689L34.8558 20.0889L35.3844 19.24ZM33.2644 17.92H32.2644V31H33.2644H34.2644V17.92H33.2644ZM33.2644 31V30H28.4244V31V32H33.2644V31ZM28.4244 31H29.4244V3H28.4244H27.4244V31H28.4244ZM33.2644 7.52H32.2644V14.72H33.2644H34.2644V7.52H33.2644ZM33.2644 14.72V15.72H41.3844V14.72V13.72H33.2644V14.72ZM41.3844 14.72L42.1004 15.4181L43.6604 13.8181L42.9444 13.12L42.2284 12.4219L40.6684 14.0219L41.3844 14.72ZM42.9444 13.12H43.9444V10.8H42.9444H41.9444V13.12H42.9444ZM42.9444 10.8L43.7655 10.2292L41.4855 6.94923L40.6644 7.52L39.8433 8.09077L42.1233 11.3708L42.9444 10.8ZM40.6644 7.52V6.52H33.2644V7.52V8.52H40.6644V7.52ZM55.7288 3V2H55.3083L55.0142 2.30045L55.7288 3ZM71.3288 3H72.3288V2H71.3288V3ZM71.3288 7.52V8.52H72.3288V7.52H71.3288ZM57.5688 7.52V6.52H57.1234L56.8255 6.85103L57.5688 7.52ZM56.8488 8.32L56.1055 7.65103L55.8488 7.93626V8.32H56.8488ZM56.8488 14.6H55.8488V15.6H56.8488V14.6ZM66.0888 14.6H67.0888V13.6H66.0888V14.6ZM66.0888 19.12V20.12H67.0888V19.12H66.0888ZM56.8488 19.12V18.12H55.8488V19.12H56.8488ZM56.8488 24.72H55.8488V25.0199L56.0138 25.2703L56.8488 24.72ZM58.0088 26.48L57.1738 27.0303L57.4702 27.48H58.0088V26.48ZM71.3288 26.48H72.3288V25.48H71.3288V26.48ZM71.3288 31V32H72.3288V31H71.3288ZM55.6088 31L54.7786 31.5576L55.0758 32H55.6088V31ZM52.0088 25.64H51.0088V25.9447L51.1786 26.1976L52.0088 25.64ZM52.0088 6.8L51.2942 6.10045L51.0088 6.392V6.8H52.0088ZM55.7288 3V4H71.3288V3V2H55.7288V3ZM71.3288 3H70.3288V7.52H71.3288H72.3288V3H71.3288ZM71.3288 7.52V6.52H57.5688V7.52V8.52H71.3288V7.52ZM57.5688 7.52L56.8255 6.85103L56.1055 7.65103L56.8488 8.32L57.592 8.98896L58.312 8.18896L57.5688 7.52ZM56.8488 8.32H55.8488V14.6H56.8488H57.8488V8.32H56.8488ZM56.8488 14.6V15.6H66.0888V14.6V13.6H56.8488V14.6ZM66.0888 14.6H65.0888V19.12H66.0888H67.0888V14.6H66.0888ZM66.0888 19.12V18.12H56.8488V19.12V20.12H66.0888V19.12ZM56.8488 19.12H55.8488V24.72H56.8488H57.8488V19.12H56.8488ZM56.8488 24.72L56.0138 25.2703L57.1738 27.0303L58.0088 26.48L58.8437 25.9297L57.6837 24.1697L56.8488 24.72ZM58.0088 26.48V27.48H71.3288V26.48V25.48H58.0088V26.48ZM71.3288 26.48H70.3288V31H71.3288H72.3288V26.48H71.3288ZM71.3288 31V30H55.6088V31V32H71.3288V31ZM55.6088 31L56.4389 30.4424L52.8389 25.0824L52.0088 25.64L51.1786 26.1976L54.7786 31.5576L55.6088 31ZM52.0088 25.64H53.0088V6.8H52.0088H51.0088V25.64H52.0088ZM52.0088 6.8L52.7233 7.49954L56.4433 3.69954L55.7288 3L55.0142 2.30045L51.2942 6.10045L52.0088 6.8ZM76.7931 3V2H75.7931V3H76.7931ZM90.3931 3L91.224 2.44352L90.9269 2H90.3931V3ZM96.1531 11.6H97.1531V11.2961L96.984 11.0435L96.1531 11.6ZM96.1531 27.2L96.8753 27.8917L97.1531 27.6017V27.2H96.1531ZM92.5131 31V32H92.94L93.2353 31.6917L92.5131 31ZM76.7931 31H75.7931V32H76.7931V31ZM81.6331 7.52V6.52H80.6331V7.52H81.6331ZM81.6331 26.52H80.6331V27.52H81.6331V26.52ZM90.5131 26.52V27.52H90.9273L91.2202 27.2271L90.5131 26.52ZM91.3131 25.72L92.0202 26.4271L92.3131 26.1342V25.72H91.3131ZM91.3131 12.52H92.3131V12.2122L92.1401 11.9577L91.3131 12.52ZM87.9131 7.52L88.7401 6.95769L88.4424 6.52H87.9131V7.52ZM76.7931 3V4H90.3931V3V2H76.7931V3ZM90.3931 3L89.5623 3.55648L95.3223 12.1565L96.1531 11.6L96.984 11.0435L91.224 2.44352L90.3931 3ZM96.1531 11.6H95.1531V27.2H96.1531H97.1531V11.6H96.1531ZM96.1531 27.2L95.431 26.5083L91.791 30.3083L92.5131 31L93.2353 31.6917L96.8753 27.8917L96.1531 27.2ZM92.5131 31V30H76.7931V31V32H92.5131V31ZM76.7931 31H77.7931V3H76.7931H75.7931V31H76.7931ZM81.6331 7.52H80.6331V26.52H81.6331H82.6331V7.52H81.6331ZM81.6331 26.52V27.52H90.5131V26.52V25.52H81.6331V26.52ZM90.5131 26.52L91.2202 27.2271L92.0202 26.4271L91.3131 25.72L90.606 25.0129L89.806 25.8129L90.5131 26.52ZM91.3131 25.72H92.3131V12.52H91.3131H90.3131V25.72H91.3131ZM91.3131 12.52L92.1401 11.9577L88.7401 6.95769L87.9131 7.52L87.0862 8.08231L90.4862 13.0823L91.3131 12.52ZM87.9131 7.52V6.52H81.6331V7.52V8.52H87.9131V7.52ZM100.378 3V2H99.3775V3H100.378ZM119.738 3H120.738V2H119.738V3ZM119.738 7.52V8.52H120.738V7.52H119.738ZM112.458 7.52V6.52H111.458V7.52H112.458ZM112.458 26.48H111.458V27.48H112.458V26.48ZM119.738 26.48H120.738V25.48H119.738V26.48ZM119.738 31V32H120.738V31H119.738ZM100.378 31H99.3775V32H100.378V31ZM100.378 26.48V25.48H99.3775V26.48H100.378ZM107.618 26.48V27.48H108.618V26.48H107.618ZM107.618 7.52H108.618V6.52H107.618V7.52ZM100.378 7.52H99.3775V8.52H100.378V7.52ZM100.378 3V4H119.738V3V2H100.378V3ZM119.738 3H118.738V7.52H119.738H120.738V3H119.738ZM119.738 7.52V6.52H112.458V7.52V8.52H119.738V7.52ZM112.458 7.52H111.458V26.48H112.458H113.458V7.52H112.458ZM112.458 26.48V27.48H119.738V26.48V25.48H112.458V26.48ZM119.738 26.48H118.738V31H119.738H120.738V26.48H119.738ZM119.738 31V30H100.378V31V32H119.738V31ZM100.378 31H101.378V26.48H100.378H99.3775V31H100.378ZM100.378 26.48V27.48H107.618V26.48V25.48H100.378V26.48ZM107.618 26.48H108.618V7.52H107.618H106.618V26.48H107.618ZM107.618 7.52V6.52H100.378V7.52V8.52H107.618V7.52ZM100.378 7.52H101.378V3H100.378H99.3775V7.52H100.378ZM123.602 3V2H122.602V3H123.602ZM144.482 3H145.482V2H144.482V3ZM144.482 7.52V8.52H145.482V7.52H144.482ZM133.842 7.52V6.52H131.223L133.175 8.26554L133.842 7.52ZM136.482 9.88H137.482V9.43262L137.148 9.13446L136.482 9.88ZM136.482 31V32H137.482V31H136.482ZM131.642 31H130.642V32H131.642V31ZM131.642 11H132.642V10.8377L132.591 10.6838L131.642 11ZM130.482 7.52L131.431 7.20377L131.203 6.52H130.482V7.52ZM123.602 7.52H122.602V8.52H123.602V7.52ZM123.602 3V4H144.482V3V2H123.602V3ZM144.482 3H143.482V7.52H144.482H145.482V3H144.482ZM144.482 7.52V6.52H133.842V7.52V8.52H144.482V7.52ZM133.842 7.52L133.175 8.26554L135.815 10.6255L136.482 9.88L137.148 9.13446L134.508 6.77446L133.842 7.52ZM136.482 9.88H135.482V31H136.482H137.482V9.88H136.482ZM136.482 31V30H131.642V31V32H136.482V31ZM131.642 31H132.642V11H131.642H130.642V31H131.642ZM131.642 11L132.591 10.6838L131.431 7.20377L130.482 7.52L129.533 7.83623L130.693 11.3162L131.642 11ZM130.482 7.52V6.52H123.602V7.52V8.52H130.482V7.52ZM123.602 7.52H124.602V3H123.602H122.602V7.52H123.602ZM152.146 3V2H151.72L151.424 2.30809L152.146 3ZM164.266 3L165.1 2.44715L164.803 2H164.266V3ZM167.026 7.16L167.725 7.87578L168.317 7.29736L167.86 6.60715L167.026 7.16ZM163.746 10.36L162.918 10.9201L163.588 11.9114L164.445 11.0758L163.746 10.36ZM161.826 7.52L162.655 6.95992L162.357 6.52H161.826V7.52ZM154.026 7.52V6.52H153.596L153.3 6.83225L154.026 7.52ZM153.306 8.28L152.58 7.59225L152.306 7.88153V8.28H153.306ZM153.306 12.96H152.306V13.2685L152.48 13.5233L153.306 12.96ZM154.506 14.72L153.68 15.2833L153.978 15.72H154.506V14.72ZM164.626 14.72L165.46 14.1685L165.164 13.72H164.626V14.72ZM167.826 19.56H168.826V19.2593L168.66 19.0085L167.826 19.56ZM167.826 27.6L168.546 28.2943L168.826 28.0037V27.6H167.826ZM164.546 31V32H164.971L165.266 31.6943L164.546 31ZM150.586 31L149.768 31.5748L150.067 32H150.586V31ZM148.226 27.64L147.506 26.9462L146.934 27.54L147.408 28.2148L148.226 27.64ZM151.386 24.36L152.192 23.7673L151.489 22.8122L150.666 23.6662L151.386 24.36ZM152.946 26.48L152.141 27.0727L152.441 27.48H152.946V26.48ZM162.546 26.48V27.48H162.903L163.179 27.254L162.546 26.48ZM162.986 26.12L163.619 26.894L163.986 26.5939V26.12H162.986ZM162.986 20.36H163.986V20.0395L163.8 19.7788L162.986 20.36ZM162.186 19.24L163 18.6588L162.701 18.24H162.186V19.24ZM152.066 19.24L151.236 19.7976L151.533 20.24H152.066V19.24ZM148.466 13.88H147.466V14.1847L147.636 14.4376L148.466 13.88ZM148.466 6.84L147.744 6.14809L147.466 6.43819V6.84H148.466ZM152.146 3V4H164.266V3V2H152.146V3ZM164.266 3L163.433 3.55285L166.193 7.71285L167.026 7.16L167.86 6.60715L165.1 2.44715L164.266 3ZM167.026 7.16L166.328 6.44422L163.048 9.64422L163.746 10.36L164.445 11.0758L167.725 7.87578L167.026 7.16ZM163.746 10.36L164.575 9.79992L162.655 6.95992L161.826 7.52L160.998 8.08007L162.918 10.9201L163.746 10.36ZM161.826 7.52V6.52H154.026V7.52V8.52H161.826V7.52ZM154.026 7.52L153.3 6.83225L152.58 7.59225L153.306 8.28L154.032 8.96774L154.752 8.20774L154.026 7.52ZM153.306 8.28H152.306V12.96H153.306H154.306V8.28H153.306ZM153.306 12.96L152.48 13.5233L153.68 15.2833L154.506 14.72L155.332 14.1567L154.132 12.3967L153.306 12.96ZM154.506 14.72V15.72H164.626V14.72V13.72H154.506V14.72ZM164.626 14.72L163.792 15.2715L166.992 20.1115L167.826 19.56L168.66 19.0085L165.46 14.1685L164.626 14.72ZM167.826 19.56H166.826V27.6H167.826H168.826V19.56H167.826ZM167.826 27.6L167.107 26.9057L163.827 30.3057L164.546 31L165.266 31.6943L168.546 28.2943L167.826 27.6ZM164.546 31V30H150.586V31V32H164.546V31ZM150.586 31L151.405 30.4252L149.045 27.0652L148.226 27.64L147.408 28.2148L149.768 31.5748L150.586 31ZM148.226 27.64L148.946 28.3338L152.106 25.0538L151.386 24.36L150.666 23.6662L147.506 26.9462L148.226 27.64ZM151.386 24.36L150.581 24.9527L152.141 27.0727L152.946 26.48L153.752 25.8873L152.192 23.7673L151.386 24.36ZM152.946 26.48V27.48H162.546V26.48V25.48H152.946V26.48ZM162.546 26.48L163.179 27.254L163.619 26.894L162.986 26.12L162.353 25.346L161.913 25.706L162.546 26.48ZM162.986 26.12H163.986V20.36H162.986H161.986V26.12H162.986ZM162.986 20.36L163.8 19.7788L163 18.6588L162.186 19.24L161.373 19.8212L162.173 20.9412L162.986 20.36ZM162.186 19.24V18.24H152.066V19.24V20.24H162.186V19.24ZM152.066 19.24L152.896 18.6824L149.296 13.3224L148.466 13.88L147.636 14.4376L151.236 19.7976L152.066 19.24ZM148.466 13.88H149.466V6.84H148.466H147.466V13.88H148.466ZM148.466 6.84L149.188 7.5319L152.868 3.6919L152.146 3L151.424 2.30809L147.744 6.14809L148.466 6.84Z" fill="white" mask="url(#path-1-outside-1_14_273)"/>
</g>
<defs>
<filter id="filter0_d_14_273" x="0" y="0" width="172.826" height="38" filterUnits="userSpaceOnUse" color-interpolation-filters="sRGB">
<feFlood flood-opacity="0" result="BackgroundImageFix"/>
<feColorMatrix in="SourceAlpha" type="matrix" values="0 0 0 0 0 0 0 0 0 0 0 0 0 0 0 0 0 0 127 0" result="hardAlpha"/>
<feOffset dy="2"/>
<feGaussianBlur stdDeviation="2"/>
<feComposite in2="hardAlpha" operator="out"/>
<feColorMatrix type="matrix" values="0 0 0 0 0 0 0 0 0 0 0 0 0 0 0 0 0 0 0.5 0"/>
<feBlend mode="normal" in2="BackgroundImageFix" result="effect1_dropShadow_14_273"/>
<feBlend mode="normal" in="SourceGraphic" in2="effect1_dropShadow_14_273" result="shape"/>
</filter>
</defs>
</svg>
