<svg width="292" height="148" viewBox="0 0 292 148" fill="none" xmlns="http://www.w3.org/2000/svg">
<g filter="url(#filter0_d_18_299)">
<mask id="path-1-outside-1_18_299" maskUnits="userSpaceOnUse" x="2.04343" y="-1.12763" width="287.334" height="142.745" fill="black">
<rect fill="white" x="2.04343" y="-1.12763" width="287.334" height="142.745"/>
<path d="M9.01534 48.5592L8.59169 4.52926L39.5023 4.23183L39.5959 13.9594L24.2366 14.1072L24.3117 21.9148L38.327 21.78L38.4046 29.8436L24.3893 29.9784L24.4699 38.362L39.8292 38.2143L39.9259 48.2618L9.01534 48.5592ZM52.6128 48.1397L52.2865 14.2213L42.3669 14.3167L42.2696 4.20521L77.02 3.87084L77.1173 13.9824L67.1978 14.0778L67.5241 47.9962L52.6128 48.1397ZM81.4495 47.8623L81.0258 3.8323L111.936 3.53487L112.03 13.2624L96.6707 13.4102L96.7458 21.2178L110.761 21.083L110.839 29.1466L96.8234 29.2815L96.9041 37.6651L112.263 37.5173L112.36 47.5648L81.4495 47.8623ZM151.488 48.2124C148.416 48.242 145.873 47.8184 143.859 46.9417C141.845 46.0224 140.233 44.7579 139.022 43.1481C137.812 41.5383 136.898 39.6484 136.28 37.4782C135.661 35.3081 135.233 32.9654 134.996 30.4503L131.988 30.4792L132.151 47.3744L118.135 47.5093L117.712 3.47931L135.823 3.30504C142.82 3.23771 147.866 4.42655 150.962 6.87154C154.1 9.27346 155.689 12.565 155.729 16.7461C155.753 19.2633 155.092 21.5311 153.746 23.5495C152.4 25.5252 150.219 27.189 147.202 28.5407C147.382 29.4777 147.539 30.2442 147.672 30.8403C147.806 31.4364 148.004 32.0958 148.267 32.8187C148.837 34.3493 149.53 35.4093 150.346 35.9988C151.205 36.5879 152.36 36.8755 153.81 36.8615C154.749 36.8525 155.687 36.7155 156.623 36.4504L157.492 46.9386C156.642 47.2881 155.727 47.5742 154.748 47.797C153.812 48.062 152.725 48.2005 151.488 48.2124ZM131.904 21.7116L134.336 21.6882C137.493 21.6578 139.708 21.2952 140.981 20.6002C142.297 19.8622 142.947 18.6399 142.93 16.9333C142.916 15.4827 142.373 14.4425 141.3 13.8128C140.227 13.1405 138.538 12.8154 136.235 12.8375L131.819 12.88L131.904 21.7116ZM161.383 47.0931L160.96 3.06317L173.759 2.94002L191.263 26.1327L191.038 2.77376L202.814 2.66045L203.237 46.6904L190.438 46.8136L172.943 24.5809L173.159 46.9798L161.383 47.0931ZM206.992 46.6543L218.728 2.50733L239.463 2.30781L252.622 46.2152L236.943 46.3661L235.198 37.9345L223.806 38.0441L222.031 46.5096L206.992 46.6543ZM225.074 30.1595L233.586 30.0776L229.241 10.8546L225.074 30.1595ZM256.066 46.1821L255.643 2.15213L269.466 2.01912L269.792 35.9376L285.408 35.7873L284.865 45.905L256.066 46.1821ZM6.60781 137.587L18.3436 93.4395L39.0786 93.24L52.2377 137.147L36.5584 137.298L34.8132 128.867L23.4217 128.976L21.6471 137.442L6.60781 137.587ZM24.6899 121.092L33.2016 121.01L28.8564 101.787L24.6899 121.092ZM72.3213 136.954L55.682 137.114L55.2584 93.0843L73.2416 92.9113C80.2812 92.8436 85.4531 93.7752 88.7572 95.7062C92.0608 97.5945 93.7291 100.245 93.7619 103.658C93.8046 108.096 91.5087 111.168 86.8743 112.877C92.8584 113.972 95.8788 117.463 95.9355 123.35C95.979 127.873 93.9422 131.263 89.8251 133.522C85.7502 135.737 79.9156 136.881 72.3213 136.954ZM69.6972 110.354L74.753 110.306C76.4596 110.289 77.8425 109.892 78.9017 109.114C79.9609 108.335 80.4844 107.306 80.4721 106.026C80.4437 103.082 78.4243 101.63 74.4139 101.668L69.6141 101.715L69.6972 110.354ZM75.3063 127.901C77.4395 127.881 79.078 127.438 80.2218 126.574C81.3655 125.709 81.93 124.509 81.9152 122.973C81.8992 121.309 81.3109 120.035 80.1503 119.15C78.9894 118.223 77.3422 117.769 75.209 117.79L69.7053 117.842L69.8026 127.954L75.3063 127.901ZM108.687 136.604L108.569 124.381L95.592 92.6963L109.351 92.5639L115.746 111.959L121.639 92.4456L135.334 92.3139L122.329 124.248L122.446 136.472L108.687 136.604ZM151.69 137.215C149.002 137.24 146.268 136.925 143.488 136.269C140.709 135.656 138.354 134.804 136.424 133.713L138.627 123.26C141.114 124.558 143.427 125.411 145.564 125.817C147.744 126.18 149.751 126.353 151.585 126.335C153.292 126.319 154.569 126.029 155.417 125.466C156.308 124.903 156.748 124.152 156.739 123.213C156.731 122.36 156.234 121.703 155.248 121.244C154.262 120.741 152.978 120.284 151.395 119.873C149.855 119.461 148.208 118.986 146.453 118.448C144.698 117.868 143.027 117.116 141.439 116.192C139.894 115.226 138.623 113.958 137.626 112.389C136.63 110.777 136.119 108.755 136.096 106.323C136.066 103.251 136.788 100.599 138.26 98.366C139.731 96.0904 141.848 94.3419 144.609 93.1207C147.371 91.8567 150.629 91.2067 154.383 91.1705C156.9 91.1463 159.357 91.464 161.753 92.1237C164.191 92.7402 166.14 93.5962 167.602 94.6915L165.516 104.12C163.332 103.245 161.363 102.624 159.61 102.257C157.899 101.847 156.276 101.649 154.74 101.664C152.948 101.681 151.585 101.95 150.652 102.471C149.718 102.992 149.255 103.679 149.263 104.532C149.271 105.343 149.768 106 150.754 106.502C151.741 107.005 153.004 107.483 154.544 107.938C156.085 108.392 157.733 108.91 159.488 109.49C161.243 110.071 162.893 110.844 164.438 111.811C165.983 112.777 167.254 114.045 168.251 115.614C169.247 117.183 169.757 119.163 169.78 121.552C169.828 126.501 168.243 130.335 165.027 133.054C161.853 135.773 157.407 137.16 151.69 137.215ZM187.438 136.871C184.75 136.896 182.017 136.581 179.237 135.925C176.457 135.312 174.102 134.46 172.172 133.369L174.375 122.916C176.863 124.214 179.175 125.067 181.312 125.473C183.492 125.836 185.499 126.009 187.334 125.991C189.04 125.975 190.317 125.685 191.165 125.122C192.056 124.559 192.497 123.808 192.488 122.869C192.48 122.016 191.983 121.359 190.997 120.9C190.011 120.397 188.726 119.94 187.143 119.529C185.603 119.117 183.956 118.642 182.201 118.104C180.446 117.524 178.775 116.772 177.188 115.848C175.642 114.882 174.371 113.614 173.375 112.045C172.378 110.433 171.868 108.411 171.844 105.979C171.815 102.907 172.536 100.255 174.008 98.022C175.479 95.7464 177.596 93.998 180.358 92.7767C183.119 91.5127 186.377 90.8627 190.131 90.8266C192.649 90.8023 195.105 91.12 197.501 91.7797C199.939 92.3963 201.889 93.2522 203.35 94.3475L201.265 103.776C199.08 102.901 197.111 102.28 195.358 101.913C193.648 101.503 192.024 101.305 190.488 101.32C188.696 101.337 187.334 101.606 186.4 102.127C185.466 102.648 185.004 103.335 185.012 104.188C185.02 104.999 185.517 105.656 186.503 106.158C187.489 106.661 188.752 107.139 190.293 107.594C191.833 108.048 193.481 108.566 195.236 109.146C196.991 109.727 198.641 110.5 200.186 111.467C201.732 112.433 203.003 113.701 203.999 115.27C204.996 116.839 205.505 118.819 205.528 121.208C205.576 126.157 203.992 129.991 200.775 132.71C197.601 135.429 193.155 136.816 187.438 136.871Z"/>
</mask>
<path d="M9.01534 48.5592L8.59169 4.52926L39.5023 4.23183L39.5959 13.9594L24.2366 14.1072L24.3117 21.9148L38.327 21.78L38.4046 29.8436L24.3893 29.9784L24.4699 38.362L39.8292 38.2143L39.9259 48.2618L9.01534 48.5592ZM52.6128 48.1397L52.2865 14.2213L42.3669 14.3167L42.2696 4.20521L77.02 3.87084L77.1173 13.9824L67.1978 14.0778L67.5241 47.9962L52.6128 48.1397ZM81.4495 47.8623L81.0258 3.8323L111.936 3.53487L112.03 13.2624L96.6707 13.4102L96.7458 21.2178L110.761 21.083L110.839 29.1466L96.8234 29.2815L96.9041 37.6651L112.263 37.5173L112.36 47.5648L81.4495 47.8623ZM151.488 48.2124C148.416 48.242 145.873 47.8184 143.859 46.9417C141.845 46.0224 140.233 44.7579 139.022 43.1481C137.812 41.5383 136.898 39.6484 136.28 37.4782C135.661 35.3081 135.233 32.9654 134.996 30.4503L131.988 30.4792L132.151 47.3744L118.135 47.5093L117.712 3.47931L135.823 3.30504C142.82 3.23771 147.866 4.42655 150.962 6.87154C154.1 9.27346 155.689 12.565 155.729 16.7461C155.753 19.2633 155.092 21.5311 153.746 23.5495C152.4 25.5252 150.219 27.189 147.202 28.5407C147.382 29.4777 147.539 30.2442 147.672 30.8403C147.806 31.4364 148.004 32.0958 148.267 32.8187C148.837 34.3493 149.53 35.4093 150.346 35.9988C151.205 36.5879 152.36 36.8755 153.81 36.8615C154.749 36.8525 155.687 36.7155 156.623 36.4504L157.492 46.9386C156.642 47.2881 155.727 47.5742 154.748 47.797C153.812 48.062 152.725 48.2005 151.488 48.2124ZM131.904 21.7116L134.336 21.6882C137.493 21.6578 139.708 21.2952 140.981 20.6002C142.297 19.8622 142.947 18.6399 142.93 16.9333C142.916 15.4827 142.373 14.4425 141.3 13.8128C140.227 13.1405 138.538 12.8154 136.235 12.8375L131.819 12.88L131.904 21.7116ZM161.383 47.0931L160.96 3.06317L173.759 2.94002L191.263 26.1327L191.038 2.77376L202.814 2.66045L203.237 46.6904L190.438 46.8136L172.943 24.5809L173.159 46.9798L161.383 47.0931ZM206.992 46.6543L218.728 2.50733L239.463 2.30781L252.622 46.2152L236.943 46.3661L235.198 37.9345L223.806 38.0441L222.031 46.5096L206.992 46.6543ZM225.074 30.1595L233.586 30.0776L229.241 10.8546L225.074 30.1595ZM256.066 46.1821L255.643 2.15213L269.466 2.01912L269.792 35.9376L285.408 35.7873L284.865 45.905L256.066 46.1821ZM6.60781 137.587L18.3436 93.4395L39.0786 93.24L52.2377 137.147L36.5584 137.298L34.8132 128.867L23.4217 128.976L21.6471 137.442L6.60781 137.587ZM24.6899 121.092L33.2016 121.01L28.8564 101.787L24.6899 121.092ZM72.3213 136.954L55.682 137.114L55.2584 93.0843L73.2416 92.9113C80.2812 92.8436 85.4531 93.7752 88.7572 95.7062C92.0608 97.5945 93.7291 100.245 93.7619 103.658C93.8046 108.096 91.5087 111.168 86.8743 112.877C92.8584 113.972 95.8788 117.463 95.9355 123.35C95.979 127.873 93.9422 131.263 89.8251 133.522C85.7502 135.737 79.9156 136.881 72.3213 136.954ZM69.6972 110.354L74.753 110.306C76.4596 110.289 77.8425 109.892 78.9017 109.114C79.9609 108.335 80.4844 107.306 80.4721 106.026C80.4437 103.082 78.4243 101.63 74.4139 101.668L69.6141 101.715L69.6972 110.354ZM75.3063 127.901C77.4395 127.881 79.078 127.438 80.2218 126.574C81.3655 125.709 81.93 124.509 81.9152 122.973C81.8992 121.309 81.3109 120.035 80.1503 119.15C78.9894 118.223 77.3422 117.769 75.209 117.79L69.7053 117.842L69.8026 127.954L75.3063 127.901ZM108.687 136.604L108.569 124.381L95.592 92.6963L109.351 92.5639L115.746 111.959L121.639 92.4456L135.334 92.3139L122.329 124.248L122.446 136.472L108.687 136.604ZM151.69 137.215C149.002 137.24 146.268 136.925 143.488 136.269C140.709 135.656 138.354 134.804 136.424 133.713L138.627 123.26C141.114 124.558 143.427 125.411 145.564 125.817C147.744 126.18 149.751 126.353 151.585 126.335C153.292 126.319 154.569 126.029 155.417 125.466C156.308 124.903 156.748 124.152 156.739 123.213C156.731 122.36 156.234 121.703 155.248 121.244C154.262 120.741 152.978 120.284 151.395 119.873C149.855 119.461 148.208 118.986 146.453 118.448C144.698 117.868 143.027 117.116 141.439 116.192C139.894 115.226 138.623 113.958 137.626 112.389C136.63 110.777 136.119 108.755 136.096 106.323C136.066 103.251 136.788 100.599 138.26 98.366C139.731 96.0904 141.848 94.3419 144.609 93.1207C147.371 91.8567 150.629 91.2067 154.383 91.1705C156.9 91.1463 159.357 91.464 161.753 92.1237C164.191 92.7402 166.14 93.5962 167.602 94.6915L165.516 104.12C163.332 103.245 161.363 102.624 159.61 102.257C157.899 101.847 156.276 101.649 154.74 101.664C152.948 101.681 151.585 101.95 150.652 102.471C149.718 102.992 149.255 103.679 149.263 104.532C149.271 105.343 149.768 106 150.754 106.502C151.741 107.005 153.004 107.483 154.544 107.938C156.085 108.392 157.733 108.91 159.488 109.49C161.243 110.071 162.893 110.844 164.438 111.811C165.983 112.777 167.254 114.045 168.251 115.614C169.247 117.183 169.757 119.163 169.78 121.552C169.828 126.501 168.243 130.335 165.027 133.054C161.853 135.773 157.407 137.16 151.69 137.215ZM187.438 136.871C184.75 136.896 182.017 136.581 179.237 135.925C176.457 135.312 174.102 134.46 172.172 133.369L174.375 122.916C176.863 124.214 179.175 125.067 181.312 125.473C183.492 125.836 185.499 126.009 187.334 125.991C189.04 125.975 190.317 125.685 191.165 125.122C192.056 124.559 192.497 123.808 192.488 122.869C192.48 122.016 191.983 121.359 190.997 120.9C190.011 120.397 188.726 119.94 187.143 119.529C185.603 119.117 183.956 118.642 182.201 118.104C180.446 117.524 178.775 116.772 177.188 115.848C175.642 114.882 174.371 113.614 173.375 112.045C172.378 110.433 171.868 108.411 171.844 105.979C171.815 102.907 172.536 100.255 174.008 98.022C175.479 95.7464 177.596 93.998 180.358 92.7767C183.119 91.5127 186.377 90.8627 190.131 90.8266C192.649 90.8023 195.105 91.12 197.501 91.7797C199.939 92.3963 201.889 93.2522 203.35 94.3475L201.265 103.776C199.08 102.901 197.111 102.28 195.358 101.913C193.648 101.503 192.024 101.305 190.488 101.32C188.696 101.337 187.334 101.606 186.4 102.127C185.466 102.648 185.004 103.335 185.012 104.188C185.02 104.999 185.517 105.656 186.503 106.158C187.489 106.661 188.752 107.139 190.293 107.594C191.833 108.048 193.481 108.566 195.236 109.146C196.991 109.727 198.641 110.5 200.186 111.467C201.732 112.433 203.003 113.701 203.999 115.27C204.996 116.839 205.505 118.819 205.528 121.208C205.576 126.157 203.992 129.991 200.775 132.71C197.601 135.429 193.155 136.816 187.438 136.871Z" fill="url(#paint0_linear_18_299)"/>
<path d="M9.01534 48.5592L7.01544 48.5785L7.03468 50.5784L9.03459 50.5591L9.01534 48.5592ZM8.59169 4.52926L8.57245 2.52935L6.57254 2.54859L6.59178 4.5485L8.59169 4.52926ZM39.5023 4.23183L41.5022 4.21259L41.4829 2.21268L39.483 2.23193L39.5023 4.23183ZM39.5959 13.9594L39.6151 15.9593L41.615 15.94L41.5958 13.9401L39.5959 13.9594ZM24.2366 14.1072L24.2173 12.1073L22.2174 12.1265L22.2367 14.1264L24.2366 14.1072ZM24.3117 21.9148L22.3118 21.9341L22.331 23.934L24.3309 23.9147L24.3117 21.9148ZM38.327 21.78L40.327 21.7607L40.3077 19.7608L38.3078 19.78L38.327 21.78ZM38.4046 29.8436L38.4239 31.8435L40.4238 31.8242L40.4045 29.8243L38.4046 29.8436ZM24.3893 29.9784L24.37 27.9785L22.3701 27.9978L22.3894 29.9977L24.3893 29.9784ZM24.4699 38.362L22.47 38.3813L22.4893 40.3812L24.4892 40.362L24.4699 38.362ZM39.8292 38.2143L41.8291 38.195L41.8099 36.1951L39.81 36.2144L39.8292 38.2143ZM39.9259 48.2618L39.9452 50.2617L41.9451 50.2425L41.9258 48.2426L39.9259 48.2618ZM9.01534 48.5592L11.0153 48.54L10.5916 4.51001L8.59169 4.52926L6.59178 4.5485L7.01544 48.5785L9.01534 48.5592ZM8.59169 4.52926L8.61093 6.52916L39.5215 6.23174L39.5023 4.23183L39.483 2.23193L8.57245 2.52935L8.59169 4.52926ZM39.5023 4.23183L37.5024 4.25108L37.596 13.9786L39.5959 13.9594L41.5958 13.9401L41.5022 4.21259L39.5023 4.23183ZM39.5959 13.9594L39.5766 11.9595L24.2173 12.1073L24.2366 14.1072L24.2558 16.1071L39.6151 15.9593L39.5959 13.9594ZM24.2366 14.1072L22.2367 14.1264L22.3118 21.9341L24.3117 21.9148L26.3116 21.8956L26.2365 14.0879L24.2366 14.1072ZM24.3117 21.9148L24.3309 23.9147L38.3463 23.7799L38.327 21.78L38.3078 19.78L24.2924 19.9149L24.3117 21.9148ZM38.327 21.78L36.3271 21.7992L36.4047 29.8628L38.4046 29.8436L40.4045 29.8243L40.327 21.7607L38.327 21.78ZM38.4046 29.8436L38.3854 27.8437L24.37 27.9785L24.3893 29.9784L24.4085 31.9783L38.4239 31.8435L38.4046 29.8436ZM24.3893 29.9784L22.3894 29.9977L22.47 38.3813L24.4699 38.362L26.4699 38.3428L26.3892 29.9592L24.3893 29.9784ZM24.4699 38.362L24.4892 40.362L39.8485 40.2142L39.8292 38.2143L39.81 36.2144L24.4507 36.3621L24.4699 38.362ZM39.8292 38.2143L37.8293 38.2335L37.926 48.281L39.9259 48.2618L41.9258 48.2426L41.8291 38.195L39.8292 38.2143ZM39.9259 48.2618L39.9067 46.2619L8.9961 46.5593L9.01534 48.5592L9.03459 50.5591L39.9452 50.2617L39.9259 48.2618ZM52.6128 48.1397L50.6129 48.159L50.6322 50.1589L52.6321 50.1396L52.6128 48.1397ZM52.2865 14.2213L54.2864 14.202L54.2671 12.2021L52.2672 12.2214L52.2865 14.2213ZM42.3669 14.3167L40.367 14.336L40.3863 16.3359L42.3862 16.3166L42.3669 14.3167ZM42.2696 4.20521L42.2504 2.2053L40.2505 2.22454L40.2697 4.22445L42.2696 4.20521ZM77.02 3.87084L79.0199 3.8516L79.0007 1.85169L77.0008 1.87093L77.02 3.87084ZM77.1173 13.9824L77.1366 15.9823L79.1365 15.963L79.1172 13.9631L77.1173 13.9824ZM67.1978 14.0778L67.1785 12.0779L65.1786 12.0972L65.1979 14.0971L67.1978 14.0778ZM67.5241 47.9962L67.5434 49.9962L69.5433 49.9769L69.524 47.977L67.5241 47.9962ZM52.6128 48.1397L54.6127 48.1205L54.2864 14.202L52.2865 14.2213L50.2866 14.2405L50.6129 48.159L52.6128 48.1397ZM52.2865 14.2213L52.2672 12.2214L42.3477 12.3168L42.3669 14.3167L42.3862 16.3166L52.3057 16.2212L52.2865 14.2213ZM42.3669 14.3167L44.3668 14.2975L44.2695 4.18596L42.2696 4.20521L40.2697 4.22445L40.367 14.336L42.3669 14.3167ZM42.2696 4.20521L42.2889 6.20511L77.0393 5.87075L77.02 3.87084L77.0008 1.87093L42.2504 2.2053L42.2696 4.20521ZM77.02 3.87084L75.0201 3.89008L75.1174 14.0016L77.1173 13.9824L79.1172 13.9631L79.0199 3.8516L77.02 3.87084ZM77.1173 13.9824L77.0981 11.9825L67.1785 12.0779L67.1978 14.0778L67.217 16.0777L77.1366 15.9823L77.1173 13.9824ZM67.1978 14.0778L65.1979 14.0971L65.5242 48.0155L67.5241 47.9962L69.524 47.977L69.1977 14.0586L67.1978 14.0778ZM67.5241 47.9962L67.5049 45.9963L52.5936 46.1398L52.6128 48.1397L52.6321 50.1396L67.5434 49.9962L67.5241 47.9962ZM81.4495 47.8623L79.4496 47.8815L79.4688 49.8814L81.4687 49.8622L81.4495 47.8623ZM81.0258 3.8323L81.0066 1.83239L79.0067 1.85163L79.0259 3.85154L81.0258 3.8323ZM111.936 3.53487L113.936 3.51563L113.917 1.51572L111.917 1.53497L111.936 3.53487ZM112.03 13.2624L112.049 15.2623L114.049 15.2431L114.03 13.2432L112.03 13.2624ZM96.6707 13.4102L96.6515 11.4103L94.6516 11.4295L94.6708 13.4295L96.6707 13.4102ZM96.7458 21.2178L94.7459 21.2371L94.7652 23.237L96.7651 23.2178L96.7458 21.2178ZM110.761 21.083L112.761 21.0637L112.742 19.0638L110.742 19.0831L110.761 21.083ZM110.839 29.1466L110.858 31.1465L112.858 31.1273L112.839 29.1274L110.839 29.1466ZM96.8234 29.2815L96.8042 27.2816L94.8043 27.3008L94.8235 29.3007L96.8234 29.2815ZM96.9041 37.6651L94.9042 37.6843L94.9234 39.6842L96.9233 39.665L96.9041 37.6651ZM112.263 37.5173L114.263 37.4981L114.244 35.4982L112.244 35.5174L112.263 37.5173ZM112.36 47.5648L112.379 49.5647L114.379 49.5455L114.36 47.5456L112.36 47.5648ZM81.4495 47.8623L83.4494 47.843L83.0257 3.81305L81.0258 3.8323L79.0259 3.85154L79.4496 47.8815L81.4495 47.8623ZM81.0258 3.8323L81.0451 5.8322L111.956 5.53478L111.936 3.53487L111.917 1.53497L81.0066 1.83239L81.0258 3.8323ZM111.936 3.53487L109.937 3.55412L110.03 13.2817L112.03 13.2624L114.03 13.2432L113.936 3.51563L111.936 3.53487ZM112.03 13.2624L112.011 11.2625L96.6515 11.4103L96.6707 13.4102L96.69 15.4101L112.049 15.2623L112.03 13.2624ZM96.6707 13.4102L94.6708 13.4295L94.7459 21.2371L96.7458 21.2178L98.7457 21.1986L98.6706 13.391L96.6707 13.4102ZM96.7458 21.2178L96.7651 23.2178L110.78 23.0829L110.761 21.083L110.742 19.0831L96.7266 19.2179L96.7458 21.2178ZM110.761 21.083L108.761 21.1022L108.839 29.1659L110.839 29.1466L112.839 29.1274L112.761 21.0637L110.761 21.083ZM110.839 29.1466L110.82 27.1467L96.8042 27.2816L96.8234 29.2815L96.8427 31.2814L110.858 31.1465L110.839 29.1466ZM96.8234 29.2815L94.8235 29.3007L94.9042 37.6843L96.9041 37.6651L98.904 37.6458L98.8233 29.2622L96.8234 29.2815ZM96.9041 37.6651L96.9233 39.665L112.283 39.5172L112.263 37.5173L112.244 35.5174L96.8848 35.6652L96.9041 37.6651ZM112.263 37.5173L110.263 37.5365L110.36 47.5841L112.36 47.5648L114.36 47.5456L114.263 37.4981L112.263 37.5173ZM112.36 47.5648L112.341 45.5649L81.4302 45.8624L81.4495 47.8623L81.4687 49.8622L112.379 49.5647L112.36 47.5648ZM143.859 46.9417L143.029 48.7612L143.045 48.7685L143.061 48.7755L143.859 46.9417ZM139.022 43.1481L140.621 41.9463V41.9463L139.022 43.1481ZM136.28 37.4782L138.203 36.9303V36.9303L136.28 37.4782ZM134.996 30.4503L136.987 30.2622L136.814 28.4327L134.977 28.4503L134.996 30.4503ZM131.988 30.4792L131.969 28.4793L129.969 28.4985L129.988 30.4984L131.988 30.4792ZM132.151 47.3744L132.17 49.3743L134.17 49.3551L134.151 47.3552L132.151 47.3744ZM118.135 47.5093L116.135 47.5285L116.155 49.5284L118.155 49.5092L118.135 47.5093ZM117.712 3.47931L117.692 1.4794L115.692 1.49864L115.712 3.49855L117.712 3.47931ZM150.962 6.87154L149.722 8.44105L149.734 8.45046L149.746 8.45969L150.962 6.87154ZM153.746 23.5495L155.399 24.6758L155.405 24.6675L155.41 24.6591L153.746 23.5495ZM147.202 28.5407L146.384 26.7156L144.94 27.3629L145.238 28.9174L147.202 28.5407ZM147.672 30.8403L149.624 30.4025L149.624 30.4024L147.672 30.8403ZM148.267 32.8187L146.388 33.5024L146.39 33.5092L146.393 33.516L148.267 32.8187ZM150.346 35.9988L149.175 37.6203L149.195 37.6345L149.215 37.6482L150.346 35.9988ZM156.623 36.4504L158.616 36.2853L158.415 33.8644L156.078 34.5261L156.623 36.4504ZM157.492 46.9386L158.252 48.7883L159.606 48.2318L159.485 46.7734L157.492 46.9386ZM154.748 47.797L154.304 45.8468L154.253 45.8584L154.203 45.8726L154.748 47.797ZM131.904 21.7116L129.904 21.7308L129.923 23.7307L131.923 23.7115L131.904 21.7116ZM140.981 20.6002L141.94 22.3558L141.95 22.3502L141.96 22.3445L140.981 20.6002ZM141.3 13.8128L140.238 15.5077L140.263 15.523L140.288 15.5376L141.3 13.8128ZM131.819 12.88L131.799 10.8801L129.8 10.8993L129.819 12.8993L131.819 12.88ZM151.488 48.2124L151.468 46.2125C148.573 46.2404 146.332 45.8371 144.657 45.108L143.859 46.9417L143.061 48.7755C145.414 49.7998 148.258 50.2436 151.507 50.2123L151.488 48.2124ZM143.859 46.9417L144.689 45.1223C142.948 44.3274 141.611 43.2634 140.621 41.9463L139.022 43.1481L137.424 44.3499C138.854 46.2523 140.742 47.7174 143.029 48.7612L143.859 46.9417ZM139.022 43.1481L140.621 41.9463C139.575 40.5549 138.762 38.8927 138.203 36.9303L136.28 37.4782L134.356 38.0262C135.034 40.4041 136.049 42.5218 137.424 44.3499L139.022 43.1481ZM136.28 37.4782L138.203 36.9303C137.622 34.8907 137.214 32.6698 136.987 30.2622L134.996 30.4503L133.005 30.6383C133.253 33.261 133.701 35.7254 134.356 38.0262L136.28 37.4782ZM134.996 30.4503L134.977 28.4503L131.969 28.4793L131.988 30.4792L132.007 32.4791L135.015 32.4502L134.996 30.4503ZM131.988 30.4792L129.988 30.4984L130.151 47.3937L132.151 47.3744L134.151 47.3552L133.988 30.46L131.988 30.4792ZM132.151 47.3744L132.131 45.3745L118.116 45.5094L118.135 47.5093L118.155 49.5092L132.17 49.3743L132.151 47.3744ZM118.135 47.5093L120.135 47.49L119.712 3.46006L117.712 3.47931L115.712 3.49855L116.135 47.5285L118.135 47.5093ZM117.712 3.47931L117.731 5.47921L135.842 5.30495L135.823 3.30504L135.804 1.30513L117.692 1.4794L117.712 3.47931ZM135.823 3.30504L135.842 5.30495C142.698 5.23898 147.172 6.4267 149.722 8.44105L150.962 6.87154L152.201 5.30204C148.561 2.4264 142.942 1.23645 135.804 1.30513L135.823 3.30504ZM150.962 6.87154L149.746 8.45969C152.363 10.4628 153.694 13.1586 153.729 16.7654L155.729 16.7461L157.729 16.7269C157.683 11.9714 155.836 8.08414 152.177 5.2834L150.962 6.87154ZM155.729 16.7461L153.729 16.7654C153.75 18.8971 153.197 20.7687 152.082 22.4399L153.746 23.5495L155.41 24.6591C156.988 22.2936 157.757 19.6296 157.729 16.7269L155.729 16.7461ZM153.746 23.5495L152.094 22.4232C151.021 23.9977 149.187 25.4596 146.384 26.7156L147.202 28.5407L148.02 30.3658C151.25 28.9184 153.779 27.0527 155.399 24.6758L153.746 23.5495ZM147.202 28.5407L145.238 28.9174C145.42 29.8649 145.581 30.6538 145.721 31.2782L147.672 30.8403L149.624 30.4024C149.496 29.8346 149.344 29.0905 149.166 28.164L147.202 28.5407ZM147.672 30.8403L145.721 31.2782C145.877 31.9757 146.103 32.7188 146.388 33.5024L148.267 32.8187L150.147 32.1349C149.906 31.4729 149.735 30.897 149.624 30.4025L147.672 30.8403ZM148.267 32.8187L146.393 33.516C147.022 35.2078 147.895 36.6959 149.175 37.6203L150.346 35.9988L151.517 34.3774C151.164 34.1227 150.651 33.4907 150.142 32.1213L148.267 32.8187ZM150.346 35.9988L149.215 37.6482C150.522 38.5444 152.125 38.8778 153.83 38.8614L153.81 36.8615L153.791 34.8616C152.595 34.8731 151.888 34.6314 151.477 34.3494L150.346 35.9988ZM153.81 36.8615L153.83 38.8614C154.953 38.8506 156.067 38.6865 157.167 38.3748L156.623 36.4504L156.078 34.5261C155.307 34.7444 154.546 34.8544 153.791 34.8616L153.81 36.8615ZM156.623 36.4504L154.63 36.6156L155.498 47.1037L157.492 46.9386L159.485 46.7734L158.616 36.2853L156.623 36.4504ZM157.492 46.9386L156.731 45.0889C155.993 45.3925 155.185 45.6465 154.304 45.8468L154.748 47.797L155.191 49.7472C156.269 49.502 157.291 49.1837 158.252 48.7883L157.492 46.9386ZM154.748 47.797L154.203 45.8726C153.477 46.0782 152.574 46.2019 151.468 46.2125L151.488 48.2124L151.507 50.2123C152.876 50.1991 154.146 50.0459 155.293 49.7214L154.748 47.797ZM131.904 21.7116L131.923 23.7115L134.355 23.6881L134.336 21.6882L134.316 19.6883L131.884 19.7117L131.904 21.7116ZM134.336 21.6882L134.355 23.6881C137.54 23.6575 140.197 23.307 141.94 22.3558L140.981 20.6002L140.023 18.8446C139.219 19.2833 137.446 19.6582 134.316 19.6883L134.336 21.6882ZM140.981 20.6002L141.96 22.3445C144.008 21.1956 144.952 19.2344 144.93 16.914L142.93 16.9333L140.93 16.9525C140.941 18.0454 140.586 18.5288 140.003 18.8559L140.981 20.6002ZM142.93 16.9333L144.93 16.914C144.911 14.899 144.102 13.1381 142.313 12.088L141.3 13.8128L140.288 15.5376C140.644 15.747 140.922 16.0663 140.93 16.9525L142.93 16.9333ZM141.3 13.8128L142.362 12.118C140.794 11.1359 138.632 10.8144 136.215 10.8376L136.235 12.8375L136.254 14.8374C138.445 14.8163 139.659 15.145 140.238 15.5077L141.3 13.8128ZM136.235 12.8375L136.215 10.8376L131.799 10.8801L131.819 12.88L131.838 14.8799L136.254 14.8374L136.235 12.8375ZM131.819 12.88L129.819 12.8993L129.904 21.7308L131.904 21.7116L133.904 21.6924L133.819 12.8608L131.819 12.88ZM161.383 47.0931L159.383 47.1124L159.403 49.1123L161.403 49.093L161.383 47.0931ZM160.96 3.06317L160.94 1.06327L158.94 1.08251L158.96 3.08242L160.96 3.06317ZM173.759 2.94002L175.355 1.7352L174.748 0.930409L173.74 0.94011L173.759 2.94002ZM191.263 26.1327L189.667 27.3375L193.321 32.1799L193.263 26.1134L191.263 26.1327ZM191.038 2.77376L191.019 0.77385L189.019 0.793093L189.038 2.793L191.038 2.77376ZM202.814 2.66045L204.814 2.64121L204.794 0.641303L202.794 0.660546L202.814 2.66045ZM203.237 46.6904L203.257 48.6903L205.257 48.6711L205.237 46.6712L203.237 46.6904ZM190.438 46.8136L188.866 48.0504L189.474 48.8229L190.457 48.8135L190.438 46.8136ZM172.943 24.5809L174.515 23.3441L170.887 18.7334L170.943 24.6001L172.943 24.5809ZM173.159 46.9798L173.178 48.9797L175.178 48.9605L175.159 46.9606L173.159 46.9798ZM161.383 47.0931L163.383 47.0739L162.96 3.04393L160.96 3.06317L158.96 3.08242L159.383 47.1124L161.383 47.0931ZM160.96 3.06317L160.979 5.06308L173.778 4.93992L173.759 2.94002L173.74 0.94011L160.94 1.06327L160.96 3.06317ZM173.759 2.94002L172.163 4.14483L189.667 27.3375L191.263 26.1327L192.859 24.9279L175.355 1.7352L173.759 2.94002ZM191.263 26.1327L193.263 26.1134L193.038 2.75451L191.038 2.77376L189.038 2.793L189.263 26.1519L191.263 26.1327ZM191.038 2.77376L191.057 4.77366L202.833 4.66036L202.814 2.66045L202.794 0.660546L191.019 0.77385L191.038 2.77376ZM202.814 2.66045L200.814 2.6797L201.237 46.7097L203.237 46.6904L205.237 46.6712L204.814 2.64121L202.814 2.66045ZM203.237 46.6904L203.218 44.6905L190.419 44.8137L190.438 46.8136L190.457 48.8135L203.257 48.6903L203.237 46.6904ZM190.438 46.8136L192.01 45.5768L174.515 23.3441L172.943 24.5809L171.371 25.8177L188.866 48.0504L190.438 46.8136ZM172.943 24.5809L170.943 24.6001L171.159 46.9991L173.159 46.9798L175.159 46.9606L174.943 24.5616L172.943 24.5809ZM173.159 46.9798L173.14 44.9799L161.364 45.0932L161.383 47.0931L161.403 49.093L173.178 48.9797L173.159 46.9798ZM206.992 46.6543L205.059 46.1405L204.384 48.6795L207.011 48.6542L206.992 46.6543ZM218.728 2.50733L218.709 0.507419L217.186 0.522069L216.795 1.9935L218.728 2.50733ZM239.463 2.30781L241.379 1.73365L240.947 0.293441L239.444 0.307907L239.463 2.30781ZM252.622 46.2152L252.641 48.2151L255.302 48.1895L254.538 45.6411L252.622 46.2152ZM236.943 46.3661L234.984 46.7715L235.318 48.3818L236.962 48.366L236.943 46.3661ZM235.198 37.9345L237.156 37.5291L236.823 35.9188L235.178 35.9346L235.198 37.9345ZM223.806 38.0441L223.787 36.0442L222.179 36.0597L221.849 37.6338L223.806 38.0441ZM222.031 46.5096L222.051 48.5095L223.659 48.494L223.989 46.9199L222.031 46.5096ZM225.074 30.1595L223.119 29.7376L222.591 32.1835L225.094 32.1595L225.074 30.1595ZM233.586 30.0776L233.605 32.0776L236.083 32.0537L235.537 29.6367L233.586 30.0776ZM229.241 10.8546L231.192 10.4136L227.286 10.4326L229.241 10.8546ZM206.992 46.6543L208.925 47.1681L220.661 3.02115L218.728 2.50733L216.795 1.9935L205.059 46.1405L206.992 46.6543ZM218.728 2.50733L218.747 4.50723L239.482 4.30772L239.463 2.30781L239.444 0.307907L218.709 0.507419L218.728 2.50733ZM239.463 2.30781L237.547 2.88198L250.706 46.7894L252.622 46.2152L254.538 45.6411L241.379 1.73365L239.463 2.30781ZM252.622 46.2152L252.603 44.2153L236.924 44.3662L236.943 46.3661L236.962 48.366L252.641 48.2151L252.622 46.2152ZM236.943 46.3661L238.901 45.9607L237.156 37.5291L235.198 37.9345L233.239 38.3399L234.984 46.7715L236.943 46.3661ZM235.198 37.9345L235.178 35.9346L223.787 36.0442L223.806 38.0441L223.825 40.044L235.217 39.9344L235.198 37.9345ZM223.806 38.0441L221.849 37.6338L220.074 46.0992L222.031 46.5096L223.989 46.9199L225.764 38.4545L223.806 38.0441ZM222.031 46.5096L222.012 44.5097L206.973 44.6544L206.992 46.6543L207.011 48.6542L222.051 48.5095L222.031 46.5096ZM225.074 30.1595L225.094 32.1595L233.605 32.0776L233.586 30.0776L233.567 28.0777L225.055 28.1596L225.074 30.1595ZM233.586 30.0776L235.537 29.6367L231.192 10.4136L229.241 10.8546L227.29 11.2955L231.635 30.5186L233.586 30.0776ZM229.241 10.8546L227.286 10.4326L223.119 29.7376L225.074 30.1595L227.029 30.5815L231.196 11.2765L229.241 10.8546ZM256.066 46.1821L254.066 46.2013L254.086 48.2012L256.086 48.182L256.066 46.1821ZM255.643 2.15213L255.624 0.152226L253.624 0.171469L253.643 2.17138L255.643 2.15213ZM269.466 2.01912L271.466 1.99988L271.447 -2.55726e-05L269.447 0.0192175L269.466 2.01912ZM269.792 35.9376L267.793 35.9568L267.812 37.9567L269.812 37.9375L269.792 35.9376ZM285.408 35.7873L287.405 35.8944L287.519 33.7669L285.388 33.7874L285.408 35.7873ZM284.865 45.905L284.884 47.9049L286.762 47.8868L286.862 46.0121L284.865 45.905ZM256.066 46.1821L258.066 46.1629L257.643 2.13289L255.643 2.15213L253.643 2.17138L254.066 46.2013L256.066 46.1821ZM255.643 2.15213L255.662 4.15204L269.485 4.01903L269.466 2.01912L269.447 0.0192175L255.624 0.152226L255.643 2.15213ZM269.466 2.01912L267.466 2.03837L267.793 35.9568L269.792 35.9376L271.792 35.9183L271.466 1.99988L269.466 2.01912ZM269.792 35.9376L269.812 37.9375L285.427 37.7872L285.408 35.7873L285.388 33.7874L269.773 33.9376L269.792 35.9376ZM285.408 35.7873L283.411 35.6802L282.868 45.7979L284.865 45.905L286.862 46.0121L287.405 35.8944L285.408 35.7873ZM284.865 45.905L284.846 43.9051L256.047 44.1822L256.066 46.1821L256.086 48.182L284.884 47.9049L284.865 45.905ZM6.60781 137.587L4.67494 137.073L3.99999 139.612L6.62706 139.586L6.60781 137.587ZM18.3436 93.4395L18.3244 91.4396L16.8019 91.4543L16.4107 92.9257L18.3436 93.4395ZM39.0786 93.24L40.9944 92.6659L40.5628 91.2257L39.0594 91.2401L39.0786 93.24ZM52.2377 137.147L52.2569 139.147L54.9173 139.122L54.1535 136.573L52.2377 137.147ZM36.5584 137.298L34.5999 137.704L34.9333 139.314L36.5777 139.298L36.5584 137.298ZM34.8132 128.867L36.7717 128.461L36.4384 126.851L34.794 126.867L34.8132 128.867ZM23.4217 128.976L23.4025 126.976L21.7943 126.992L21.4643 128.566L23.4217 128.976ZM21.6471 137.442L21.6664 139.442L23.2746 139.426L23.6046 137.852L21.6471 137.442ZM24.6899 121.092L22.735 120.67L22.2071 123.116L24.7092 123.092L24.6899 121.092ZM33.2016 121.01L33.2208 123.01L35.6987 122.986L35.1523 120.569L33.2016 121.01ZM28.8564 101.787L30.8072 101.346L26.9014 101.365L28.8564 101.787ZM6.60781 137.587L8.54068 138.1L20.2765 93.9534L18.3436 93.4395L16.4107 92.9257L4.67494 137.073L6.60781 137.587ZM18.3436 93.4395L18.3628 95.4395L39.0979 95.2399L39.0786 93.24L39.0594 91.2401L18.3244 91.4396L18.3436 93.4395ZM39.0786 93.24L37.1628 93.8142L50.3219 137.722L52.2377 137.147L54.1535 136.573L40.9944 92.6659L39.0786 93.24ZM52.2377 137.147L52.2185 135.148L36.5392 135.298L36.5584 137.298L36.5777 139.298L52.2569 139.147L52.2377 137.147ZM36.5584 137.298L38.5169 136.893L36.7717 128.461L34.8132 128.867L32.8547 129.272L34.5999 137.704L36.5584 137.298ZM34.8132 128.867L34.794 126.867L23.4025 126.976L23.4217 128.976L23.441 130.976L34.8325 130.867L34.8132 128.867ZM23.4217 128.976L21.4643 128.566L19.6897 137.031L21.6471 137.442L23.6046 137.852L25.3792 129.387L23.4217 128.976ZM21.6471 137.442L21.6279 135.442L6.58857 135.587L6.60781 137.587L6.62706 139.586L21.6664 139.442L21.6471 137.442ZM24.6899 121.092L24.7092 123.092L33.2208 123.01L33.2016 121.01L33.1823 119.01L24.6707 119.092L24.6899 121.092ZM33.2016 121.01L35.1523 120.569L30.8072 101.346L28.8564 101.787L26.9056 102.228L31.2508 121.451L33.2016 121.01ZM28.8564 101.787L26.9014 101.365L22.735 120.67L24.6899 121.092L26.6449 121.514L30.8114 102.209L28.8564 101.787ZM55.682 137.114L53.6821 137.134L53.7014 139.133L55.7013 139.114L55.682 137.114ZM55.2584 93.0844L55.2391 91.0844L53.2392 91.1037L53.2585 93.1036L55.2584 93.0844ZM88.7572 95.7062L87.748 97.4329L87.7563 97.4378L87.7647 97.4425L88.7572 95.7062ZM86.8743 112.877L86.1824 111.001L79.3237 113.529L86.5145 114.844L86.8743 112.877ZM89.8251 133.522L90.7803 135.279L90.7869 135.275L89.8251 133.522ZM69.6972 110.354L67.6973 110.373L67.7166 112.373L69.7165 112.354L69.6972 110.354ZM69.6141 101.715L69.5948 99.7147L67.5949 99.734L67.6142 101.734L69.6141 101.715ZM80.2218 126.574L81.4276 128.169V128.169L80.2218 126.574ZM80.1503 119.15L78.902 120.713L78.9197 120.727L78.9377 120.741L80.1503 119.15ZM69.7053 117.842L69.686 115.843L67.6861 115.862L67.7054 117.862L69.7053 117.842ZM69.8026 127.954L67.8027 127.973L67.8219 129.973L69.8218 129.954L69.8026 127.954ZM72.3213 136.954L72.302 134.954L55.6628 135.114L55.682 137.114L55.7013 139.114L72.3405 138.954L72.3213 136.954ZM55.682 137.114L57.6819 137.095L57.2583 93.0651L55.2584 93.0844L53.2585 93.1036L53.6821 137.134L55.682 137.114ZM55.2584 93.0844L55.2776 95.0843L73.2608 94.9112L73.2415 92.9113L73.2223 90.9114L55.2391 91.0844L55.2584 93.0844ZM73.2415 92.9113L73.2608 94.9112C80.1975 94.8445 84.9214 95.7809 87.748 97.4329L88.7572 95.7062L89.7663 93.9794C85.9848 91.7695 80.365 90.8427 73.2223 90.9114L73.2415 92.9113ZM88.7572 95.7062L87.7647 97.4425C90.5366 99.0269 91.7369 101.068 91.762 103.678L93.7619 103.658L95.7618 103.639C95.7212 99.4221 93.585 96.162 89.7496 93.9698L88.7572 95.7062ZM93.7619 103.658L91.762 103.678C91.7798 105.53 91.3157 106.962 90.4698 108.094C89.6113 109.243 88.2401 110.242 86.1824 111.001L86.8743 112.877L87.5661 114.754C90.1429 113.804 92.2368 112.412 93.6742 110.488C95.1242 108.547 95.7867 106.224 95.7618 103.639L93.7619 103.658ZM86.8743 112.877L86.5145 114.844C89.2017 115.336 90.986 116.32 92.1152 117.625C93.2378 118.922 93.9105 120.766 93.9356 123.37L95.9355 123.35L97.9354 123.331C97.9038 120.047 97.038 117.201 95.1402 115.008C93.249 112.822 90.531 111.513 87.2341 110.91L86.8743 112.877ZM95.9355 123.35L93.9356 123.37C93.9543 125.316 93.5282 126.92 92.7261 128.255C91.9216 129.594 90.6697 130.777 88.8632 131.768L89.8251 133.522L90.7869 135.275C93.0975 134.008 94.9226 132.366 96.1549 130.315C97.3896 128.26 97.9602 125.908 97.9354 123.331L95.9355 123.35ZM89.8251 133.522L88.8698 131.765C85.21 133.754 79.7543 134.883 72.302 134.954L72.3213 136.954L72.3405 138.954C80.0769 138.88 86.2904 137.72 90.7803 135.279L89.8251 133.522ZM69.6972 110.354L69.7165 112.354L74.7722 112.305L74.753 110.306L74.7337 108.306L69.678 108.354L69.6972 110.354ZM74.753 110.306L74.7722 112.305C76.7734 112.286 78.6003 111.817 80.0859 110.725L78.9017 109.114L77.7175 107.502C77.0847 107.967 76.1458 108.292 74.7337 108.306L74.753 110.306ZM78.9017 109.114L80.0859 110.725C81.647 109.578 82.4907 107.95 82.472 106.007L80.4721 106.026L78.4722 106.046C78.4781 106.662 78.2749 107.092 77.7175 107.502L78.9017 109.114ZM80.4721 106.026L82.472 106.007C82.453 104.031 81.7296 102.275 80.1042 101.105C78.5949 100.02 76.5856 99.6475 74.3946 99.6685L74.4139 101.668L74.4331 103.668C76.2526 103.651 77.2583 103.986 77.7684 104.353C78.1623 104.636 78.4629 105.078 78.4722 106.046L80.4721 106.026ZM74.4139 101.668L74.3946 99.6685L69.5948 99.7147L69.6141 101.715L69.6333 103.715L74.4331 103.668L74.4139 101.668ZM69.6141 101.715L67.6142 101.734L67.6973 110.373L69.6972 110.354L71.6971 110.335L71.614 101.695L69.6141 101.715ZM75.3063 127.901L75.3255 129.901C77.6882 129.878 79.8113 129.391 81.4276 128.169L80.2218 126.574L79.0159 124.978C78.3447 125.485 77.1908 125.883 75.2871 125.901L75.3063 127.901ZM80.2218 126.574L81.4276 128.169C83.1176 126.892 83.9355 125.071 83.9151 122.954L81.9152 122.973L79.9153 122.992C79.9245 123.947 79.6134 124.527 79.0159 124.978L80.2218 126.574ZM81.9152 122.973L83.9151 122.954C83.8941 120.771 83.0874 118.874 81.363 117.56L80.1503 119.15L78.9377 120.741C79.5344 121.195 79.9043 121.848 79.9153 122.992L81.9152 122.973ZM80.1503 119.15L81.3987 117.587C79.7502 116.27 77.5875 115.767 75.1898 115.79L75.209 117.79L75.2283 119.789C77.097 119.771 78.2285 120.175 78.902 120.713L80.1503 119.15ZM75.209 117.79L75.1898 115.79L69.686 115.843L69.7053 117.842L69.7245 119.842L75.2283 119.789L75.209 117.79ZM69.7053 117.842L67.7054 117.862L67.8027 127.973L69.8026 127.954L71.8025 127.935L71.7052 117.823L69.7053 117.842ZM69.8026 127.954L69.8218 129.954L75.3255 129.901L75.3063 127.901L75.2871 125.901L69.7833 125.954L69.8026 127.954ZM108.687 136.604L106.687 136.624L106.706 138.623L108.706 138.604L108.687 136.604ZM108.569 124.381L110.569 124.362L110.566 123.978L110.42 123.623L108.569 124.381ZM95.592 92.6963L95.5728 90.6964L92.6233 90.7247L93.7412 93.4543L95.592 92.6963ZM109.351 92.5639L111.251 91.9376L110.793 90.5499L109.332 90.564L109.351 92.5639ZM115.746 111.959L113.847 112.585L115.83 118.6L117.661 112.537L115.746 111.959ZM121.639 92.4456L121.62 90.4457L120.149 90.4599L119.724 91.8675L121.639 92.4456ZM135.334 92.3139L137.186 93.0682L138.32 90.285L135.315 90.314L135.334 92.3139ZM122.329 124.248L120.477 123.494L120.325 123.866L120.329 124.268L122.329 124.248ZM122.446 136.472L122.466 138.472L124.466 138.453L124.446 136.453L122.446 136.472ZM108.687 136.604L110.687 136.585L110.569 124.362L108.569 124.381L106.57 124.4L106.687 136.624L108.687 136.604ZM108.569 124.381L110.42 123.623L97.4428 91.9382L95.592 92.6963L93.7412 93.4543L106.719 125.139L108.569 124.381ZM95.592 92.6963L95.6113 94.6962L109.371 94.5638L109.351 92.5639L109.332 90.564L95.5728 90.6964L95.592 92.6963ZM109.351 92.5639L107.452 93.1901L113.847 112.585L115.746 111.959L117.646 111.333L111.251 91.9376L109.351 92.5639ZM115.746 111.959L117.661 112.537L123.553 93.0238L121.639 92.4456L119.724 91.8675L113.832 111.381L115.746 111.959ZM121.639 92.4456L121.658 94.4455L135.353 94.3138L135.334 92.3139L135.315 90.314L121.62 90.4457L121.639 92.4456ZM135.334 92.3139L133.482 91.5595L120.477 123.494L122.329 124.248L124.181 125.003L137.186 93.0682L135.334 92.3139ZM122.329 124.248L120.329 124.268L120.447 136.491L122.446 136.472L124.446 136.453L124.329 124.229L122.329 124.248ZM122.446 136.472L122.427 134.472L108.668 134.604L108.687 136.604L108.706 138.604L122.466 138.472L122.446 136.472ZM143.488 136.269L143.948 134.323L143.934 134.32L143.919 134.316L143.488 136.269ZM136.424 133.713L134.467 133.301L134.164 134.734L135.44 135.455L136.424 133.713ZM138.627 123.26L139.553 121.487L137.214 120.266L136.67 122.847L138.627 123.26ZM145.564 125.817L145.191 127.782L145.213 127.786L145.235 127.79L145.564 125.817ZM155.417 125.466L154.348 123.776L154.329 123.788L154.311 123.8L155.417 125.466ZM155.248 121.244L154.34 123.026L154.371 123.041L154.403 123.056L155.248 121.244ZM151.395 119.873L150.878 121.805L150.892 121.808L151.395 119.873ZM146.453 118.448L145.825 120.347L145.846 120.354L145.867 120.36L146.453 118.448ZM141.439 116.192L140.379 117.888L140.406 117.905L140.434 117.921L141.439 116.192ZM137.626 112.389L135.925 113.441L135.932 113.451L135.938 113.461L137.626 112.389ZM138.26 98.366L139.929 99.4667L139.934 99.4594L139.939 99.452L138.26 98.366ZM144.609 93.1207L145.418 94.9498L145.43 94.9446L145.442 94.9392L144.609 93.1207ZM161.753 92.1237L161.222 94.0519L161.242 94.0575L161.262 94.0626L161.753 92.1237ZM167.602 94.6915L169.554 95.1234L169.833 93.8645L168.801 93.0912L167.602 94.6915ZM165.516 104.12L164.772 105.977L166.96 106.853L167.469 104.552L165.516 104.12ZM159.61 102.257L159.144 104.202L159.172 104.208L159.2 104.214L159.61 102.257ZM150.652 102.471L151.626 104.217V104.217L150.652 102.471ZM150.754 106.502L151.662 104.72V104.72L150.754 106.502ZM154.544 107.938L153.978 109.856V109.856L154.544 107.938ZM159.488 109.49L160.116 107.591V107.591L159.488 109.49ZM164.438 111.811L165.499 110.115V110.115L164.438 111.811ZM165.027 133.054L163.735 131.527L163.725 131.535L165.027 133.054ZM151.69 137.215L151.671 135.215C149.154 135.239 146.581 134.944 143.948 134.323L143.488 136.269L143.029 138.216C145.956 138.907 148.85 139.242 151.709 139.214L151.69 137.215ZM143.488 136.269L143.919 134.316C141.282 133.734 139.124 132.942 137.407 131.972L136.424 133.713L135.44 135.455C137.584 136.666 140.136 137.578 143.058 138.222L143.488 136.269ZM136.424 133.713L138.381 134.126L140.584 123.672L138.627 123.26L136.67 122.847L134.467 133.301L136.424 133.713ZM138.627 123.26L137.701 125.032C140.315 126.397 142.814 127.33 145.191 127.782L145.564 125.817L145.937 123.852C144.039 123.491 141.914 122.72 139.553 121.487L138.627 123.26ZM145.564 125.817L145.235 127.79C147.508 128.168 149.633 128.354 151.605 128.335L151.585 126.335L151.566 124.335C149.869 124.351 147.98 124.192 145.893 123.844L145.564 125.817ZM151.585 126.335L151.605 128.335C153.464 128.317 155.201 128.01 156.523 127.132L155.417 125.466L154.311 123.8C153.937 124.048 153.12 124.32 151.566 124.335L151.585 126.335ZM155.417 125.466L156.486 127.156C157.877 126.277 158.756 124.921 158.739 123.194L156.739 123.213L154.74 123.233C154.741 123.369 154.713 123.43 154.691 123.468C154.662 123.517 154.58 123.629 154.348 123.776L155.417 125.466ZM156.739 123.213L158.739 123.194C158.722 121.346 157.548 120.109 156.094 119.431L155.248 121.244L154.403 123.056C154.544 123.122 154.636 123.18 154.693 123.223C154.721 123.244 154.74 123.261 154.751 123.272C154.756 123.277 154.76 123.281 154.763 123.284C154.764 123.285 154.765 123.286 154.765 123.287C154.766 123.288 154.766 123.288 154.766 123.288C154.766 123.288 154.766 123.288 154.765 123.287C154.765 123.286 154.764 123.286 154.763 123.284C154.762 123.282 154.76 123.279 154.758 123.274C154.753 123.266 154.749 123.255 154.745 123.245C154.737 123.221 154.739 123.213 154.74 123.233L156.739 123.213ZM155.248 121.244L156.156 119.462C154.996 118.87 153.561 118.369 151.898 117.937L151.395 119.873L150.892 121.808C152.394 122.199 153.528 122.612 154.34 123.026L155.248 121.244ZM151.395 119.873L151.912 117.941C150.398 117.536 148.774 117.068 147.039 116.536L146.453 118.448L145.867 120.36C147.641 120.904 149.312 121.386 150.878 121.805L151.395 119.873ZM146.453 118.448L147.081 116.549C145.457 116.012 143.912 115.317 142.445 114.463L141.439 116.192L140.434 117.921C142.142 118.915 143.94 119.723 145.825 120.347L146.453 118.448ZM141.439 116.192L142.5 114.497C141.213 113.692 140.154 112.639 139.315 111.317L137.626 112.389L135.938 113.461C137.091 115.277 138.575 116.76 140.379 117.888L141.439 116.192ZM137.626 112.389L139.327 111.337C138.57 110.112 138.117 108.472 138.096 106.304L136.096 106.323L134.096 106.342C134.122 109.038 134.689 111.442 135.925 113.441L137.626 112.389ZM136.096 106.323L138.096 106.304C138.07 103.569 138.708 101.32 139.929 99.4667L138.26 98.366L136.59 97.2653C134.868 99.8778 134.063 102.934 134.096 106.342L136.096 106.323ZM138.26 98.366L139.939 99.452C141.175 97.5403 142.971 96.0321 145.418 94.9498L144.609 93.1207L143.8 91.2915C140.725 92.6518 138.287 94.6404 136.58 97.28L138.26 98.366ZM144.609 93.1207L145.442 94.9392C147.895 93.8163 150.864 93.2045 154.402 93.1704L154.383 91.1705L154.364 89.1706C150.393 89.2088 146.846 89.8971 143.777 91.3021L144.609 93.1207ZM154.383 91.1705L154.402 93.1704C156.736 93.148 159.007 93.4422 161.222 94.0519L161.753 92.1237L162.283 90.1954C159.706 89.4858 157.064 89.1446 154.364 89.1706L154.383 91.1705ZM161.753 92.1237L161.262 94.0626C163.534 94.6372 165.216 95.4029 166.402 96.2918L167.602 94.6915L168.801 93.0912C167.065 91.7895 164.847 90.8433 162.243 90.1847L161.753 92.1237ZM167.602 94.6915L165.649 94.2596L163.563 103.688L165.516 104.12L167.469 104.552L169.554 95.1234L167.602 94.6915ZM165.516 104.12L166.26 102.263C163.999 101.358 161.916 100.696 160.02 100.299L159.61 102.257L159.2 104.214C160.81 104.551 162.665 105.132 164.772 105.977L165.516 104.12ZM159.61 102.257L160.076 100.312C158.229 99.8689 156.442 99.6471 154.721 99.6637L154.74 101.664L154.759 103.663C156.11 103.65 157.569 103.824 159.144 104.202L159.61 102.257ZM154.74 101.664L154.721 99.6637C152.793 99.6822 151.038 99.9651 149.677 100.724L150.652 102.471L151.626 104.217C152.133 103.935 153.103 103.679 154.759 103.663L154.74 101.664ZM150.652 102.471L149.677 100.724C148.294 101.496 147.246 102.772 147.263 104.552L149.263 104.532L151.263 104.513C151.263 104.485 151.266 104.481 151.264 104.49C151.261 104.499 151.258 104.502 151.263 104.494C151.276 104.476 151.357 104.368 151.626 104.217L150.652 102.471ZM149.263 104.532L147.263 104.552C147.281 106.376 148.475 107.585 149.846 108.284L150.754 106.502L151.662 104.72C151.351 104.561 151.251 104.445 151.237 104.426C151.232 104.42 151.242 104.432 151.252 104.461C151.257 104.474 151.26 104.486 151.261 104.497C151.263 104.507 151.263 104.513 151.263 104.513L149.263 104.532ZM150.754 106.502L149.846 108.284C150.979 108.861 152.368 109.381 153.978 109.856L154.544 107.938L155.11 106.02C153.64 105.586 152.502 105.148 151.662 104.72L150.754 106.502ZM154.544 107.938L153.978 109.856C155.495 110.304 157.122 110.814 158.86 111.389L159.488 109.49L160.116 107.591C158.343 107.005 156.674 106.481 155.11 106.02L154.544 107.938ZM159.488 109.49L158.86 111.389C160.465 111.92 161.97 112.626 163.378 113.506L164.438 111.811L165.499 110.115C163.816 109.063 162.02 108.221 160.116 107.591L159.488 109.49ZM164.438 111.811L163.378 113.506C164.665 114.311 165.723 115.364 166.563 116.686L168.251 115.614L169.939 114.542C168.786 112.726 167.302 111.243 165.499 110.115L164.438 111.811ZM168.251 115.614L166.563 116.686C167.309 117.862 167.76 119.45 167.78 121.571L169.78 121.552L171.78 121.533C171.754 118.875 171.185 116.504 169.939 114.542L168.251 115.614ZM169.78 121.552L167.78 121.571C167.823 126.041 166.416 129.261 163.735 131.527L165.027 133.054L166.318 134.581C170.071 131.409 171.832 126.961 171.78 121.533L169.78 121.552ZM165.027 133.054L163.725 131.535C161.021 133.851 157.09 135.163 151.671 135.215L151.69 137.215L151.709 139.214C157.724 139.157 162.684 137.694 166.328 134.573L165.027 133.054ZM179.237 135.925L179.696 133.979L179.682 133.976L179.668 133.972L179.237 135.925ZM172.172 133.369L170.215 132.957L169.913 134.39L171.188 135.111L172.172 133.369ZM174.375 122.916L175.301 121.143L172.963 119.922L172.418 122.503L174.375 122.916ZM181.312 125.473L180.939 127.438L180.961 127.442L180.984 127.446L181.312 125.473ZM191.165 125.122L190.096 123.432L190.078 123.444L190.059 123.456L191.165 125.122ZM190.997 120.9L190.089 122.682L190.12 122.697L190.151 122.712L190.997 120.9ZM187.143 119.529L186.627 121.461L186.64 121.464L187.143 119.529ZM182.201 118.104L181.573 120.003L181.594 120.01L181.615 120.016L182.201 118.104ZM177.188 115.848L176.127 117.544L176.154 117.561L176.182 117.577L177.188 115.848ZM173.375 112.045L171.674 113.097L171.68 113.107L171.686 113.117L173.375 112.045ZM174.008 98.022L175.678 99.1228L175.683 99.1154L175.687 99.108L174.008 98.022ZM180.358 92.7767L181.167 94.6058L181.178 94.6006L181.19 94.5952L180.358 92.7767ZM197.501 91.7797L196.97 93.7079L196.99 93.7135L197.011 93.7187L197.501 91.7797ZM203.35 94.3475L205.303 94.7795L205.581 93.5205L204.549 92.7472L203.35 94.3475ZM201.265 103.776L200.521 105.633L202.708 106.509L203.217 104.208L201.265 103.776ZM195.358 101.913L194.892 103.858L194.92 103.864L194.948 103.87L195.358 101.913ZM186.4 102.127L187.375 103.873V103.873L186.4 102.127ZM186.503 106.158L187.411 104.376V104.376L186.503 106.158ZM190.293 107.594L189.727 109.512V109.512L190.293 107.594ZM195.236 109.146L195.864 107.247V107.247L195.236 109.146ZM200.186 111.467L201.247 109.771V109.771L200.186 111.467ZM200.775 132.71L199.484 131.183L199.474 131.191L200.775 132.71ZM187.438 136.871L187.419 134.871C184.902 134.895 182.329 134.6 179.696 133.979L179.237 135.925L178.777 137.872C181.704 138.563 184.599 138.898 187.458 138.871L187.438 136.871ZM179.237 135.925L179.668 133.972C177.03 133.39 174.873 132.598 173.156 131.628L172.172 133.369L171.188 135.111C173.332 136.322 175.885 137.234 178.806 137.878L179.237 135.925ZM172.172 133.369L174.129 133.782L176.332 123.328L174.375 122.916L172.418 122.503L170.215 132.957L172.172 133.369ZM174.375 122.916L173.45 124.688C176.063 126.053 178.563 126.986 180.939 127.438L181.312 125.473L181.686 123.508C179.787 123.147 177.662 122.376 175.301 121.143L174.375 122.916ZM181.312 125.473L180.984 127.446C183.256 127.824 185.381 128.01 187.353 127.991L187.334 125.991L187.314 123.991C185.617 124.008 183.728 123.848 181.641 123.5L181.312 125.473ZM187.334 125.991L187.353 127.991C189.212 127.973 190.95 127.666 192.271 126.789L191.165 125.122L190.059 123.456C189.685 123.704 188.868 123.976 187.314 123.991L187.334 125.991ZM191.165 125.122L192.234 126.813C193.625 125.933 194.504 124.577 194.488 122.85L192.488 122.869L190.488 122.889C190.489 123.025 190.462 123.086 190.439 123.124C190.411 123.173 190.328 123.285 190.096 123.432L191.165 125.122ZM192.488 122.869L194.488 122.85C194.47 121.002 193.296 119.765 191.842 119.087L190.997 120.9L190.151 122.712C190.292 122.778 190.385 122.836 190.441 122.879C190.469 122.9 190.488 122.917 190.499 122.928C190.505 122.933 190.508 122.937 190.511 122.94C190.512 122.941 190.513 122.942 190.513 122.943C190.514 122.944 190.514 122.944 190.514 122.944C190.514 122.944 190.514 122.944 190.514 122.943C190.513 122.942 190.513 122.942 190.512 122.94C190.51 122.938 190.508 122.935 190.506 122.93C190.501 122.922 190.497 122.912 190.493 122.901C190.485 122.877 190.488 122.869 190.488 122.889L192.488 122.869ZM190.997 120.9L191.905 119.118C190.744 118.526 189.31 118.025 187.647 117.593L187.143 119.529L186.64 121.464C188.143 121.855 189.277 122.268 190.089 122.682L190.997 120.9ZM187.143 119.529L187.66 117.597C186.147 117.192 184.523 116.724 182.788 116.192L182.201 118.104L181.615 120.016C183.39 120.56 185.06 121.042 186.627 121.461L187.143 119.529ZM182.201 118.104L182.83 116.205C181.205 115.668 179.66 114.973 178.193 114.119L177.188 115.848L176.182 117.577C177.89 118.571 179.688 119.379 181.573 120.003L182.201 118.104ZM177.188 115.848L178.248 114.153C176.961 113.348 175.903 112.295 175.063 110.973L173.375 112.045L171.686 113.117C172.84 114.933 174.323 116.416 176.127 117.544L177.188 115.848ZM173.375 112.045L175.076 110.993C174.318 109.768 173.865 108.128 173.844 105.96L171.844 105.979L169.844 105.998C169.87 108.694 170.438 111.098 171.674 113.097L173.375 112.045ZM171.844 105.979L173.844 105.96C173.818 103.225 174.456 100.976 175.678 99.1228L174.008 98.022L172.338 96.9213C170.616 99.5338 169.812 102.59 169.844 105.998L171.844 105.979ZM174.008 98.022L175.687 99.108C176.924 97.1964 178.719 95.6882 181.167 94.6058L180.358 92.7767L179.549 90.9476C176.473 92.3078 174.035 94.2965 172.328 96.936L174.008 98.022ZM180.358 92.7767L181.19 94.5952C183.643 93.4723 186.612 92.8605 190.151 92.8265L190.131 90.8266L190.112 88.8266C186.141 88.8649 182.595 89.5531 179.525 90.9581L180.358 92.7767ZM190.131 90.8266L190.151 92.8265C192.484 92.804 194.756 93.0983 196.97 93.7079L197.501 91.7797L198.032 89.8514C195.455 89.1418 192.813 88.8007 190.112 88.8266L190.131 90.8266ZM197.501 91.7797L197.011 93.7187C199.283 94.2932 200.964 95.0589 202.15 95.9479L203.35 94.3475L204.549 92.7472C202.813 91.4455 200.595 90.4993 197.991 89.8407L197.501 91.7797ZM203.35 94.3475L201.397 93.9156L199.312 103.344L201.265 103.776L203.217 104.208L205.303 94.7795L203.35 94.3475ZM201.265 103.776L202.008 101.919C199.747 101.014 197.664 100.352 195.768 99.9552L195.358 101.913L194.948 103.87C196.558 104.208 198.413 104.788 200.521 105.633L201.265 103.776ZM195.358 101.913L195.825 99.9679C193.978 99.525 192.19 99.3031 190.469 99.3197L190.488 101.32L190.508 103.32C191.858 103.307 193.318 103.48 194.892 103.858L195.358 101.913ZM190.488 101.32L190.469 99.3197C188.542 99.3382 186.786 99.6211 185.425 100.38L186.4 102.127L187.375 103.873C187.881 103.591 188.851 103.335 190.508 103.32L190.488 101.32ZM186.4 102.127L185.425 100.38C184.043 101.152 182.995 102.428 183.012 104.208L185.012 104.188L187.012 104.169C187.011 104.142 187.015 104.137 187.012 104.146C187.009 104.155 187.006 104.158 187.012 104.15C187.024 104.132 187.105 104.024 187.375 103.873L186.4 102.127ZM185.012 104.188L183.012 104.208C183.029 106.032 184.224 107.242 185.595 107.94L186.503 106.158L187.411 104.376C187.099 104.217 186.999 104.101 186.985 104.082C186.981 104.076 186.991 104.088 187.001 104.117C187.005 104.13 187.008 104.142 187.01 104.153C187.012 104.163 187.012 104.169 187.012 104.169L185.012 104.188ZM186.503 106.158L185.595 107.94C186.727 108.517 188.116 109.037 189.727 109.512L190.293 107.594L190.859 105.676C189.389 105.242 188.251 104.804 187.411 104.376L186.503 106.158ZM190.293 107.594L189.727 109.512C191.244 109.96 192.87 110.47 194.608 111.045L195.236 109.146L195.864 107.247C194.091 106.661 192.423 106.137 190.859 105.676L190.293 107.594ZM195.236 109.146L194.608 111.045C196.213 111.576 197.718 112.282 199.126 113.162L200.186 111.467L201.247 109.771C199.564 108.719 197.769 107.877 195.864 107.247L195.236 109.146ZM200.186 111.467L199.126 113.162C200.413 113.967 201.471 115.02 202.311 116.342L203.999 115.27L205.688 114.198C204.534 112.382 203.051 110.899 201.247 109.771L200.186 111.467ZM203.999 115.27L202.311 116.342C203.058 117.518 203.508 119.106 203.529 121.227L205.528 121.208L207.528 121.189C207.503 118.531 206.934 116.16 205.688 114.198L203.999 115.27ZM205.528 121.208L203.529 121.227C203.572 125.697 202.164 128.917 199.484 131.183L200.775 132.71L202.066 134.237C205.819 131.065 207.581 126.617 207.528 121.189L205.528 121.208ZM200.775 132.71L199.474 131.191C196.77 133.507 192.838 134.819 187.419 134.871L187.438 136.871L187.458 138.871C193.472 138.813 198.432 137.35 202.076 134.229L200.775 132.71Z" fill="white" mask="url(#path-1-outside-1_18_299)"/>
</g>
<defs>
<filter id="filter0_d_18_299" x="0" y="0" width="291.519" height="147.612" filterUnits="userSpaceOnUse" color-interpolation-filters="sRGB">
<feFlood flood-opacity="0" result="BackgroundImageFix"/>
<feColorMatrix in="SourceAlpha" type="matrix" values="0 0 0 0 0 0 0 0 0 0 0 0 0 0 0 0 0 0 127 0" result="hardAlpha"/>
<feOffset dy="4"/>
<feGaussianBlur stdDeviation="2"/>
<feComposite in2="hardAlpha" operator="out"/>
<feColorMatrix type="matrix" values="0 0 0 0 0 0 0 0 0 0 0 0 0 0 0 0 0 0 0.5 0"/>
<feBlend mode="normal" in2="BackgroundImageFix" result="effect1_dropShadow_18_299"/>
<feBlend mode="normal" in="SourceGraphic" in2="effect1_dropShadow_18_299" result="shape"/>
</filter>
<linearGradient id="paint0_linear_18_299" x1="5.63313" y1="62.8959" x2="306.332" y2="56.4206" gradientUnits="userSpaceOnUse">
<stop offset="0.0336538" stop-color="#00179A"/>
<stop offset="1" stop-color="#B47B00"/>
</linearGradient>
</defs>
</svg>
