<svg width="103" height="38" viewBox="0 0 103 38" fill="none" xmlns="http://www.w3.org/2000/svg">
<g filter="url(#filter0_d_14_275)">
<mask id="path-1-outside-1_14_275" maskUnits="userSpaceOnUse" x="3.08" y="2" width="96" height="30" fill="black">
<rect fill="white" x="3.08" y="2" width="96" height="30"/>
<path d="M8.72 3H24.32V7.52H10.56L9.84 8.32V14.6H19.08V19.12H9.84V24.72L11 26.48H24.32V31H8.6L5 25.64V6.8L8.72 3ZM43.1044 3H47.9444V11.52L44.1444 15.4L47.9444 20.96V31H43.1044V21.88L41.0644 19.04H39.2244L35.0244 23.44V31H30.1844V21.92L33.9844 18.04L30.1844 12.48V3H35.0244V11.56L36.9844 14.52H38.9044L43.1044 10.12V3ZM53.3688 3H72.7288V7.52H65.4488V26.48H72.7288V31H53.3688V26.48H60.6088V7.52H53.3688V3ZM76.5931 3H97.4731V7.52H86.8331L89.4731 9.88V31H84.6331V11L83.4731 7.52H76.5931V3Z"/>
</mask>
<path d="M8.72 3H24.32V7.52H10.56L9.84 8.32V14.6H19.08V19.12H9.84V24.72L11 26.48H24.32V31H8.6L5 25.64V6.8L8.72 3ZM43.1044 3H47.9444V11.52L44.1444 15.4L47.9444 20.96V31H43.1044V21.88L41.0644 19.04H39.2244L35.0244 23.44V31H30.1844V21.92L33.9844 18.04L30.1844 12.48V3H35.0244V11.56L36.9844 14.52H38.9044L43.1044 10.12V3ZM53.3688 3H72.7288V7.52H65.4488V26.48H72.7288V31H53.3688V26.48H60.6088V7.52H53.3688V3ZM76.5931 3H97.4731V7.52H86.8331L89.4731 9.88V31H84.6331V11L83.4731 7.52H76.5931V3Z" fill="#213084"/>
<path d="M8.72 3V2H8.29954L8.00541 2.30045L8.72 3ZM24.32 3H25.32V2H24.32V3ZM24.32 7.52V8.52H25.32V7.52H24.32ZM10.56 7.52V6.52H10.1146L9.81671 6.85103L10.56 7.52ZM9.84 8.32L9.09671 7.65103L8.84 7.93626V8.32H9.84ZM9.84 14.6H8.84V15.6H9.84V14.6ZM19.08 14.6H20.08V13.6H19.08V14.6ZM19.08 19.12V20.12H20.08V19.12H19.08ZM9.84 19.12V18.12H8.84V19.12H9.84ZM9.84 24.72H8.84V25.0199L9.00504 25.2703L9.84 24.72ZM11 26.48L10.165 27.0303L10.4614 27.48H11V26.48ZM24.32 26.48H25.32V25.48H24.32V26.48ZM24.32 31V32H25.32V31H24.32ZM8.6 31L7.76986 31.5576L8.06703 32H8.6V31ZM5 25.64H4V25.9447L4.16986 26.1976L5 25.64ZM5 6.8L4.28541 6.10045L4 6.392V6.8H5ZM8.72 3V4H24.32V3V2H8.72V3ZM24.32 3H23.32V7.52H24.32H25.32V3H24.32ZM24.32 7.52V6.52H10.56V7.52V8.52H24.32V7.52ZM10.56 7.52L9.81671 6.85103L9.09671 7.65103L9.84 8.32L10.5833 8.98896L11.3033 8.18896L10.56 7.52ZM9.84 8.32H8.84V14.6H9.84H10.84V8.32H9.84ZM9.84 14.6V15.6H19.08V14.6V13.6H9.84V14.6ZM19.08 14.6H18.08V19.12H19.08H20.08V14.6H19.08ZM19.08 19.12V18.12H9.84V19.12V20.12H19.08V19.12ZM9.84 19.12H8.84V24.72H9.84H10.84V19.12H9.84ZM9.84 24.72L9.00504 25.2703L10.165 27.0303L11 26.48L11.835 25.9297L10.675 24.1697L9.84 24.72ZM11 26.48V27.48H24.32V26.48V25.48H11V26.48ZM24.32 26.48H23.32V31H24.32H25.32V26.48H24.32ZM24.32 31V30H8.6V31V32H24.32V31ZM8.6 31L9.43014 30.4424L5.83014 25.0824L5 25.64L4.16986 26.1976L7.76986 31.5576L8.6 31ZM5 25.64H6V6.8H5H4V25.64H5ZM5 6.8L5.71459 7.49954L9.43459 3.69954L8.72 3L8.00541 2.30045L4.28541 6.10045L5 6.8ZM43.1044 3V2H42.1044V3H43.1044ZM47.9444 3H48.9444V2H47.9444V3ZM47.9444 11.52L48.6588 12.2197L48.9444 11.9281V11.52H47.9444ZM44.1444 15.4L43.4299 14.7003L42.8557 15.2867L43.3188 15.9643L44.1444 15.4ZM47.9444 20.96H48.9444V20.6509L48.77 20.3957L47.9444 20.96ZM47.9444 31V32H48.9444V31H47.9444ZM43.1044 31H42.1044V32H43.1044V31ZM43.1044 21.88H44.1044V21.5581L43.9166 21.2966L43.1044 21.88ZM41.0644 19.04L41.8766 18.4566L41.5773 18.04H41.0644V19.04ZM39.2244 19.04V18.04H38.7965L38.501 18.3495L39.2244 19.04ZM35.0244 23.44L34.301 22.7495L34.0244 23.0393V23.44H35.0244ZM35.0244 31V32H36.0244V31H35.0244ZM30.1844 31H29.1844V32H30.1844V31ZM30.1844 21.92L29.4699 21.2203L29.1844 21.5119V21.92H30.1844ZM33.9844 18.04L34.6988 18.7397L35.2731 18.1533L34.81 17.4757L33.9844 18.04ZM30.1844 12.48H29.1844V12.7891L29.3588 13.0443L30.1844 12.48ZM30.1844 3V2H29.1844V3H30.1844ZM35.0244 3H36.0244V2H35.0244V3ZM35.0244 11.56H34.0244V11.8611L34.1906 12.1121L35.0244 11.56ZM36.9844 14.52L36.1506 15.0721L36.4472 15.52H36.9844V14.52ZM38.9044 14.52V15.52H39.3323L39.6277 15.2105L38.9044 14.52ZM43.1044 10.12L43.8277 10.8105L44.1044 10.5207V10.12H43.1044ZM43.1044 3V4H47.9444V3V2H43.1044V3ZM47.9444 3H46.9444V11.52H47.9444H48.9444V3H47.9444ZM47.9444 11.52L47.2299 10.8203L43.4299 14.7003L44.1444 15.4L44.8588 16.0997L48.6588 12.2197L47.9444 11.52ZM44.1444 15.4L43.3188 15.9643L47.1188 21.5243L47.9444 20.96L48.77 20.3957L44.97 14.8357L44.1444 15.4ZM47.9444 20.96H46.9444V31H47.9444H48.9444V20.96H47.9444ZM47.9444 31V30H43.1044V31V32H47.9444V31ZM43.1044 31H44.1044V21.88H43.1044H42.1044V31H43.1044ZM43.1044 21.88L43.9166 21.2966L41.8766 18.4566L41.0644 19.04L40.2522 19.6234L42.2922 22.4634L43.1044 21.88ZM41.0644 19.04V18.04H39.2244V19.04V20.04H41.0644V19.04ZM39.2244 19.04L38.501 18.3495L34.301 22.7495L35.0244 23.44L35.7477 24.1305L39.9477 19.7305L39.2244 19.04ZM35.0244 23.44H34.0244V31H35.0244H36.0244V23.44H35.0244ZM35.0244 31V30H30.1844V31V32H35.0244V31ZM30.1844 31H31.1844V21.92H30.1844H29.1844V31H30.1844ZM30.1844 21.92L30.8988 22.6197L34.6988 18.7397L33.9844 18.04L33.2699 17.3403L29.4699 21.2203L30.1844 21.92ZM33.9844 18.04L34.81 17.4757L31.01 11.9157L30.1844 12.48L29.3588 13.0443L33.1588 18.6043L33.9844 18.04ZM30.1844 12.48H31.1844V3H30.1844H29.1844V12.48H30.1844ZM30.1844 3V4H35.0244V3V2H30.1844V3ZM35.0244 3H34.0244V11.56H35.0244H36.0244V3H35.0244ZM35.0244 11.56L34.1906 12.1121L36.1506 15.0721L36.9844 14.52L37.8182 13.9679L35.8582 11.0079L35.0244 11.56ZM36.9844 14.52V15.52H38.9044V14.52V13.52H36.9844V14.52ZM38.9044 14.52L39.6277 15.2105L43.8277 10.8105L43.1044 10.12L42.381 9.42952L38.181 13.8295L38.9044 14.52ZM43.1044 10.12H44.1044V3H43.1044H42.1044V10.12H43.1044ZM53.3688 3V2H52.3688V3H53.3688ZM72.7288 3H73.7288V2H72.7288V3ZM72.7288 7.52V8.52H73.7288V7.52H72.7288ZM65.4488 7.52V6.52H64.4488V7.52H65.4488ZM65.4488 26.48H64.4488V27.48H65.4488V26.48ZM72.7288 26.48H73.7288V25.48H72.7288V26.48ZM72.7288 31V32H73.7288V31H72.7288ZM53.3688 31H52.3688V32H53.3688V31ZM53.3688 26.48V25.48H52.3688V26.48H53.3688ZM60.6088 26.48V27.48H61.6088V26.48H60.6088ZM60.6088 7.52H61.6088V6.52H60.6088V7.52ZM53.3688 7.52H52.3688V8.52H53.3688V7.52ZM53.3688 3V4H72.7288V3V2H53.3688V3ZM72.7288 3H71.7288V7.52H72.7288H73.7288V3H72.7288ZM72.7288 7.52V6.52H65.4488V7.52V8.52H72.7288V7.52ZM65.4488 7.52H64.4488V26.48H65.4488H66.4488V7.52H65.4488ZM65.4488 26.48V27.48H72.7288V26.48V25.48H65.4488V26.48ZM72.7288 26.48H71.7288V31H72.7288H73.7288V26.48H72.7288ZM72.7288 31V30H53.3688V31V32H72.7288V31ZM53.3688 31H54.3688V26.48H53.3688H52.3688V31H53.3688ZM53.3688 26.48V27.48H60.6088V26.48V25.48H53.3688V26.48ZM60.6088 26.48H61.6088V7.52H60.6088H59.6088V26.48H60.6088ZM60.6088 7.52V6.52H53.3688V7.52V8.52H60.6088V7.52ZM53.3688 7.52H54.3688V3H53.3688H52.3688V7.52H53.3688ZM76.5931 3V2H75.5931V3H76.5931ZM97.4731 3H98.4731V2H97.4731V3ZM97.4731 7.52V8.52H98.4731V7.52H97.4731ZM86.8331 7.52V6.52H84.214L86.1667 8.26554L86.8331 7.52ZM89.4731 9.88H90.4731V9.43262L90.1396 9.13446L89.4731 9.88ZM89.4731 31V32H90.4731V31H89.4731ZM84.6331 31H83.6331V32H84.6331V31ZM84.6331 11H85.6331V10.8377L85.5818 10.6838L84.6331 11ZM83.4731 7.52L84.4218 7.20377L84.1939 6.52H83.4731V7.52ZM76.5931 7.52H75.5931V8.52H76.5931V7.52ZM76.5931 3V4H97.4731V3V2H76.5931V3ZM97.4731 3H96.4731V7.52H97.4731H98.4731V3H97.4731ZM97.4731 7.52V6.52H86.8331V7.52V8.52H97.4731V7.52ZM86.8331 7.52L86.1667 8.26554L88.8067 10.6255L89.4731 9.88L90.1396 9.13446L87.4996 6.77446L86.8331 7.52ZM89.4731 9.88H88.4731V31H89.4731H90.4731V9.88H89.4731ZM89.4731 31V30H84.6331V31V32H89.4731V31ZM84.6331 31H85.6331V11H84.6331H83.6331V31H84.6331ZM84.6331 11L85.5818 10.6838L84.4218 7.20377L83.4731 7.52L82.5244 7.83623L83.6844 11.3162L84.6331 11ZM83.4731 7.52V6.52H76.5931V7.52V8.52H83.4731V7.52ZM76.5931 7.52H77.5931V3H76.5931H75.5931V7.52H76.5931Z" fill="white" mask="url(#path-1-outside-1_14_275)"/>
</g>
<defs>
<filter id="filter0_d_14_275" x="0" y="0" width="102.473" height="38" filterUnits="userSpaceOnUse" color-interpolation-filters="sRGB">
<feFlood flood-opacity="0" result="BackgroundImageFix"/>
<feColorMatrix in="SourceAlpha" type="matrix" values="0 0 0 0 0 0 0 0 0 0 0 0 0 0 0 0 0 0 127 0" result="hardAlpha"/>
<feOffset dy="2"/>
<feGaussianBlur stdDeviation="2"/>
<feComposite in2="hardAlpha" operator="out"/>
<feColorMatrix type="matrix" values="0 0 0 0 0 0 0 0 0 0 0 0 0 0 0 0 0 0 0.5 0"/>
<feBlend mode="normal" in2="BackgroundImageFix" result="effect1_dropShadow_14_275"/>
<feBlend mode="normal" in="SourceGraphic" in2="effect1_dropShadow_14_275" result="shape"/>
</filter>
</defs>
</svg>
