<svg width="46" height="45" viewBox="0 0 46 45" fill="none" xmlns="http://www.w3.org/2000/svg">
<path d="M38.7515 14.8613L37.9971 28.1897L44.787 23.6631L38.7515 14.8613Z" fill="#635BFF"/>
<path d="M33.9734 28.1897L38.3743 21.5255L38.7515 14.8613L20.8965 12.598L10.3343 18.1305L8.32252 31.9619L22.1539 43.027L20.3935 33.4708L23.6628 18.6335L26.932 29.1956L33.9734 19.3879V28.1897Z" fill="#635BFF"/>
<path d="M10.3343 18.1305L20.8965 12.598L30.4527 9.07727L28.4409 2.79028L13.3521 0.52697L0.526657 10.8376L1.78405 22.4057L5.05328 23.6631L13.3521 7.56839L10.3343 18.1305Z" fill="#635BFF"/>
<path d="M38.7515 14.8613L37.9971 28.1897L44.787 23.6631L38.7515 14.8613ZM38.7515 14.8613L20.8965 12.598M38.7515 14.8613L38.3743 21.5255L33.9734 28.1897V19.3879L26.932 29.1956L23.6628 18.6335L20.3935 33.4708L22.1539 43.027L8.32252 31.9619L10.3343 18.1305M10.3343 18.1305L20.8965 12.598M10.3343 18.1305L13.3521 7.56839L5.05328 23.6631L1.78405 22.4057L0.526657 10.8376L13.3521 0.52697L28.4409 2.79028L30.4527 9.07727L20.8965 12.598" stroke="black"/>
</svg>
