<svg width="150" height="38" viewBox="0 0 150 38" fill="none" xmlns="http://www.w3.org/2000/svg">
<g filter="url(#filter0_d_7_121)">
<mask id="path-1-outside-1_7_121" maskUnits="userSpaceOnUse" x="3.68" y="2" width="143" height="30" fill="black">
<rect fill="white" x="3.68" y="2" width="143" height="30"/>
<path d="M5 3H20.8L24.36 8.36V15.44L20.72 19.16H9.84V31H5V3ZM9.84 7.52V16.04L12.08 14.72H18.76L19.52 13.96V9.28L18.36 7.52H9.84ZM36.7844 3H47.4644V31H42.6244V19.04H34.6244V31H29.8644V10.16L36.7844 3ZM34.6244 11.56V14.52H42.6244V7.52H38.5444L34.6244 11.56ZM67.4888 3H72.3288V31H67.4888V29.64L65.2888 31H56.6088L52.9688 25.64V3H57.8088V24.72L58.9688 26.48H66.6888L67.4888 25.68V3ZM80.7531 3H92.8731L95.6331 7.16L92.3531 10.36L90.4331 7.52H82.6331L81.9131 8.28V12.96L83.1131 14.72H93.2331L96.4331 19.56V27.6L93.1531 31H79.1931L76.8331 27.64L79.9931 24.36L81.5531 26.48H91.1531L91.5931 26.12V20.36L90.7931 19.24H80.6731L77.0731 13.88V6.84L80.7531 3ZM104.258 3H119.858V7.52H106.098L105.378 8.32V14.6H114.618V19.12H105.378V24.72L106.538 26.48H119.858V31H104.138L100.538 25.64V6.8L104.258 3ZM125.322 3H138.922L144.682 11.6V27.2L141.042 31H125.322V3ZM130.162 7.52V26.52H139.042L139.842 25.72V12.52L136.442 7.52H130.162Z"/>
</mask>
<path d="M5 3H20.8L24.36 8.36V15.44L20.72 19.16H9.84V31H5V3ZM9.84 7.52V16.04L12.08 14.72H18.76L19.52 13.96V9.28L18.36 7.52H9.84ZM36.7844 3H47.4644V31H42.6244V19.04H34.6244V31H29.8644V10.16L36.7844 3ZM34.6244 11.56V14.52H42.6244V7.52H38.5444L34.6244 11.56ZM67.4888 3H72.3288V31H67.4888V29.64L65.2888 31H56.6088L52.9688 25.64V3H57.8088V24.72L58.9688 26.48H66.6888L67.4888 25.68V3ZM80.7531 3H92.8731L95.6331 7.16L92.3531 10.36L90.4331 7.52H82.6331L81.9131 8.28V12.96L83.1131 14.72H93.2331L96.4331 19.56V27.6L93.1531 31H79.1931L76.8331 27.64L79.9931 24.36L81.5531 26.48H91.1531L91.5931 26.12V20.36L90.7931 19.24H80.6731L77.0731 13.88V6.84L80.7531 3ZM104.258 3H119.858V7.52H106.098L105.378 8.32V14.6H114.618V19.12H105.378V24.72L106.538 26.48H119.858V31H104.138L100.538 25.64V6.8L104.258 3ZM125.322 3H138.922L144.682 11.6V27.2L141.042 31H125.322V3ZM130.162 7.52V26.52H139.042L139.842 25.72V12.52L136.442 7.52H130.162Z" fill="url(#paint0_linear_7_121)"/>
<path d="M5 3V2H4V3H5ZM20.8 3L21.633 2.44673L21.3363 2H20.8V3ZM24.36 8.36H25.36V8.05816L25.193 7.80673L24.36 8.36ZM24.36 15.44L25.0748 16.1394L25.36 15.8479V15.44H24.36ZM20.72 19.16V20.16H21.1406L21.4348 19.8594L20.72 19.16ZM9.84 19.16V18.16H8.84V19.16H9.84ZM9.84 31V32H10.84V31H9.84ZM5 31H4V32H5V31ZM9.84 7.52V6.52H8.84V7.52H9.84ZM9.84 16.04H8.84V17.79L10.3477 16.9015L9.84 16.04ZM12.08 14.72V13.72H11.8073L11.5723 13.8585L12.08 14.72ZM18.76 14.72V15.72H19.1742L19.4671 15.4271L18.76 14.72ZM19.52 13.96L20.2271 14.6671L20.52 14.3742V13.96H19.52ZM19.52 9.28H20.52V8.98009L20.355 8.72968L19.52 9.28ZM18.36 7.52L19.195 6.96969L18.8986 6.52H18.36V7.52ZM5 3V4H20.8V3V2H5V3ZM20.8 3L19.967 3.55326L23.527 8.91326L24.36 8.36L25.193 7.80673L21.633 2.44673L20.8 3ZM24.36 8.36H23.36V15.44H24.36H25.36V8.36H24.36ZM24.36 15.44L23.6453 14.7406L20.0053 18.4606L20.72 19.16L21.4348 19.8594L25.0748 16.1394L24.36 15.44ZM20.72 19.16V18.16H9.84V19.16V20.16H20.72V19.16ZM9.84 19.16H8.84V31H9.84H10.84V19.16H9.84ZM9.84 31V30H5V31V32H9.84V31ZM5 31H6V3H5H4V31H5ZM9.84 7.52H8.84V16.04H9.84H10.84V7.52H9.84ZM9.84 16.04L10.3477 16.9015L12.5877 15.5815L12.08 14.72L11.5723 13.8585L9.33231 15.1785L9.84 16.04ZM12.08 14.72V15.72H18.76V14.72V13.72H12.08V14.72ZM18.76 14.72L19.4671 15.4271L20.2271 14.6671L19.52 13.96L18.8129 13.2529L18.0529 14.0129L18.76 14.72ZM19.52 13.96H20.52V9.28H19.52H18.52V13.96H19.52ZM19.52 9.28L20.355 8.72968L19.195 6.96969L18.36 7.52L17.525 8.07031L18.685 9.83031L19.52 9.28ZM18.36 7.52V6.52H9.84V7.52V8.52H18.36V7.52ZM36.7844 3V2H36.3601L36.0653 2.30505L36.7844 3ZM47.4644 3H48.4644V2H47.4644V3ZM47.4644 31V32H48.4644V31H47.4644ZM42.6244 31H41.6244V32H42.6244V31ZM42.6244 19.04H43.6244V18.04H42.6244V19.04ZM34.6244 19.04V18.04H33.6244V19.04H34.6244ZM34.6244 31V32H35.6244V31H34.6244ZM29.8644 31H28.8644V32H29.8644V31ZM29.8644 10.16L29.1453 9.46505L28.8644 9.75574V10.16H29.8644ZM34.6244 11.56L33.9067 10.8636L33.6244 11.1546V11.56H34.6244ZM34.6244 14.52H33.6244V15.52H34.6244V14.52ZM42.6244 14.52V15.52H43.6244V14.52H42.6244ZM42.6244 7.52H43.6244V6.52H42.6244V7.52ZM38.5444 7.52V6.52H38.1213L37.8267 6.82363L38.5444 7.52ZM36.7844 3V4H47.4644V3V2H36.7844V3ZM47.4644 3H46.4644V31H47.4644H48.4644V3H47.4644ZM47.4644 31V30H42.6244V31V32H47.4644V31ZM42.6244 31H43.6244V19.04H42.6244H41.6244V31H42.6244ZM42.6244 19.04V18.04H34.6244V19.04V20.04H42.6244V19.04ZM34.6244 19.04H33.6244V31H34.6244H35.6244V19.04H34.6244ZM34.6244 31V30H29.8644V31V32H34.6244V31ZM29.8644 31H30.8644V10.16H29.8644H28.8644V31H29.8644ZM29.8644 10.16L30.5834 10.855L37.5034 3.69495L36.7844 3L36.0653 2.30505L29.1453 9.46505L29.8644 10.16ZM34.6244 11.56H33.6244V14.52H34.6244H35.6244V11.56H34.6244ZM34.6244 14.52V15.52H42.6244V14.52V13.52H34.6244V14.52ZM42.6244 14.52H43.6244V7.52H42.6244H41.6244V14.52H42.6244ZM42.6244 7.52V6.52H38.5444V7.52V8.52H42.6244V7.52ZM38.5444 7.52L37.8267 6.82363L33.9067 10.8636L34.6244 11.56L35.3421 12.2564L39.2621 8.21637L38.5444 7.52ZM67.4888 3V2H66.4888V3H67.4888ZM72.3288 3H73.3288V2H72.3288V3ZM72.3288 31V32H73.3288V31H72.3288ZM67.4888 31H66.4888V32H67.4888V31ZM67.4888 29.64H68.4888V27.8462L66.9629 28.7894L67.4888 29.64ZM65.2887 31V32H65.5729L65.8146 31.8506L65.2887 31ZM56.6087 31L55.7815 31.5618L56.0791 32H56.6087V31ZM52.9688 25.64H51.9688V25.9475L52.1415 26.2018L52.9688 25.64ZM52.9688 3V2H51.9688V3H52.9688ZM57.8088 3H58.8088V2H57.8088V3ZM57.8088 24.72H56.8088V25.0199L56.9738 25.2703L57.8088 24.72ZM58.9688 26.48L58.1338 27.0303L58.4302 27.48H58.9688V26.48ZM66.6888 26.48V27.48H67.103L67.3959 27.1871L66.6888 26.48ZM67.4888 25.68L68.1959 26.3871L68.4888 26.0942V25.68H67.4888ZM67.4888 3V4H72.3288V3V2H67.4888V3ZM72.3288 3H71.3288V31H72.3288H73.3288V3H72.3288ZM72.3288 31V30H67.4888V31V32H72.3288V31ZM67.4888 31H68.4888V29.64H67.4888H66.4888V31H67.4888ZM67.4888 29.64L66.9629 28.7894L64.7629 30.1494L65.2887 31L65.8146 31.8506L68.0146 30.4906L67.4888 29.64ZM65.2887 31V30H56.6087V31V32H65.2887V31ZM56.6087 31L57.436 30.4382L53.796 25.0782L52.9688 25.64L52.1415 26.2018L55.7815 31.5618L56.6087 31ZM52.9688 25.64H53.9688V3H52.9688H51.9688V25.64H52.9688ZM52.9688 3V4H57.8088V3V2H52.9688V3ZM57.8088 3H56.8088V24.72H57.8088H58.8088V3H57.8088ZM57.8088 24.72L56.9738 25.2703L58.1338 27.0303L58.9688 26.48L59.8037 25.9297L58.6437 24.1697L57.8088 24.72ZM58.9688 26.48V27.48H66.6888V26.48V25.48H58.9688V26.48ZM66.6888 26.48L67.3959 27.1871L68.1959 26.3871L67.4888 25.68L66.7816 24.9729L65.9816 25.7729L66.6888 26.48ZM67.4888 25.68H68.4888V3H67.4888H66.4888V25.68H67.4888ZM80.7531 3V2H80.3264L80.0311 2.30809L80.7531 3ZM92.8731 3L93.7064 2.44715L93.4097 2H92.8731V3ZM95.6331 7.16L96.3315 7.87578L96.9243 7.29736L96.4664 6.60715L95.6331 7.16ZM92.3531 10.36L91.5247 10.9201L92.1949 11.9114L93.0514 11.0758L92.3531 10.36ZM90.4331 7.52L91.2616 6.95992L90.9641 6.52H90.4331V7.52ZM82.6331 7.52V6.52H82.203L81.9072 6.83225L82.6331 7.52ZM81.9131 8.28L81.1872 7.59225L80.9131 7.88153V8.28H81.9131ZM81.9131 12.96H80.9131V13.2685L81.0869 13.5233L81.9131 12.96ZM83.1131 14.72L82.2869 15.2833L82.5846 15.72H83.1131V14.72ZM93.2331 14.72L94.0673 14.1685L93.7708 13.72H93.2331V14.72ZM96.4331 19.56H97.4331V19.2593L97.2673 19.0085L96.4331 19.56ZM96.4331 27.6L97.1528 28.2943L97.4331 28.0037V27.6H96.4331ZM93.1531 31V32H93.5779L93.8728 31.6943L93.1531 31ZM79.1931 31L78.3748 31.5748L78.6735 32H79.1931V31ZM76.8331 27.64L76.113 26.9462L75.5409 27.54L76.0148 28.2148L76.8331 27.64ZM79.9931 24.36L80.7986 23.7673L80.0957 22.8122L79.273 23.6662L79.9931 24.36ZM81.5531 26.48L80.7477 27.0727L81.0474 27.48H81.5531V26.48ZM91.1531 26.48V27.48H91.5101L91.7864 27.254L91.1531 26.48ZM91.5931 26.12L92.2264 26.894L92.5931 26.5939V26.12H91.5931ZM91.5931 20.36H92.5931V20.0395L92.4069 19.7788L91.5931 20.36ZM90.7931 19.24L91.6069 18.6588L91.3077 18.24H90.7931V19.24ZM80.6731 19.24L79.843 19.7976L80.1402 20.24H80.6731V19.24ZM77.0731 13.88H76.0731V14.1847L76.243 14.4376L77.0731 13.88ZM77.0731 6.84L76.3511 6.14809L76.0731 6.43819V6.84H77.0731ZM80.7531 3V4H92.8731V3V2H80.7531V3ZM92.8731 3L92.0398 3.55285L94.7998 7.71285L95.6331 7.16L96.4664 6.60715L93.7064 2.44715L92.8731 3ZM95.6331 7.16L94.9348 6.44422L91.6548 9.64422L92.3531 10.36L93.0514 11.0758L96.3315 7.87578L95.6331 7.16ZM92.3531 10.36L93.1816 9.79992L91.2616 6.95992L90.4331 7.52L89.6047 8.08007L91.5247 10.9201L92.3531 10.36ZM90.4331 7.52V6.52H82.6331V7.52V8.52H90.4331V7.52ZM82.6331 7.52L81.9072 6.83225L81.1872 7.59225L81.9131 8.28L82.6391 8.96774L83.3591 8.20774L82.6331 7.52ZM81.9131 8.28H80.9131V12.96H81.9131H82.9131V8.28H81.9131ZM81.9131 12.96L81.0869 13.5233L82.2869 15.2833L83.1131 14.72L83.9394 14.1567L82.7394 12.3967L81.9131 12.96ZM83.1131 14.72V15.72H93.2331V14.72V13.72H83.1131V14.72ZM93.2331 14.72L92.399 15.2715L95.599 20.1115L96.4331 19.56L97.2673 19.0085L94.0673 14.1685L93.2331 14.72ZM96.4331 19.56H95.4331V27.6H96.4331H97.4331V19.56H96.4331ZM96.4331 27.6L95.7134 26.9057L92.4334 30.3057L93.1531 31L93.8728 31.6943L97.1528 28.2943L96.4331 27.6ZM93.1531 31V30H79.1931V31V32H93.1531V31ZM79.1931 31L80.0114 30.4252L77.6514 27.0652L76.8331 27.64L76.0148 28.2148L78.3748 31.5748L79.1931 31ZM76.8331 27.64L77.5533 28.3338L80.7133 25.0538L79.9931 24.36L79.273 23.6662L76.113 26.9462L76.8331 27.64ZM79.9931 24.36L79.1877 24.9527L80.7477 27.0727L81.5531 26.48L82.3586 25.8873L80.7986 23.7673L79.9931 24.36ZM81.5531 26.48V27.48H91.1531V26.48V25.48H81.5531V26.48ZM91.1531 26.48L91.7864 27.254L92.2264 26.894L91.5931 26.12L90.9599 25.346L90.5199 25.706L91.1531 26.48ZM91.5931 26.12H92.5931V20.36H91.5931H90.5931V26.12H91.5931ZM91.5931 20.36L92.4069 19.7788L91.6069 18.6588L90.7931 19.24L89.9794 19.8212L90.7794 20.9412L91.5931 20.36ZM90.7931 19.24V18.24H80.6731V19.24V20.24H90.7931V19.24ZM80.6731 19.24L81.5033 18.6824L77.9033 13.3224L77.0731 13.88L76.243 14.4376L79.843 19.7976L80.6731 19.24ZM77.0731 13.88H78.0731V6.84H77.0731H76.0731V13.88H77.0731ZM77.0731 6.84L77.7951 7.5319L81.4751 3.6919L80.7531 3L80.0311 2.30809L76.3511 6.14809L77.0731 6.84ZM104.257 3V2H103.837L103.543 2.30045L104.257 3ZM119.858 3H120.858V2H119.858V3ZM119.858 7.52V8.52H120.858V7.52H119.858ZM106.098 7.52V6.52H105.652L105.354 6.85103L106.098 7.52ZM105.378 8.32L104.634 7.65103L104.378 7.93626V8.32H105.378ZM105.378 14.6H104.378V15.6H105.378V14.6ZM114.618 14.6H115.618V13.6H114.618V14.6ZM114.618 19.12V20.12H115.618V19.12H114.618ZM105.378 19.12V18.12H104.378V19.12H105.378ZM105.378 24.72H104.378V25.0199L104.543 25.2703L105.378 24.72ZM106.537 26.48L105.703 27.0303L105.999 27.48H106.537V26.48ZM119.858 26.48H120.858V25.48H119.858V26.48ZM119.858 31V32H120.858V31H119.858ZM104.138 31L103.307 31.5576L103.605 32H104.138V31ZM100.537 25.64H99.5375V25.9447L99.7074 26.1976L100.537 25.64ZM100.537 6.8L99.8229 6.10045L99.5375 6.392V6.8H100.537ZM104.257 3V4H119.858V3V2H104.257V3ZM119.858 3H118.858V7.52H119.858H120.858V3H119.858ZM119.858 7.52V6.52H106.098V7.52V8.52H119.858V7.52ZM106.098 7.52L105.354 6.85103L104.634 7.65103L105.378 8.32L106.121 8.98896L106.841 8.18896L106.098 7.52ZM105.378 8.32H104.378V14.6H105.378H106.378V8.32H105.378ZM105.378 14.6V15.6H114.618V14.6V13.6H105.378V14.6ZM114.618 14.6H113.618V19.12H114.618H115.618V14.6H114.618ZM114.618 19.12V18.12H105.378V19.12V20.12H114.618V19.12ZM105.378 19.12H104.378V24.72H105.378H106.378V19.12H105.378ZM105.378 24.72L104.543 25.2703L105.703 27.0303L106.537 26.48L107.372 25.9297L106.212 24.1697L105.378 24.72ZM106.537 26.48V27.48H119.858V26.48V25.48H106.537V26.48ZM119.858 26.48H118.858V31H119.858H120.858V26.48H119.858ZM119.858 31V30H104.138V31V32H119.858V31ZM104.138 31L104.968 30.4424L101.368 25.0824L100.537 25.64L99.7074 26.1976L103.307 31.5576L104.138 31ZM100.537 25.64H101.537V6.8H100.537H99.5375V25.64H100.537ZM100.537 6.8L101.252 7.49954L104.972 3.69954L104.257 3L103.543 2.30045L99.8229 6.10045L100.537 6.8ZM125.322 3V2H124.322V3H125.322ZM138.922 3L139.753 2.44352L139.456 2H138.922V3ZM144.682 11.6H145.682V11.2961L145.513 11.0435L144.682 11.6ZM144.682 27.2L145.404 27.8917L145.682 27.6017V27.2H144.682ZM141.042 31V32H141.469L141.764 31.6917L141.042 31ZM125.322 31H124.322V32H125.322V31ZM130.162 7.52V6.52H129.162V7.52H130.162ZM130.162 26.52H129.162V27.52H130.162V26.52ZM139.042 26.52V27.52H139.456L139.749 27.2271L139.042 26.52ZM139.842 25.72L140.549 26.4271L140.842 26.1342V25.72H139.842ZM139.842 12.52H140.842V12.2122L140.669 11.9577L139.842 12.52ZM136.442 7.52L137.269 6.95769L136.971 6.52H136.442V7.52ZM125.322 3V4H138.922V3V2H125.322V3ZM138.922 3L138.091 3.55648L143.851 12.1565L144.682 11.6L145.513 11.0435L139.753 2.44352L138.922 3ZM144.682 11.6H143.682V27.2H144.682H145.682V11.6H144.682ZM144.682 27.2L143.96 26.5083L140.32 30.3083L141.042 31L141.764 31.6917L145.404 27.8917L144.682 27.2ZM141.042 31V30H125.322V31V32H141.042V31ZM125.322 31H126.322V3H125.322H124.322V31H125.322ZM130.162 7.52H129.162V26.52H130.162H131.162V7.52H130.162ZM130.162 26.52V27.52H139.042V26.52V25.52H130.162V26.52ZM139.042 26.52L139.749 27.2271L140.549 26.4271L139.842 25.72L139.135 25.0129L138.335 25.8129L139.042 26.52ZM139.842 25.72H140.842V12.52H139.842H138.842V25.72H139.842ZM139.842 12.52L140.669 11.9577L137.269 6.95769L136.442 7.52L135.615 8.08231L139.015 13.0823L139.842 12.52ZM136.442 7.52V6.52H130.162V7.52V8.52H136.442V7.52Z" fill="white" mask="url(#path-1-outside-1_7_121)"/>
</g>
<defs>
<filter id="filter0_d_7_121" x="0" y="0" width="149.682" height="38" filterUnits="userSpaceOnUse" color-interpolation-filters="sRGB">
<feFlood flood-opacity="0" result="BackgroundImageFix"/>
<feColorMatrix in="SourceAlpha" type="matrix" values="0 0 0 0 0 0 0 0 0 0 0 0 0 0 0 0 0 0 127 0" result="hardAlpha"/>
<feOffset dy="2"/>
<feGaussianBlur stdDeviation="2"/>
<feComposite in2="hardAlpha" operator="out"/>
<feColorMatrix type="matrix" values="0 0 0 0 0 0 0 0 0 0 0 0 0 0 0 0 0 0 0.56 0"/>
<feBlend mode="normal" in2="BackgroundImageFix" result="effect1_dropShadow_7_121"/>
<feBlend mode="normal" in="SourceGraphic" in2="effect1_dropShadow_7_121" result="shape"/>
</filter>
<linearGradient id="paint0_linear_7_121" x1="74.68" y1="-8" x2="74.68" y2="43" gradientUnits="userSpaceOnUse">
<stop offset="0.307692" stop-color="#00179A"/>
<stop offset="1" stop-color="#FFAE00"/>
</linearGradient>
</defs>
</svg>
