<svg width="102" height="38" viewBox="0 0 102 38" fill="none" xmlns="http://www.w3.org/2000/svg">
<g filter="url(#filter0_d_14_271)">
<mask id="path-1-outside-1_14_271" maskUnits="userSpaceOnUse" x="3.67999" y="2" width="94" height="30" fill="black">
<rect fill="white" x="3.67999" y="2" width="94" height="30"/>
<path d="M4.99999 3H20.8L24.36 8.36V15.44L20.72 19.16H9.83999V31H4.99999V3ZM9.83999 7.52V16.04L12.08 14.72H18.76L19.52 13.96V9.28L18.36 7.52H9.83999ZM28.9844 3H33.8244V24.68L35.0644 26.48H43.5044V23.56H48.3444V31H32.6244L28.9844 25.48V3ZM60.7687 3H71.4487V31H66.6087V19.04H58.6087V31H53.8487V10.16L60.7687 3ZM58.6087 11.56V14.52H66.6087V7.52H62.5287L58.6087 11.56ZM91.4331 3H96.2731V10.72L89.0331 18.2V31H84.1931V18.48L76.9531 7.72V3H81.7931V6.92L86.6331 14.12H86.7131L91.4331 9.2V3Z"/>
</mask>
<path d="M4.99999 3H20.8L24.36 8.36V15.44L20.72 19.16H9.83999V31H4.99999V3ZM9.83999 7.52V16.04L12.08 14.72H18.76L19.52 13.96V9.28L18.36 7.52H9.83999ZM28.9844 3H33.8244V24.68L35.0644 26.48H43.5044V23.56H48.3444V31H32.6244L28.9844 25.48V3ZM60.7687 3H71.4487V31H66.6087V19.04H58.6087V31H53.8487V10.16L60.7687 3ZM58.6087 11.56V14.52H66.6087V7.52H62.5287L58.6087 11.56ZM91.4331 3H96.2731V10.72L89.0331 18.2V31H84.1931V18.48L76.9531 7.72V3H81.7931V6.92L86.6331 14.12H86.7131L91.4331 9.2V3Z" fill="#213084"/>
<path d="M4.99999 3V2H3.99999V3H4.99999ZM20.8 3L21.633 2.44673L21.3363 2H20.8V3ZM24.36 8.36H25.36V8.05816L25.193 7.80673L24.36 8.36ZM24.36 15.44L25.0747 16.1394L25.36 15.8479V15.44H24.36ZM20.72 19.16V20.16H21.1406L21.4347 19.8594L20.72 19.16ZM9.83999 19.16V18.16H8.83999V19.16H9.83999ZM9.83999 31V32H10.84V31H9.83999ZM4.99999 31H3.99999V32H4.99999V31ZM9.83999 7.52V6.52H8.83999V7.52H9.83999ZM9.83999 16.04H8.83999V17.79L10.3477 16.9015L9.83999 16.04ZM12.08 14.72V13.72H11.8073L11.5723 13.8585L12.08 14.72ZM18.76 14.72V15.72H19.1742L19.4671 15.4271L18.76 14.72ZM19.52 13.96L20.2271 14.6671L20.52 14.3742V13.96H19.52ZM19.52 9.28H20.52V8.98009L20.355 8.72968L19.52 9.28ZM18.36 7.52L19.195 6.96969L18.8986 6.52H18.36V7.52ZM4.99999 3V4H20.8V3V2H4.99999V3ZM20.8 3L19.967 3.55326L23.527 8.91326L24.36 8.36L25.193 7.80673L21.633 2.44673L20.8 3ZM24.36 8.36H23.36V15.44H24.36H25.36V8.36H24.36ZM24.36 15.44L23.6452 14.7406L20.0052 18.4606L20.72 19.16L21.4347 19.8594L25.0747 16.1394L24.36 15.44ZM20.72 19.16V18.16H9.83999V19.16V20.16H20.72V19.16ZM9.83999 19.16H8.83999V31H9.83999H10.84V19.16H9.83999ZM9.83999 31V30H4.99999V31V32H9.83999V31ZM4.99999 31H5.99999V3H4.99999H3.99999V31H4.99999ZM9.83999 7.52H8.83999V16.04H9.83999H10.84V7.52H9.83999ZM9.83999 16.04L10.3477 16.9015L12.5877 15.5815L12.08 14.72L11.5723 13.8585L9.3323 15.1785L9.83999 16.04ZM12.08 14.72V15.72H18.76V14.72V13.72H12.08V14.72ZM18.76 14.72L19.4671 15.4271L20.2271 14.6671L19.52 13.96L18.8129 13.2529L18.0529 14.0129L18.76 14.72ZM19.52 13.96H20.52V9.28H19.52H18.52V13.96H19.52ZM19.52 9.28L20.355 8.72968L19.195 6.96969L18.36 7.52L17.525 8.07031L18.685 9.83031L19.52 9.28ZM18.36 7.52V6.52H9.83999V7.52V8.52H18.36V7.52ZM28.9844 3V2H27.9844V3H28.9844ZM33.8244 3H34.8244V2H33.8244V3ZM33.8244 24.68H32.8244V24.9911L33.0009 25.2473L33.8244 24.68ZM35.0644 26.48L34.2409 27.0473L34.5389 27.48H35.0644V26.48ZM43.5044 26.48V27.48H44.5044V26.48H43.5044ZM43.5044 23.56V22.56H42.5044V23.56H43.5044ZM48.3444 23.56H49.3444V22.56H48.3444V23.56ZM48.3444 31V32H49.3444V31H48.3444ZM32.6244 31L31.7895 31.5505L32.0859 32H32.6244V31ZM28.9844 25.48H27.9844V25.78L28.1495 26.0305L28.9844 25.48ZM28.9844 3V4H33.8244V3V2H28.9844V3ZM33.8244 3H32.8244V24.68H33.8244H34.8244V3H33.8244ZM33.8244 24.68L33.0009 25.2473L34.2409 27.0473L35.0644 26.48L35.8879 25.9127L34.6479 24.1127L33.8244 24.68ZM35.0644 26.48V27.48H43.5044V26.48V25.48H35.0644V26.48ZM43.5044 26.48H44.5044V23.56H43.5044H42.5044V26.48H43.5044ZM43.5044 23.56V24.56H48.3444V23.56V22.56H43.5044V23.56ZM48.3444 23.56H47.3444V31H48.3444H49.3444V23.56H48.3444ZM48.3444 31V30H32.6244V31V32H48.3444V31ZM32.6244 31L33.4592 30.4495L29.8192 24.9295L28.9844 25.48L28.1495 26.0305L31.7895 31.5505L32.6244 31ZM28.9844 25.48H29.9844V3H28.9844H27.9844V25.48H28.9844ZM60.7687 3V2H60.3445L60.0497 2.30505L60.7687 3ZM71.4487 3H72.4487V2H71.4487V3ZM71.4487 31V32H72.4487V31H71.4487ZM66.6087 31H65.6087V32H66.6087V31ZM66.6087 19.04H67.6087V18.04H66.6087V19.04ZM58.6087 19.04V18.04H57.6087V19.04H58.6087ZM58.6087 31V32H59.6087V31H58.6087ZM53.8487 31H52.8487V32H53.8487V31ZM53.8487 10.16L53.1297 9.46505L52.8487 9.75574V10.16H53.8487ZM58.6087 11.56L57.8911 10.8636L57.6087 11.1546V11.56H58.6087ZM58.6087 14.52H57.6087V15.52H58.6087V14.52ZM66.6087 14.52V15.52H67.6087V14.52H66.6087ZM66.6087 7.52H67.6087V6.52H66.6087V7.52ZM62.5287 7.52V6.52H62.1057L61.8111 6.82363L62.5287 7.52ZM60.7687 3V4H71.4487V3V2H60.7687V3ZM71.4487 3H70.4487V31H71.4487H72.4487V3H71.4487ZM71.4487 31V30H66.6087V31V32H71.4487V31ZM66.6087 31H67.6087V19.04H66.6087H65.6087V31H66.6087ZM66.6087 19.04V18.04H58.6087V19.04V20.04H66.6087V19.04ZM58.6087 19.04H57.6087V31H58.6087H59.6087V19.04H58.6087ZM58.6087 31V30H53.8487V31V32H58.6087V31ZM53.8487 31H54.8487V10.16H53.8487H52.8487V31H53.8487ZM53.8487 10.16L54.5678 10.855L61.4878 3.69495L60.7687 3L60.0497 2.30505L53.1297 9.46505L53.8487 10.16ZM58.6087 11.56H57.6087V14.52H58.6087H59.6087V11.56H58.6087ZM58.6087 14.52V15.52H66.6087V14.52V13.52H58.6087V14.52ZM66.6087 14.52H67.6087V7.52H66.6087H65.6087V14.52H66.6087ZM66.6087 7.52V6.52H62.5287V7.52V8.52H66.6087V7.52ZM62.5287 7.52L61.8111 6.82363L57.8911 10.8636L58.6087 11.56L59.3264 12.2564L63.2464 8.21637L62.5287 7.52ZM91.4331 3V2H90.4331V3H91.4331ZM96.2731 3H97.2731V2H96.2731V3ZM96.2731 10.72L96.9917 11.4155L97.2731 11.1247V10.72H96.2731ZM89.0331 18.2L88.3146 17.5045L88.0331 17.7953V18.2H89.0331ZM89.0331 31V32H90.0331V31H89.0331ZM84.1931 31H83.1931V32H84.1931V31ZM84.1931 18.48H85.1931V18.1749L85.0228 17.9217L84.1931 18.48ZM76.9531 7.72H75.9531V8.02511L76.1235 8.27825L76.9531 7.72ZM76.9531 3V2H75.9531V3H76.9531ZM81.7931 3H82.7931V2H81.7931V3ZM81.7931 6.92H80.7931V7.22487L80.9632 7.47789L81.7931 6.92ZM86.6331 14.12L85.8032 14.6779L86.1004 15.12H86.6331V14.12ZM86.7131 14.12V15.12H87.1395L87.4347 14.8123L86.7131 14.12ZM91.4331 9.2L92.1547 9.89229L92.4331 9.60211V9.2H91.4331ZM91.4331 3V4H96.2731V3V2H91.4331V3ZM96.2731 3H95.2731V10.72H96.2731H97.2731V3H96.2731ZM96.2731 10.72L95.5546 10.0245L88.3146 17.5045L89.0331 18.2L89.7517 18.8955L96.9917 11.4155L96.2731 10.72ZM89.0331 18.2H88.0331V31H89.0331H90.0331V18.2H89.0331ZM89.0331 31V30H84.1931V31V32H89.0331V31ZM84.1931 31H85.1931V18.48H84.1931H83.1931V31H84.1931ZM84.1931 18.48L85.0228 17.9217L77.7828 7.16175L76.9531 7.72L76.1235 8.27825L83.3634 19.0383L84.1931 18.48ZM76.9531 7.72H77.9531V3H76.9531H75.9531V7.72H76.9531ZM76.9531 3V4H81.7931V3V2H76.9531V3ZM81.7931 3H80.7931V6.92H81.7931H82.7931V3H81.7931ZM81.7931 6.92L80.9632 7.47789L85.8032 14.6779L86.6331 14.12L87.463 13.5621L82.623 6.36211L81.7931 6.92ZM86.6331 14.12V15.12H86.7131V14.12V13.12H86.6331V14.12ZM86.7131 14.12L87.4347 14.8123L92.1547 9.89229L91.4331 9.2L90.7115 8.50771L85.9915 13.4277L86.7131 14.12ZM91.4331 9.2H92.4331V3H91.4331H90.4331V9.2H91.4331Z" fill="white" mask="url(#path-1-outside-1_14_271)"/>
</g>
<defs>
<filter id="filter0_d_14_271" x="0" y="0" width="101.273" height="38" filterUnits="userSpaceOnUse" color-interpolation-filters="sRGB">
<feFlood flood-opacity="0" result="BackgroundImageFix"/>
<feColorMatrix in="SourceAlpha" type="matrix" values="0 0 0 0 0 0 0 0 0 0 0 0 0 0 0 0 0 0 127 0" result="hardAlpha"/>
<feOffset dy="2"/>
<feGaussianBlur stdDeviation="2"/>
<feComposite in2="hardAlpha" operator="out"/>
<feColorMatrix type="matrix" values="0 0 0 0 0 0 0 0 0 0 0 0 0 0 0 0 0 0 0.5 0"/>
<feBlend mode="normal" in2="BackgroundImageFix" result="effect1_dropShadow_14_271"/>
<feBlend mode="normal" in="SourceGraphic" in2="effect1_dropShadow_14_271" result="shape"/>
</filter>
</defs>
</svg>
