<svg width="175" height="38" viewBox="0 0 175 38" fill="none" xmlns="http://www.w3.org/2000/svg">
<g filter="url(#filter0_d_7_116)">
<mask id="path-1-outside-1_7_116" maskUnits="userSpaceOnUse" x="3.68" y="2" width="167" height="30" fill="black">
<rect fill="white" x="3.68" y="2" width="167" height="30"/>
<path d="M5 3H19.68L24.36 9.84V14.52L20.68 18.32L24.36 23.72V31H19.52V24.56L15.88 19.24H11.96L9.84 17.92V31H5V3ZM9.84 7.52V14.72H17.96L19.52 13.12V10.8L17.24 7.52H9.84ZM32.3044 3H47.9044V7.52H34.1444L33.4244 8.32V14.6H42.6644V19.12H33.4244V24.72L34.5844 26.48H47.9044V31H32.1844L28.5844 25.64V6.8L32.3044 3ZM56.7688 3H68.8888L71.6488 7.16L68.3688 10.36L66.4488 7.52H58.6488L57.9288 8.28V12.96L59.1288 14.72H69.2488L72.4488 19.56V27.6L69.1688 31H55.2088L52.8488 27.64L56.0088 24.36L57.5688 26.48H67.1688L67.6088 26.12V20.36L66.8088 19.24H56.6888L53.0888 13.88V6.84L56.7688 3ZM76.1931 3H97.0731V7.52H86.4331L89.0731 9.88V31H84.2331V11L83.0731 7.52H76.1931V3ZM108.738 3H119.418V31H114.578V19.04H106.578V31H101.818V10.16L108.738 3ZM106.578 11.56V14.52H114.578V7.52H110.498L106.578 11.56ZM124.922 3H139.602L144.282 9.84V14.52L140.602 18.32L144.282 23.72V31H139.442V24.56L135.802 19.24H131.882L129.762 17.92V31H124.922V3ZM129.762 7.52V14.72H137.882L139.442 13.12V10.8L137.162 7.52H129.762ZM148.146 3H169.026V7.52H158.386L161.026 9.88V31H156.186V11L155.026 7.52H148.146V3Z"/>
</mask>
<path d="M5 3H19.68L24.36 9.84V14.52L20.68 18.32L24.36 23.72V31H19.52V24.56L15.88 19.24H11.96L9.84 17.92V31H5V3ZM9.84 7.52V14.72H17.96L19.52 13.12V10.8L17.24 7.52H9.84ZM32.3044 3H47.9044V7.52H34.1444L33.4244 8.32V14.6H42.6644V19.12H33.4244V24.72L34.5844 26.48H47.9044V31H32.1844L28.5844 25.64V6.8L32.3044 3ZM56.7688 3H68.8888L71.6488 7.16L68.3688 10.36L66.4488 7.52H58.6488L57.9288 8.28V12.96L59.1288 14.72H69.2488L72.4488 19.56V27.6L69.1688 31H55.2088L52.8488 27.64L56.0088 24.36L57.5688 26.48H67.1688L67.6088 26.12V20.36L66.8088 19.24H56.6888L53.0888 13.88V6.84L56.7688 3ZM76.1931 3H97.0731V7.52H86.4331L89.0731 9.88V31H84.2331V11L83.0731 7.52H76.1931V3ZM108.738 3H119.418V31H114.578V19.04H106.578V31H101.818V10.16L108.738 3ZM106.578 11.56V14.52H114.578V7.52H110.498L106.578 11.56ZM124.922 3H139.602L144.282 9.84V14.52L140.602 18.32L144.282 23.72V31H139.442V24.56L135.802 19.24H131.882L129.762 17.92V31H124.922V3ZM129.762 7.52V14.72H137.882L139.442 13.12V10.8L137.162 7.52H129.762ZM148.146 3H169.026V7.52H158.386L161.026 9.88V31H156.186V11L155.026 7.52H148.146V3Z" fill="#213084"/>
<path d="M5 3V2H4V3H5ZM19.68 3L20.5053 2.43531L20.2075 2H19.68V3ZM24.36 9.84H25.36V9.53063L25.1853 9.27531L24.36 9.84ZM24.36 14.52L25.0784 15.2157L25.36 14.9248V14.52H24.36ZM20.68 18.32L19.9616 17.6243L19.3947 18.2097L19.8536 18.8831L20.68 18.32ZM24.36 23.72H25.36V23.4117L25.1864 23.1569L24.36 23.72ZM24.36 31V32H25.36V31H24.36ZM19.52 31H18.52V32H19.52V31ZM19.52 24.56H20.52V24.2506L20.3453 23.9953L19.52 24.56ZM15.88 19.24L16.7053 18.6753L16.4075 18.24H15.88V19.24ZM11.96 19.24L11.4314 20.0889L11.6741 20.24H11.96V19.24ZM9.84 17.92L10.3686 17.0711L8.84 16.1194V17.92H9.84ZM9.84 31V32H10.84V31H9.84ZM5 31H4V32H5V31ZM9.84 7.52V6.52H8.84V7.52H9.84ZM9.84 14.72H8.84V15.72H9.84V14.72ZM17.96 14.72V15.72H18.3816L18.676 15.4181L17.96 14.72ZM19.52 13.12L20.236 13.8181L20.52 13.5268V13.12H19.52ZM19.52 10.8H20.52V10.4866L20.3411 10.2292L19.52 10.8ZM17.24 7.52L18.0611 6.94923L17.7627 6.52H17.24V7.52ZM5 3V4H19.68V3V2H5V3ZM19.68 3L18.8547 3.56468L23.5347 10.4047L24.36 9.84L25.1853 9.27531L20.5053 2.43531L19.68 3ZM24.36 9.84H23.36V14.52H24.36H25.36V9.84H24.36ZM24.36 14.52L23.6416 13.8243L19.9616 17.6243L20.68 18.32L21.3984 19.0157L25.0784 15.2157L24.36 14.52ZM20.68 18.32L19.8536 18.8831L23.5336 24.2831L24.36 23.72L25.1864 23.1569L21.5064 17.7569L20.68 18.32ZM24.36 23.72H23.36V31H24.36H25.36V23.72H24.36ZM24.36 31V30H19.52V31V32H24.36V31ZM19.52 31H20.52V24.56H19.52H18.52V31H19.52ZM19.52 24.56L20.3453 23.9953L16.7053 18.6753L15.88 19.24L15.0547 19.8047L18.6947 25.1247L19.52 24.56ZM15.88 19.24V18.24H11.96V19.24V20.24H15.88V19.24ZM11.96 19.24L12.4886 18.3911L10.3686 17.0711L9.84 17.92L9.31144 18.7689L11.4314 20.0889L11.96 19.24ZM9.84 17.92H8.84V31H9.84H10.84V17.92H9.84ZM9.84 31V30H5V31V32H9.84V31ZM5 31H6V3H5H4V31H5ZM9.84 7.52H8.84V14.72H9.84H10.84V7.52H9.84ZM9.84 14.72V15.72H17.96V14.72V13.72H9.84V14.72ZM17.96 14.72L18.676 15.4181L20.236 13.8181L19.52 13.12L18.804 12.4219L17.244 14.0219L17.96 14.72ZM19.52 13.12H20.52V10.8H19.52H18.52V13.12H19.52ZM19.52 10.8L20.3411 10.2292L18.0611 6.94923L17.24 7.52L16.4189 8.09077L18.6989 11.3708L19.52 10.8ZM17.24 7.52V6.52H9.84V7.52V8.52H17.24V7.52ZM32.3044 3V2H31.8839L31.5898 2.30045L32.3044 3ZM47.9044 3H48.9044V2H47.9044V3ZM47.9044 7.52V8.52H48.9044V7.52H47.9044ZM34.1444 7.52V6.52H33.699L33.4011 6.85103L34.1444 7.52ZM33.4244 8.32L32.6811 7.65103L32.4244 7.93626V8.32H33.4244ZM33.4244 14.6H32.4244V15.6H33.4244V14.6ZM42.6644 14.6H43.6644V13.6H42.6644V14.6ZM42.6644 19.12V20.12H43.6644V19.12H42.6644ZM33.4244 19.12V18.12H32.4244V19.12H33.4244ZM33.4244 24.72H32.4244V25.0199L32.5894 25.2703L33.4244 24.72ZM34.5844 26.48L33.7494 27.0303L34.0458 27.48H34.5844V26.48ZM47.9044 26.48H48.9044V25.48H47.9044V26.48ZM47.9044 31V32H48.9044V31H47.9044ZM32.1844 31L31.3542 31.5576L31.6514 32H32.1844V31ZM28.5844 25.64H27.5844V25.9447L27.7542 26.1976L28.5844 25.64ZM28.5844 6.8L27.8698 6.10045L27.5844 6.392V6.8H28.5844ZM32.3044 3V4H47.9044V3V2H32.3044V3ZM47.9044 3H46.9044V7.52H47.9044H48.9044V3H47.9044ZM47.9044 7.52V6.52H34.1444V7.52V8.52H47.9044V7.52ZM34.1444 7.52L33.4011 6.85103L32.6811 7.65103L33.4244 8.32L34.1677 8.98896L34.8877 8.18896L34.1444 7.52ZM33.4244 8.32H32.4244V14.6H33.4244H34.4244V8.32H33.4244ZM33.4244 14.6V15.6H42.6644V14.6V13.6H33.4244V14.6ZM42.6644 14.6H41.6644V19.12H42.6644H43.6644V14.6H42.6644ZM42.6644 19.12V18.12H33.4244V19.12V20.12H42.6644V19.12ZM33.4244 19.12H32.4244V24.72H33.4244H34.4244V19.12H33.4244ZM33.4244 24.72L32.5894 25.2703L33.7494 27.0303L34.5844 26.48L35.4193 25.9297L34.2593 24.1697L33.4244 24.72ZM34.5844 26.48V27.48H47.9044V26.48V25.48H34.5844V26.48ZM47.9044 26.48H46.9044V31H47.9044H48.9044V26.48H47.9044ZM47.9044 31V30H32.1844V31V32H47.9044V31ZM32.1844 31L33.0145 30.4424L29.4145 25.0824L28.5844 25.64L27.7542 26.1976L31.3542 31.5576L32.1844 31ZM28.5844 25.64H29.5844V6.8H28.5844H27.5844V25.64H28.5844ZM28.5844 6.8L29.299 7.49954L33.019 3.69954L32.3044 3L31.5898 2.30045L27.8698 6.10045L28.5844 6.8ZM56.7687 3V2H56.342L56.0468 2.30809L56.7687 3ZM68.8888 3L69.722 2.44715L69.4254 2H68.8888V3ZM71.6488 7.16L72.3471 7.87578L72.94 7.29736L72.482 6.60715L71.6488 7.16ZM68.3688 10.36L67.5403 10.9201L68.2105 11.9114L69.0671 11.0758L68.3688 10.36ZM66.4487 7.52L67.2772 6.95992L66.9798 6.52H66.4487V7.52ZM58.6488 7.52V6.52H58.2186L57.9228 6.83225L58.6488 7.52ZM57.9287 8.28L57.2028 7.59225L56.9287 7.88153V8.28H57.9287ZM57.9287 12.96H56.9287V13.2685L57.1025 13.5233L57.9287 12.96ZM59.1287 14.72L58.3025 15.2833L58.6003 15.72H59.1287V14.72ZM69.2488 14.72L70.0829 14.1685L69.7864 13.72H69.2488V14.72ZM72.4488 19.56H73.4488V19.2593L73.2829 19.0085L72.4488 19.56ZM72.4488 27.6L73.1684 28.2943L73.4488 28.0037V27.6H72.4488ZM69.1688 31V32H69.5935L69.8884 31.6943L69.1688 31ZM55.2088 31L54.3904 31.5748L54.6891 32H55.2088V31ZM52.8488 27.64L52.1286 26.9462L51.5565 27.54L52.0304 28.2148L52.8488 27.64ZM56.0088 24.36L56.8142 23.7673L56.1114 22.8122L55.2886 23.6662L56.0088 24.36ZM57.5687 26.48L56.7633 27.0727L57.063 27.48H57.5687V26.48ZM67.1688 26.48V27.48H67.5257L67.802 27.254L67.1688 26.48ZM67.6087 26.12L68.242 26.894L68.6087 26.5939V26.12H67.6087ZM67.6087 20.36H68.6087V20.0395L68.4225 19.7788L67.6087 20.36ZM66.8088 19.24L67.6225 18.6588L67.3234 18.24H66.8088V19.24ZM56.6888 19.24L55.8586 19.7976L56.1558 20.24H56.6888V19.24ZM53.0887 13.88H52.0887V14.1847L52.2586 14.4376L53.0887 13.88ZM53.0887 6.84L52.3668 6.14809L52.0887 6.43819V6.84H53.0887ZM56.7687 3V4H68.8888V3V2H56.7687V3ZM68.8888 3L68.0555 3.55285L70.8155 7.71285L71.6488 7.16L72.482 6.60715L69.722 2.44715L68.8888 3ZM71.6488 7.16L70.9504 6.44422L67.6704 9.64422L68.3688 10.36L69.0671 11.0758L72.3471 7.87578L71.6488 7.16ZM68.3688 10.36L69.1972 9.79992L67.2772 6.95992L66.4487 7.52L65.6203 8.08007L67.5403 10.9201L68.3688 10.36ZM66.4487 7.52V6.52H58.6488V7.52V8.52H66.4487V7.52ZM58.6488 7.52L57.9228 6.83225L57.2028 7.59225L57.9287 8.28L58.6547 8.96774L59.3747 8.20774L58.6488 7.52ZM57.9287 8.28H56.9287V12.96H57.9287H58.9287V8.28H57.9287ZM57.9287 12.96L57.1025 13.5233L58.3025 15.2833L59.1287 14.72L59.955 14.1567L58.755 12.3967L57.9287 12.96ZM59.1287 14.72V15.72H69.2488V14.72V13.72H59.1287V14.72ZM69.2488 14.72L68.4146 15.2715L71.6146 20.1115L72.4488 19.56L73.2829 19.0085L70.0829 14.1685L69.2488 14.72ZM72.4488 19.56H71.4488V27.6H72.4488H73.4488V19.56H72.4488ZM72.4488 27.6L71.7291 26.9057L68.4491 30.3057L69.1688 31L69.8884 31.6943L73.1684 28.2943L72.4488 27.6ZM69.1688 31V30H55.2088V31V32H69.1688V31ZM55.2088 31L56.0271 30.4252L53.6671 27.0652L52.8488 27.64L52.0304 28.2148L54.3904 31.5748L55.2088 31ZM52.8488 27.64L53.5689 28.3338L56.7289 25.0538L56.0088 24.36L55.2886 23.6662L52.1286 26.9462L52.8488 27.64ZM56.0088 24.36L55.2033 24.9527L56.7633 27.0727L57.5687 26.48L58.3742 25.8873L56.8142 23.7673L56.0088 24.36ZM57.5687 26.48V27.48H67.1688V26.48V25.48H57.5687V26.48ZM67.1688 26.48L67.802 27.254L68.242 26.894L67.6087 26.12L66.9755 25.346L66.5355 25.706L67.1688 26.48ZM67.6087 26.12H68.6087V20.36H67.6087H66.6087V26.12H67.6087ZM67.6087 20.36L68.4225 19.7788L67.6225 18.6588L66.8088 19.24L65.995 19.8212L66.795 20.9412L67.6087 20.36ZM66.8088 19.24V18.24H56.6888V19.24V20.24H66.8088V19.24ZM56.6888 19.24L57.5189 18.6824L53.9189 13.3224L53.0887 13.88L52.2586 14.4376L55.8586 19.7976L56.6888 19.24ZM53.0887 13.88H54.0887V6.84H53.0887H52.0887V13.88H53.0887ZM53.0887 6.84L53.8107 7.5319L57.4907 3.6919L56.7687 3L56.0468 2.30809L52.3668 6.14809L53.0887 6.84ZM76.1931 3V2H75.1931V3H76.1931ZM97.0731 3H98.0731V2H97.0731V3ZM97.0731 7.52V8.52H98.0731V7.52H97.0731ZM86.4331 7.52V6.52H83.814L85.7667 8.26554L86.4331 7.52ZM89.0731 9.88H90.0731V9.43262L89.7396 9.13446L89.0731 9.88ZM89.0731 31V32H90.0731V31H89.0731ZM84.2331 31H83.2331V32H84.2331V31ZM84.2331 11H85.2331V10.8377L85.1818 10.6838L84.2331 11ZM83.0731 7.52L84.0218 7.20377L83.7939 6.52H83.0731V7.52ZM76.1931 7.52H75.1931V8.52H76.1931V7.52ZM76.1931 3V4H97.0731V3V2H76.1931V3ZM97.0731 3H96.0731V7.52H97.0731H98.0731V3H97.0731ZM97.0731 7.52V6.52H86.4331V7.52V8.52H97.0731V7.52ZM86.4331 7.52L85.7667 8.26554L88.4067 10.6255L89.0731 9.88L89.7396 9.13446L87.0996 6.77446L86.4331 7.52ZM89.0731 9.88H88.0731V31H89.0731H90.0731V9.88H89.0731ZM89.0731 31V30H84.2331V31V32H89.0731V31ZM84.2331 31H85.2331V11H84.2331H83.2331V31H84.2331ZM84.2331 11L85.1818 10.6838L84.0218 7.20377L83.0731 7.52L82.1244 7.83623L83.2844 11.3162L84.2331 11ZM83.0731 7.52V6.52H76.1931V7.52V8.52H83.0731V7.52ZM76.1931 7.52H77.1931V3H76.1931H75.1931V7.52H76.1931ZM108.738 3V2H108.313L108.018 2.30505L108.738 3ZM119.418 3H120.418V2H119.418V3ZM119.418 31V32H120.418V31H119.418ZM114.577 31H113.577V32H114.577V31ZM114.577 19.04H115.577V18.04H114.577V19.04ZM106.577 19.04V18.04H105.577V19.04H106.577ZM106.577 31V32H107.577V31H106.577ZM101.817 31H100.817V32H101.817V31ZM101.817 10.16L101.098 9.46505L100.817 9.75574V10.16H101.817ZM106.577 11.56L105.86 10.8636L105.577 11.1546V11.56H106.577ZM106.577 14.52H105.577V15.52H106.577V14.52ZM114.577 14.52V15.52H115.577V14.52H114.577ZM114.577 7.52H115.577V6.52H114.577V7.52ZM110.498 7.52V6.52H110.074L109.78 6.82363L110.498 7.52ZM108.738 3V4H119.418V3V2H108.738V3ZM119.418 3H118.418V31H119.418H120.418V3H119.418ZM119.418 31V30H114.577V31V32H119.418V31ZM114.577 31H115.577V19.04H114.577H113.577V31H114.577ZM114.577 19.04V18.04H106.577V19.04V20.04H114.577V19.04ZM106.577 19.04H105.577V31H106.577H107.577V19.04H106.577ZM106.577 31V30H101.817V31V32H106.577V31ZM101.817 31H102.817V10.16H101.817H100.817V31H101.817ZM101.817 10.16L102.537 10.855L109.457 3.69495L108.738 3L108.018 2.30505L101.098 9.46505L101.817 10.16ZM106.577 11.56H105.577V14.52H106.577H107.577V11.56H106.577ZM106.577 14.52V15.52H114.577V14.52V13.52H106.577V14.52ZM114.577 14.52H115.577V7.52H114.577H113.577V14.52H114.577ZM114.577 7.52V6.52H110.498V7.52V8.52H114.577V7.52ZM110.498 7.52L109.78 6.82363L105.86 10.8636L106.577 11.56L107.295 12.2564L111.215 8.21637L110.498 7.52ZM124.922 3V2H123.922V3H124.922ZM139.602 3L140.427 2.43531L140.129 2H139.602V3ZM144.282 9.84H145.282V9.53063L145.107 9.27531L144.282 9.84ZM144.282 14.52L145 15.2157L145.282 14.9248V14.52H144.282ZM140.602 18.32L139.884 17.6243L139.317 18.2097L139.776 18.8831L140.602 18.32ZM144.282 23.72H145.282V23.4117L145.108 23.1569L144.282 23.72ZM144.282 31V32H145.282V31H144.282ZM139.442 31H138.442V32H139.442V31ZM139.442 24.56H140.442V24.2506L140.267 23.9953L139.442 24.56ZM135.802 19.24L136.627 18.6753L136.329 18.24H135.802V19.24ZM131.882 19.24L131.353 20.0889L131.596 20.24H131.882V19.24ZM129.762 17.92L130.29 17.0711L128.762 16.1194V17.92H129.762ZM129.762 31V32H130.762V31H129.762ZM124.922 31H123.922V32H124.922V31ZM129.762 7.52V6.52H128.762V7.52H129.762ZM129.762 14.72H128.762V15.72H129.762V14.72ZM137.882 14.72V15.72H138.304L138.598 15.4181L137.882 14.72ZM139.442 13.12L140.158 13.8181L140.442 13.5268V13.12H139.442ZM139.442 10.8H140.442V10.4866L140.263 10.2292L139.442 10.8ZM137.162 7.52L137.983 6.94923L137.685 6.52H137.162V7.52ZM124.922 3V4H139.602V3V2H124.922V3ZM139.602 3L138.777 3.56468L143.457 10.4047L144.282 9.84L145.107 9.27531L140.427 2.43531L139.602 3ZM144.282 9.84H143.282V14.52H144.282H145.282V9.84H144.282ZM144.282 14.52L143.564 13.8243L139.884 17.6243L140.602 18.32L141.32 19.0157L145 15.2157L144.282 14.52ZM140.602 18.32L139.776 18.8831L143.456 24.2831L144.282 23.72L145.108 23.1569L141.428 17.7569L140.602 18.32ZM144.282 23.72H143.282V31H144.282H145.282V23.72H144.282ZM144.282 31V30H139.442V31V32H144.282V31ZM139.442 31H140.442V24.56H139.442H138.442V31H139.442ZM139.442 24.56L140.267 23.9953L136.627 18.6753L135.802 19.24L134.977 19.8047L138.617 25.1247L139.442 24.56ZM135.802 19.24V18.24H131.882V19.24V20.24H135.802V19.24ZM131.882 19.24L132.41 18.3911L130.29 17.0711L129.762 17.92L129.233 18.7689L131.353 20.0889L131.882 19.24ZM129.762 17.92H128.762V31H129.762H130.762V17.92H129.762ZM129.762 31V30H124.922V31V32H129.762V31ZM124.922 31H125.922V3H124.922H123.922V31H124.922ZM129.762 7.52H128.762V14.72H129.762H130.762V7.52H129.762ZM129.762 14.72V15.72H137.882V14.72V13.72H129.762V14.72ZM137.882 14.72L138.598 15.4181L140.158 13.8181L139.442 13.12L138.726 12.4219L137.166 14.0219L137.882 14.72ZM139.442 13.12H140.442V10.8H139.442H138.442V13.12H139.442ZM139.442 10.8L140.263 10.2292L137.983 6.94923L137.162 7.52L136.341 8.09077L138.621 11.3708L139.442 10.8ZM137.162 7.52V6.52H129.762V7.52V8.52H137.162V7.52ZM148.146 3V2H147.146V3H148.146ZM169.026 3H170.026V2H169.026V3ZM169.026 7.52V8.52H170.026V7.52H169.026ZM158.386 7.52V6.52H155.767L157.72 8.26554L158.386 7.52ZM161.026 9.88H162.026V9.43262L161.693 9.13446L161.026 9.88ZM161.026 31V32H162.026V31H161.026ZM156.186 31H155.186V32H156.186V31ZM156.186 11H157.186V10.8377L157.135 10.6838L156.186 11ZM155.026 7.52L155.975 7.20377L155.747 6.52H155.026V7.52ZM148.146 7.52H147.146V8.52H148.146V7.52ZM148.146 3V4H169.026V3V2H148.146V3ZM169.026 3H168.026V7.52H169.026H170.026V3H169.026ZM169.026 7.52V6.52H158.386V7.52V8.52H169.026V7.52ZM158.386 7.52L157.72 8.26554L160.36 10.6255L161.026 9.88L161.693 9.13446L159.053 6.77446L158.386 7.52ZM161.026 9.88H160.026V31H161.026H162.026V9.88H161.026ZM161.026 31V30H156.186V31V32H161.026V31ZM156.186 31H157.186V11H156.186H155.186V31H156.186ZM156.186 11L157.135 10.6838L155.975 7.20377L155.026 7.52L154.078 7.83623L155.238 11.3162L156.186 11ZM155.026 7.52V6.52H148.146V7.52V8.52H155.026V7.52ZM148.146 7.52H149.146V3H148.146H147.146V7.52H148.146Z" fill="white" mask="url(#path-1-outside-1_7_116)"/>
</g>
<defs>
<filter id="filter0_d_7_116" x="0" y="0" width="174.026" height="38" filterUnits="userSpaceOnUse" color-interpolation-filters="sRGB">
<feFlood flood-opacity="0" result="BackgroundImageFix"/>
<feColorMatrix in="SourceAlpha" type="matrix" values="0 0 0 0 0 0 0 0 0 0 0 0 0 0 0 0 0 0 127 0" result="hardAlpha"/>
<feOffset dy="2"/>
<feGaussianBlur stdDeviation="2"/>
<feComposite in2="hardAlpha" operator="out"/>
<feColorMatrix type="matrix" values="0 0 0 0 0 0 0 0 0 0 0 0 0 0 0 0 0 0 0.5 0"/>
<feBlend mode="normal" in2="BackgroundImageFix" result="effect1_dropShadow_7_116"/>
<feBlend mode="normal" in="SourceGraphic" in2="effect1_dropShadow_7_116" result="shape"/>
</filter>
</defs>
</svg>
