<svg width="48" height="17" viewBox="0 0 48 17" fill="none" xmlns="http://www.w3.org/2000/svg">
<mask id="path-1-outside-1_7_33" maskUnits="userSpaceOnUse" x="-0.0579834" y="-0.599998" width="48" height="17" fill="black">
<rect fill="white" x="-0.0579834" y="-0.599998" width="48" height="17"/>
<path d="M4.98202 1H7.18202V13.14H10.762V15.4H1.12202V13.14H4.74202V4.48L2.58202 6.74L1.28202 4.8L4.98202 1ZM14.9742 1H20.9742L22.7542 3.66V13.48L20.9342 15.4H14.9342L13.1142 12.72V2.9L14.9742 1ZM15.5342 3.66V9.38L20.3342 4.4V4.12L19.7542 3.26H15.8942L15.5342 3.66ZM15.5342 12.32L16.1142 13.14H19.9542L20.3342 12.74V7.2L15.5342 12.2V12.32ZM26.9664 1H32.9664L34.7464 3.66V13.48L32.9264 15.4H26.9264L25.1064 12.72V2.9L26.9664 1ZM27.5264 3.66V9.38L32.3264 4.4V4.12L31.7464 3.26H27.8864L27.5264 3.66ZM27.5264 12.32L28.1064 13.14H31.9464L32.3264 12.74V7.2L27.5264 12.2V12.32ZM37.0986 1.4H39.5186V1.62L41.6186 4.76L44.3386 1.4H46.7586V15.4H44.3386V4.66L42.7586 6.52V7.78H41.0186V7.46L39.5186 5.22V15.4H37.0986V1.4Z"/>
</mask>
<path d="M4.98202 1H7.18202V13.14H10.762V15.4H1.12202V13.14H4.74202V4.48L2.58202 6.74L1.28202 4.8L4.98202 1ZM14.9742 1H20.9742L22.7542 3.66V13.48L20.9342 15.4H14.9342L13.1142 12.72V2.9L14.9742 1ZM15.5342 3.66V9.38L20.3342 4.4V4.12L19.7542 3.26H15.8942L15.5342 3.66ZM15.5342 12.32L16.1142 13.14H19.9542L20.3342 12.74V7.2L15.5342 12.2V12.32ZM26.9664 1H32.9664L34.7464 3.66V13.48L32.9264 15.4H26.9264L25.1064 12.72V2.9L26.9664 1ZM27.5264 3.66V9.38L32.3264 4.4V4.12L31.7464 3.26H27.8864L27.5264 3.66ZM27.5264 12.32L28.1064 13.14H31.9464L32.3264 12.74V7.2L27.5264 12.2V12.32ZM37.0986 1.4H39.5186V1.62L41.6186 4.76L44.3386 1.4H46.7586V15.4H44.3386V4.66L42.7586 6.52V7.78H41.0186V7.46L39.5186 5.22V15.4H37.0986V1.4Z" fill="#FFE8A1"/>
<path d="M4.98202 1V9.53674e-07H4.55997L4.26555 0.302384L4.98202 1ZM7.18202 1H8.18202V9.53674e-07H7.18202V1ZM7.18202 13.14H6.18202V14.14H7.18202V13.14ZM10.762 13.14H11.762V12.14H10.762V13.14ZM10.762 15.4V16.4H11.762V15.4H10.762ZM1.12202 15.4H0.122017V16.4H1.12202V15.4ZM1.12202 13.14V12.14H0.122017V13.14H1.12202ZM4.74202 13.14V14.14H5.74202V13.14H4.74202ZM4.74202 4.48H5.74202V1.98639L4.0191 3.78907L4.74202 4.48ZM2.58202 6.74L1.75129 7.29668L2.44452 8.33119L3.30494 7.43093L2.58202 6.74ZM1.28202 4.8L0.565545 4.10238L-1.2815e-06 4.68322L0.451286 5.35668L1.28202 4.8ZM4.98202 1V2H7.18202V1V9.53674e-07H4.98202V1ZM7.18202 1H6.18202V13.14H7.18202H8.18202V1H7.18202ZM7.18202 13.14V14.14H10.762V13.14V12.14H7.18202V13.14ZM10.762 13.14H9.76202V15.4H10.762H11.762V13.14H10.762ZM10.762 15.4V14.4H1.12202V15.4V16.4H10.762V15.4ZM1.12202 15.4H2.12202V13.14H1.12202H0.122017V15.4H1.12202ZM1.12202 13.14V14.14H4.74202V13.14V12.14H1.12202V13.14ZM4.74202 13.14H5.74202V4.48H4.74202H3.74202V13.14H4.74202ZM4.74202 4.48L4.0191 3.78907L1.8591 6.04907L2.58202 6.74L3.30494 7.43093L5.46494 5.17093L4.74202 4.48ZM2.58202 6.74L3.41275 6.18333L2.11275 4.24333L1.28202 4.8L0.451286 5.35668L1.75129 7.29668L2.58202 6.74ZM1.28202 4.8L1.99849 5.49762L5.69849 1.69762L4.98202 1L4.26555 0.302384L0.565545 4.10238L1.28202 4.8ZM14.9742 1V9.53674e-07H14.5537L14.2596 0.300456L14.9742 1ZM20.9742 1L21.8053 0.44386L21.5083 9.53674e-07H20.9742V1ZM22.7542 3.66H23.7542V3.35628L23.5853 3.10386L22.7542 3.66ZM22.7542 13.48L23.48 14.168L23.7542 13.8786V13.48H22.7542ZM20.9342 15.4V16.4H21.3642L21.66 16.088L20.9342 15.4ZM14.9342 15.4L14.1069 15.9618L14.4045 16.4H14.9342V15.4ZM13.1142 12.72H12.1142V13.0275L12.2869 13.2818L13.1142 12.72ZM13.1142 2.9L12.3996 2.20046L12.1142 2.49201V2.9H13.1142ZM15.5342 3.66L14.7909 2.99104L14.5342 3.27627V3.66H15.5342ZM15.5342 9.38H14.5342V11.8585L16.2542 10.074L15.5342 9.38ZM20.3342 4.4L21.0542 5.09398L21.3342 4.80348V4.4H20.3342ZM20.3342 4.12H21.3342V3.8143L21.1633 3.56086L20.3342 4.12ZM19.7542 3.26L20.5833 2.70086L20.286 2.26H19.7542V3.26ZM15.8942 3.26V2.26H15.4488L15.1509 2.59104L15.8942 3.26ZM15.5342 12.32H14.5342V12.6379L14.7178 12.8975L15.5342 12.32ZM16.1142 13.14L15.2978 13.7175L15.5967 14.14H16.1142V13.14ZM19.9542 13.14V14.14H20.3835L20.6792 13.8288L19.9542 13.14ZM20.3342 12.74L21.0592 13.4288L21.3342 13.1393V12.74H20.3342ZM20.3342 7.2H21.3342V4.71436L19.6128 6.50747L20.3342 7.2ZM15.5342 12.2L14.8128 11.5075L14.5342 11.7977V12.2H15.5342ZM14.9742 1V2H20.9742V1V9.53674e-07H14.9742V1ZM20.9742 1L20.1431 1.55614L21.9231 4.21614L22.7542 3.66L23.5853 3.10386L21.8053 0.44386L20.9742 1ZM22.7542 3.66H21.7542V13.48H22.7542H23.7542V3.66H22.7542ZM22.7542 13.48L22.0285 12.792L20.2085 14.712L20.9342 15.4L21.66 16.088L23.48 14.168L22.7542 13.48ZM20.9342 15.4V14.4H14.9342V15.4V16.4H20.9342V15.4ZM14.9342 15.4L15.7615 14.8382L13.9415 12.1582L13.1142 12.72L12.2869 13.2818L14.1069 15.9618L14.9342 15.4ZM13.1142 12.72H14.1142V2.9H13.1142H12.1142V12.72H13.1142ZM13.1142 2.9L13.8288 3.59955L15.6888 1.69955L14.9742 1L14.2596 0.300456L12.3996 2.20046L13.1142 2.9ZM15.5342 3.66H14.5342V9.38H15.5342H16.5342V3.66H15.5342ZM15.5342 9.38L16.2542 10.074L21.0542 5.09398L20.3342 4.4L19.6142 3.70603L14.8142 8.68603L15.5342 9.38ZM20.3342 4.4H21.3342V4.12H20.3342H19.3342V4.4H20.3342ZM20.3342 4.12L21.1633 3.56086L20.5833 2.70086L19.7542 3.26L18.9251 3.81914L19.5051 4.67914L20.3342 4.12ZM19.7542 3.26V2.26H15.8942V3.26V4.26H19.7542V3.26ZM15.8942 3.26L15.1509 2.59104L14.7909 2.99104L15.5342 3.66L16.2775 4.32897L16.6375 3.92896L15.8942 3.26ZM15.5342 12.32L14.7178 12.8975L15.2978 13.7175L16.1142 13.14L16.9306 12.5625L16.3506 11.7425L15.5342 12.32ZM16.1142 13.14V14.14H19.9542V13.14V12.14H16.1142V13.14ZM19.9542 13.14L20.6792 13.8288L21.0592 13.4288L20.3342 12.74L19.6092 12.0513L19.2292 12.4513L19.9542 13.14ZM20.3342 12.74H21.3342V7.2H20.3342H19.3342V12.74H20.3342ZM20.3342 7.2L19.6128 6.50747L14.8128 11.5075L15.5342 12.2L16.2556 12.8925L21.0556 7.89253L20.3342 7.2ZM15.5342 12.2H14.5342V12.32H15.5342H16.5342V12.2H15.5342ZM26.9664 1V9.53674e-07H26.5459L26.2518 0.300456L26.9664 1ZM32.9664 1L33.7975 0.44386L33.5005 9.53674e-07H32.9664V1ZM34.7464 3.66H35.7464V3.35628L35.5775 3.10386L34.7464 3.66ZM34.7464 13.48L35.4721 14.168L35.7464 13.8786V13.48H34.7464ZM32.9264 15.4V16.4H33.3564L33.6521 16.088L32.9264 15.4ZM26.9264 15.4L26.0991 15.9618L26.3967 16.4H26.9264V15.4ZM25.1064 12.72H24.1064V13.0275L24.2791 13.2818L25.1064 12.72ZM25.1064 2.9L24.3918 2.20046L24.1064 2.49201V2.9H25.1064ZM27.5264 3.66L26.7831 2.99104L26.5264 3.27627V3.66H27.5264ZM27.5264 9.38H26.5264V11.8585L28.2464 10.074L27.5264 9.38ZM32.3264 4.4L33.0464 5.09398L33.3264 4.80348V4.4H32.3264ZM32.3264 4.12H33.3264V3.8143L33.1555 3.56086L32.3264 4.12ZM31.7464 3.26L32.5755 2.70086L32.2781 2.26H31.7464V3.26ZM27.8864 3.26V2.26H27.441L27.1431 2.59104L27.8864 3.26ZM27.5264 12.32H26.5264V12.6379L26.71 12.8975L27.5264 12.32ZM28.1064 13.14L27.29 13.7175L27.5888 14.14H28.1064V13.14ZM31.9464 13.14V14.14H32.3757L32.6714 13.8288L31.9464 13.14ZM32.3264 12.74L33.0514 13.4288L33.3264 13.1393V12.74H32.3264ZM32.3264 7.2H33.3264V4.71436L31.605 6.50747L32.3264 7.2ZM27.5264 12.2L26.805 11.5075L26.5264 11.7977V12.2H27.5264ZM26.9664 1V2H32.9664V1V9.53674e-07H26.9664V1ZM32.9664 1L32.1353 1.55614L33.9153 4.21614L34.7464 3.66L35.5775 3.10386L33.7975 0.44386L32.9664 1ZM34.7464 3.66H33.7464V13.48H34.7464H35.7464V3.66H34.7464ZM34.7464 13.48L34.0206 12.792L32.2006 14.712L32.9264 15.4L33.6521 16.088L35.4721 14.168L34.7464 13.48ZM32.9264 15.4V14.4H26.9264V15.4V16.4H32.9264V15.4ZM26.9264 15.4L27.7537 14.8382L25.9337 12.1582L25.1064 12.72L24.2791 13.2818L26.0991 15.9618L26.9264 15.4ZM25.1064 12.72H26.1064V2.9H25.1064H24.1064V12.72H25.1064ZM25.1064 2.9L25.821 3.59955L27.681 1.69955L26.9664 1L26.2518 0.300456L24.3918 2.20046L25.1064 2.9ZM27.5264 3.66H26.5264V9.38H27.5264H28.5264V3.66H27.5264ZM27.5264 9.38L28.2464 10.074L33.0464 5.09398L32.3264 4.4L31.6064 3.70603L26.8064 8.68603L27.5264 9.38ZM32.3264 4.4H33.3264V4.12H32.3264H31.3264V4.4H32.3264ZM32.3264 4.12L33.1555 3.56086L32.5755 2.70086L31.7464 3.26L30.9173 3.81914L31.4973 4.67914L32.3264 4.12ZM31.7464 3.26V2.26H27.8864V3.26V4.26H31.7464V3.26ZM27.8864 3.26L27.1431 2.59104L26.7831 2.99104L27.5264 3.66L28.2697 4.32897L28.6297 3.92896L27.8864 3.26ZM27.5264 12.32L26.71 12.8975L27.29 13.7175L28.1064 13.14L28.9228 12.5625L28.3428 11.7425L27.5264 12.32ZM28.1064 13.14V14.14H31.9464V13.14V12.14H28.1064V13.14ZM31.9464 13.14L32.6714 13.8288L33.0514 13.4288L32.3264 12.74L31.6014 12.0513L31.2214 12.4513L31.9464 13.14ZM32.3264 12.74H33.3264V7.2H32.3264H31.3264V12.74H32.3264ZM32.3264 7.2L31.605 6.50747L26.805 11.5075L27.5264 12.2L28.2478 12.8925L33.0478 7.89253L32.3264 7.2ZM27.5264 12.2H26.5264V12.32H27.5264H28.5264V12.2H27.5264ZM37.0986 1.4V0.400001H36.0986V1.4H37.0986ZM39.5186 1.4H40.5186V0.400001H39.5186V1.4ZM39.5186 1.62H38.5186V1.92358L38.6873 2.17592L39.5186 1.62ZM41.6186 4.76L40.7873 5.31592L41.5419 6.4441L42.3958 5.3892L41.6186 4.76ZM44.3386 1.4V0.400001H43.8615L43.5613 0.770802L44.3386 1.4ZM46.7586 1.4H47.7586V0.400001H46.7586V1.4ZM46.7586 15.4V16.4H47.7586V15.4H46.7586ZM44.3386 15.4H43.3386V16.4H44.3386V15.4ZM44.3386 4.66H45.3386V1.93817L43.5764 4.01259L44.3386 4.66ZM42.7586 6.52L41.9964 5.87259L41.7586 6.1526V6.52H42.7586ZM42.7586 7.78V8.78H43.7586V7.78H42.7586ZM41.0186 7.78H40.0186V8.78H41.0186V7.78ZM41.0186 7.46H42.0186V7.1561L41.8495 6.90359L41.0186 7.46ZM39.5186 5.22L40.3495 4.66359L38.5186 1.92944V5.22H39.5186ZM39.5186 15.4V16.4H40.5186V15.4H39.5186ZM37.0986 15.4H36.0986V16.4H37.0986V15.4ZM37.0986 1.4V2.4H39.5186V1.4V0.400001H37.0986V1.4ZM39.5186 1.4H38.5186V1.62H39.5186H40.5186V1.4H39.5186ZM39.5186 1.62L38.6873 2.17592L40.7873 5.31592L41.6186 4.76L42.4498 4.20408L40.3498 1.06408L39.5186 1.62ZM41.6186 4.76L42.3958 5.3892L45.1158 2.0292L44.3386 1.4L43.5613 0.770802L40.8413 4.1308L41.6186 4.76ZM44.3386 1.4V2.4H46.7586V1.4V0.400001H44.3386V1.4ZM46.7586 1.4H45.7586V15.4H46.7586H47.7586V1.4H46.7586ZM46.7586 15.4V14.4H44.3386V15.4V16.4H46.7586V15.4ZM44.3386 15.4H45.3386V4.66H44.3386H43.3386V15.4H44.3386ZM44.3386 4.66L43.5764 4.01259L41.9964 5.87259L42.7586 6.52L43.5207 7.16741L45.1007 5.30741L44.3386 4.66ZM42.7586 6.52H41.7586V7.78H42.7586H43.7586V6.52H42.7586ZM42.7586 7.78V6.78H41.0186V7.78V8.78H42.7586V7.78ZM41.0186 7.78H42.0186V7.46H41.0186H40.0186V7.78H41.0186ZM41.0186 7.46L41.8495 6.90359L40.3495 4.66359L39.5186 5.22L38.6877 5.77641L40.1877 8.01641L41.0186 7.46ZM39.5186 5.22H38.5186V15.4H39.5186H40.5186V5.22H39.5186ZM39.5186 15.4V14.4H37.0986V15.4V16.4H39.5186V15.4ZM37.0986 15.4H38.0986V1.4H37.0986H36.0986V15.4H37.0986Z" fill="#745C29" mask="url(#path-1-outside-1_7_33)"/>
</svg>
