<svg width="199" height="38" viewBox="0 0 199 38" fill="none" xmlns="http://www.w3.org/2000/svg">
<g filter="url(#filter0_d_14_273)">
<mask id="path-1-outside-1_14_273" maskUnits="userSpaceOnUse" x="3.44" y="2" width="191" height="30" fill="black">
<rect fill="white" x="3.44" y="2" width="191" height="30"/>
<path d="M5 3H25.88V7.52H15.24L17.88 9.88V31H13.04V11L11.88 7.52H5V3ZM44.2644 3H49.1044V31H44.2644V29.64L42.0644 31H33.3844L29.7444 25.64V3H34.5844V24.72L35.7444 26.48H43.4644L44.2644 25.68V3ZM52.9688 3H73.8488V7.52H63.2088L65.8488 9.88V31H61.0088V11L59.8488 7.52H52.9688V3ZM81.4731 3H93.5131L97.0331 8.36V27.16L93.3931 31H81.3931L77.7531 25.64V6.84L81.4731 3ZM82.5931 24.76L83.7531 26.48H91.4331L92.1931 25.68V9.24L91.0331 7.52H83.3131L82.5931 8.32V24.76ZM101.698 3H116.378L121.058 9.84V14.52L117.378 18.32L121.058 23.72V31H116.218V24.56L112.578 19.24H108.658L106.538 17.92V31H101.698V3ZM106.538 7.52V14.72H114.658L116.218 13.12V10.8L113.938 7.52H106.538ZM125.682 3H145.042V7.52H137.762V26.48H145.042V31H125.682V26.48H132.922V7.52H125.682V3ZM157.466 3H168.146V31H163.306V19.04H155.306V31H150.546V10.16L157.466 3ZM155.306 11.56V14.52H163.306V7.52H159.226L155.306 11.56ZM173.651 3H178.491V24.68L179.731 26.48H188.171V23.56H193.011V31H177.291L173.651 25.48V3Z"/>
</mask>
<path d="M5 3H25.88V7.52H15.24L17.88 9.88V31H13.04V11L11.88 7.52H5V3ZM44.2644 3H49.1044V31H44.2644V29.64L42.0644 31H33.3844L29.7444 25.64V3H34.5844V24.72L35.7444 26.48H43.4644L44.2644 25.68V3ZM52.9688 3H73.8488V7.52H63.2088L65.8488 9.88V31H61.0088V11L59.8488 7.52H52.9688V3ZM81.4731 3H93.5131L97.0331 8.36V27.16L93.3931 31H81.3931L77.7531 25.64V6.84L81.4731 3ZM82.5931 24.76L83.7531 26.48H91.4331L92.1931 25.68V9.24L91.0331 7.52H83.3131L82.5931 8.32V24.76ZM101.698 3H116.378L121.058 9.84V14.52L117.378 18.32L121.058 23.72V31H116.218V24.56L112.578 19.24H108.658L106.538 17.92V31H101.698V3ZM106.538 7.52V14.72H114.658L116.218 13.12V10.8L113.938 7.52H106.538ZM125.682 3H145.042V7.52H137.762V26.48H145.042V31H125.682V26.48H132.922V7.52H125.682V3ZM157.466 3H168.146V31H163.306V19.04H155.306V31H150.546V10.16L157.466 3ZM155.306 11.56V14.52H163.306V7.52H159.226L155.306 11.56ZM173.651 3H178.491V24.68L179.731 26.48H188.171V23.56H193.011V31H177.291L173.651 25.48V3Z" fill="#213084"/>
<path d="M5 3V2H4V3H5ZM25.88 3H26.88V2H25.88V3ZM25.88 7.52V8.52H26.88V7.52H25.88ZM15.24 7.52V6.52H12.6209L14.5735 8.26554L15.24 7.52ZM17.88 9.88H18.88V9.43262L18.5465 9.13446L17.88 9.88ZM17.88 31V32H18.88V31H17.88ZM13.04 31H12.04V32H13.04V31ZM13.04 11H14.04V10.8377L13.9887 10.6838L13.04 11ZM11.88 7.52L12.8287 7.20377L12.6008 6.52H11.88V7.52ZM5 7.52H4V8.52H5V7.52ZM5 3V4H25.88V3V2H5V3ZM25.88 3H24.88V7.52H25.88H26.88V3H25.88ZM25.88 7.52V6.52H15.24V7.52V8.52H25.88V7.52ZM15.24 7.52L14.5735 8.26554L17.2135 10.6255L17.88 9.88L18.5465 9.13446L15.9065 6.77446L15.24 7.52ZM17.88 9.88H16.88V31H17.88H18.88V9.88H17.88ZM17.88 31V30H13.04V31V32H17.88V31ZM13.04 31H14.04V11H13.04H12.04V31H13.04ZM13.04 11L13.9887 10.6838L12.8287 7.20377L11.88 7.52L10.9313 7.83623L12.0913 11.3162L13.04 11ZM11.88 7.52V6.52H5V7.52V8.52H11.88V7.52ZM5 7.52H6V3H5H4V7.52H5ZM44.2644 3V2H43.2644V3H44.2644ZM49.1044 3H50.1044V2H49.1044V3ZM49.1044 31V32H50.1044V31H49.1044ZM44.2644 31H43.2644V32H44.2644V31ZM44.2644 29.64H45.2644V27.8462L43.7386 28.7894L44.2644 29.64ZM42.0644 31V32H42.3485L42.5902 31.8506L42.0644 31ZM33.3844 31L32.5571 31.5618L32.8547 32H33.3844V31ZM29.7444 25.64H28.7444V25.9475L28.9171 26.2018L29.7444 25.64ZM29.7444 3V2H28.7444V3H29.7444ZM34.5844 3H35.5844V2H34.5844V3ZM34.5844 24.72H33.5844V25.0199L33.7494 25.2703L34.5844 24.72ZM35.7444 26.48L34.9094 27.0303L35.2058 27.48H35.7444V26.48ZM43.4644 26.48V27.48H43.8786L44.1715 27.1871L43.4644 26.48ZM44.2644 25.68L44.9715 26.3871L45.2644 26.0942V25.68H44.2644ZM44.2644 3V4H49.1044V3V2H44.2644V3ZM49.1044 3H48.1044V31H49.1044H50.1044V3H49.1044ZM49.1044 31V30H44.2644V31V32H49.1044V31ZM44.2644 31H45.2644V29.64H44.2644H43.2644V31H44.2644ZM44.2644 29.64L43.7386 28.7894L41.5386 30.1494L42.0644 31L42.5902 31.8506L44.7902 30.4906L44.2644 29.64ZM42.0644 31V30H33.3844V31V32H42.0644V31ZM33.3844 31L34.2116 30.4382L30.5716 25.0782L29.7444 25.64L28.9171 26.2018L32.5571 31.5618L33.3844 31ZM29.7444 25.64H30.7444V3H29.7444H28.7444V25.64H29.7444ZM29.7444 3V4H34.5844V3V2H29.7444V3ZM34.5844 3H33.5844V24.72H34.5844H35.5844V3H34.5844ZM34.5844 24.72L33.7494 25.2703L34.9094 27.0303L35.7444 26.48L36.5793 25.9297L35.4193 24.1697L34.5844 24.72ZM35.7444 26.48V27.48H43.4644V26.48V25.48H35.7444V26.48ZM43.4644 26.48L44.1715 27.1871L44.9715 26.3871L44.2644 25.68L43.5573 24.9729L42.7573 25.7729L43.4644 26.48ZM44.2644 25.68H45.2644V3H44.2644H43.2644V25.68H44.2644ZM52.9688 3V2H51.9688V3H52.9688ZM73.8488 3H74.8488V2H73.8488V3ZM73.8488 7.52V8.52H74.8488V7.52H73.8488ZM63.2088 7.52V6.52H60.5897L62.5423 8.26554L63.2088 7.52ZM65.8488 9.88H66.8488V9.43262L66.5152 9.13446L65.8488 9.88ZM65.8488 31V32H66.8488V31H65.8488ZM61.0088 31H60.0088V32H61.0088V31ZM61.0088 11H62.0088V10.8377L61.9574 10.6838L61.0088 11ZM59.8488 7.52L60.7974 7.20377L60.5695 6.52H59.8488V7.52ZM52.9688 7.52H51.9688V8.52H52.9688V7.52ZM52.9688 3V4H73.8488V3V2H52.9688V3ZM73.8488 3H72.8488V7.52H73.8488H74.8488V3H73.8488ZM73.8488 7.52V6.52H63.2088V7.52V8.52H73.8488V7.52ZM63.2088 7.52L62.5423 8.26554L65.1823 10.6255L65.8488 9.88L66.5152 9.13446L63.8752 6.77446L63.2088 7.52ZM65.8488 9.88H64.8488V31H65.8488H66.8488V9.88H65.8488ZM65.8488 31V30H61.0088V31V32H65.8488V31ZM61.0088 31H62.0088V11H61.0088H60.0088V31H61.0088ZM61.0088 11L61.9574 10.6838L60.7974 7.20377L59.8488 7.52L58.9001 7.83623L60.0601 11.3162L61.0088 11ZM59.8488 7.52V6.52H52.9688V7.52V8.52H59.8488V7.52ZM52.9688 7.52H53.9688V3H52.9688H51.9688V7.52H52.9688ZM81.4731 3V2H81.0496L80.7549 2.3042L81.4731 3ZM93.5131 3L94.349 2.45107L94.0528 2H93.5131V3ZM97.0331 8.36H98.0331V8.061L97.869 7.81107L97.0331 8.36ZM97.0331 27.16L97.7589 27.848L98.0331 27.5586V27.16H97.0331ZM93.3931 31V32H93.8231L94.1189 31.688L93.3931 31ZM81.3931 31L80.5659 31.5618L80.8634 32H81.3931V31ZM77.7531 25.64H76.7531V25.9475L76.9259 26.2018L77.7531 25.64ZM77.7531 6.84L77.0349 6.1442L76.7531 6.43505V6.84H77.7531ZM82.5931 24.76H81.5931V25.0657L81.7641 25.3191L82.5931 24.76ZM83.7531 26.48L82.9241 27.0391L83.2214 27.48H83.7531V26.48ZM91.4331 26.48V27.48H91.8624L92.1581 27.1688L91.4331 26.48ZM92.1931 25.68L92.9181 26.3687L93.1931 26.0793V25.68H92.1931ZM92.1931 9.24H93.1931V8.9343L93.0222 8.68086L92.1931 9.24ZM91.0331 7.52L91.8622 6.96086L91.5649 6.52H91.0331V7.52ZM83.3131 7.52V6.52H82.8678L82.5698 6.85103L83.3131 7.52ZM82.5931 8.32L81.8498 7.65103L81.5931 7.93626V8.32H82.5931ZM81.4731 3V4H93.5131V3V2H81.4731V3ZM93.5131 3L92.6773 3.54893L96.1973 8.90893L97.0331 8.36L97.869 7.81107L94.349 2.45107L93.5131 3ZM97.0331 8.36H96.0331V27.16H97.0331H98.0331V8.36H97.0331ZM97.0331 27.16L96.3074 26.472L92.6674 30.312L93.3931 31L94.1189 31.688L97.7589 27.848L97.0331 27.16ZM93.3931 31V30H81.3931V31V32H93.3931V31ZM81.3931 31L82.2204 30.4382L78.5804 25.0782L77.7531 25.64L76.9259 26.2018L80.5659 31.5618L81.3931 31ZM77.7531 25.64H78.7531V6.84H77.7531H76.7531V25.64H77.7531ZM77.7531 6.84L78.4714 7.53579L82.1914 3.69579L81.4731 3L80.7549 2.3042L77.0349 6.1442L77.7531 6.84ZM82.5931 24.76L81.7641 25.3191L82.9241 27.0391L83.7531 26.48L84.5822 25.9209L83.4222 24.2009L82.5931 24.76ZM83.7531 26.48V27.48H91.4331V26.48V25.48H83.7531V26.48ZM91.4331 26.48L92.1581 27.1688L92.9181 26.3687L92.1931 25.68L91.4681 24.9912L90.7081 25.7913L91.4331 26.48ZM92.1931 25.68H93.1931V9.24H92.1931H91.1931V25.68H92.1931ZM92.1931 9.24L93.0222 8.68086L91.8622 6.96086L91.0331 7.52L90.2041 8.07914L91.3641 9.79914L92.1931 9.24ZM91.0331 7.52V6.52H83.3131V7.52V8.52H91.0331V7.52ZM83.3131 7.52L82.5698 6.85103L81.8498 7.65103L82.5931 8.32L83.3364 8.98896L84.0564 8.18896L83.3131 7.52ZM82.5931 8.32H81.5931V24.76H82.5931H83.5931V8.32H82.5931ZM101.698 3V2H100.698V3H101.698ZM116.378 3L117.203 2.43531L116.905 2H116.378V3ZM121.058 9.84H122.058V9.53063L121.883 9.27531L121.058 9.84ZM121.058 14.52L121.776 15.2157L122.058 14.9248V14.52H121.058ZM117.378 18.32L116.659 17.6243L116.092 18.2097L116.551 18.8831L117.378 18.32ZM121.058 23.72H122.058V23.4117L121.884 23.1569L121.058 23.72ZM121.058 31V32H122.058V31H121.058ZM116.218 31H115.218V32H116.218V31ZM116.218 24.56H117.218V24.2506L117.043 23.9953L116.218 24.56ZM112.577 19.24L113.403 18.6753L113.105 18.24H112.577V19.24ZM108.658 19.24L108.129 20.0889L108.372 20.24H108.658V19.24ZM106.538 17.92L107.066 17.0711L105.538 16.1194V17.92H106.538ZM106.538 31V32H107.538V31H106.538ZM101.698 31H100.698V32H101.698V31ZM106.538 7.52V6.52H105.538V7.52H106.538ZM106.538 14.72H105.538V15.72H106.538V14.72ZM114.658 14.72V15.72H115.079L115.374 15.4181L114.658 14.72ZM116.218 13.12L116.934 13.8181L117.218 13.5268V13.12H116.218ZM116.218 10.8H117.218V10.4866L117.039 10.2292L116.218 10.8ZM113.938 7.52L114.759 6.94923L114.46 6.52H113.938V7.52ZM101.698 3V4H116.378V3V2H101.698V3ZM116.378 3L115.552 3.56468L120.232 10.4047L121.058 9.84L121.883 9.27531L117.203 2.43531L116.378 3ZM121.058 9.84H120.058V14.52H121.058H122.058V9.84H121.058ZM121.058 14.52L120.339 13.8243L116.659 17.6243L117.378 18.32L118.096 19.0157L121.776 15.2157L121.058 14.52ZM117.378 18.32L116.551 18.8831L120.231 24.2831L121.058 23.72L121.884 23.1569L118.204 17.7569L117.378 18.32ZM121.058 23.72H120.058V31H121.058H122.058V23.72H121.058ZM121.058 31V30H116.218V31V32H121.058V31ZM116.218 31H117.218V24.56H116.218H115.218V31H116.218ZM116.218 24.56L117.043 23.9953L113.403 18.6753L112.577 19.24L111.752 19.8047L115.392 25.1247L116.218 24.56ZM112.577 19.24V18.24H108.658V19.24V20.24H112.577V19.24ZM108.658 19.24L109.186 18.3911L107.066 17.0711L106.538 17.92L106.009 18.7689L108.129 20.0889L108.658 19.24ZM106.538 17.92H105.538V31H106.538H107.538V17.92H106.538ZM106.538 31V30H101.698V31V32H106.538V31ZM101.698 31H102.698V3H101.698H100.698V31H101.698ZM106.538 7.52H105.538V14.72H106.538H107.538V7.52H106.538ZM106.538 14.72V15.72H114.658V14.72V13.72H106.538V14.72ZM114.658 14.72L115.374 15.4181L116.934 13.8181L116.218 13.12L115.502 12.4219L113.942 14.0219L114.658 14.72ZM116.218 13.12H117.218V10.8H116.218H115.218V13.12H116.218ZM116.218 10.8L117.039 10.2292L114.759 6.94923L113.938 7.52L113.116 8.09077L115.396 11.3708L116.218 10.8ZM113.938 7.52V6.52H106.538V7.52V8.52H113.938V7.52ZM125.682 3V2H124.682V3H125.682ZM145.042 3H146.042V2H145.042V3ZM145.042 7.52V8.52H146.042V7.52H145.042ZM137.762 7.52V6.52H136.762V7.52H137.762ZM137.762 26.48H136.762V27.48H137.762V26.48ZM145.042 26.48H146.042V25.48H145.042V26.48ZM145.042 31V32H146.042V31H145.042ZM125.682 31H124.682V32H125.682V31ZM125.682 26.48V25.48H124.682V26.48H125.682ZM132.922 26.48V27.48H133.922V26.48H132.922ZM132.922 7.52H133.922V6.52H132.922V7.52ZM125.682 7.52H124.682V8.52H125.682V7.52ZM125.682 3V4H145.042V3V2H125.682V3ZM145.042 3H144.042V7.52H145.042H146.042V3H145.042ZM145.042 7.52V6.52H137.762V7.52V8.52H145.042V7.52ZM137.762 7.52H136.762V26.48H137.762H138.762V7.52H137.762ZM137.762 26.48V27.48H145.042V26.48V25.48H137.762V26.48ZM145.042 26.48H144.042V31H145.042H146.042V26.48H145.042ZM145.042 31V30H125.682V31V32H145.042V31ZM125.682 31H126.682V26.48H125.682H124.682V31H125.682ZM125.682 26.48V27.48H132.922V26.48V25.48H125.682V26.48ZM132.922 26.48H133.922V7.52H132.922H131.922V26.48H132.922ZM132.922 7.52V6.52H125.682V7.52V8.52H132.922V7.52ZM125.682 7.52H126.682V3H125.682H124.682V7.52H125.682ZM157.466 3V2H157.042L156.747 2.30505L157.466 3ZM168.146 3H169.146V2H168.146V3ZM168.146 31V32H169.146V31H168.146ZM163.306 31H162.306V32H163.306V31ZM163.306 19.04H164.306V18.04H163.306V19.04ZM155.306 19.04V18.04H154.306V19.04H155.306ZM155.306 31V32H156.306V31H155.306ZM150.546 31H149.546V32H150.546V31ZM150.546 10.16L149.827 9.46505L149.546 9.75574V10.16H150.546ZM155.306 11.56L154.589 10.8636L154.306 11.1546V11.56H155.306ZM155.306 14.52H154.306V15.52H155.306V14.52ZM163.306 14.52V15.52H164.306V14.52H163.306ZM163.306 7.52H164.306V6.52H163.306V7.52ZM159.226 7.52V6.52H158.803L158.509 6.82363L159.226 7.52ZM157.466 3V4H168.146V3V2H157.466V3ZM168.146 3H167.146V31H168.146H169.146V3H168.146ZM168.146 31V30H163.306V31V32H168.146V31ZM163.306 31H164.306V19.04H163.306H162.306V31H163.306ZM163.306 19.04V18.04H155.306V19.04V20.04H163.306V19.04ZM155.306 19.04H154.306V31H155.306H156.306V19.04H155.306ZM155.306 31V30H150.546V31V32H155.306V31ZM150.546 31H151.546V10.16H150.546H149.546V31H150.546ZM150.546 10.16L151.265 10.855L158.185 3.69495L157.466 3L156.747 2.30505L149.827 9.46505L150.546 10.16ZM155.306 11.56H154.306V14.52H155.306H156.306V11.56H155.306ZM155.306 14.52V15.52H163.306V14.52V13.52H155.306V14.52ZM163.306 14.52H164.306V7.52H163.306H162.306V14.52H163.306ZM163.306 7.52V6.52H159.226V7.52V8.52H163.306V7.52ZM159.226 7.52L158.509 6.82363L154.589 10.8636L155.306 11.56L156.024 12.2564L159.944 8.21637L159.226 7.52ZM173.651 3V2H172.651V3H173.651ZM178.491 3H179.491V2H178.491V3ZM178.491 24.68H177.491V24.9911L177.667 25.2473L178.491 24.68ZM179.731 26.48L178.907 27.0473L179.205 27.48H179.731V26.48ZM188.171 26.48V27.48H189.171V26.48H188.171ZM188.171 23.56V22.56H187.171V23.56H188.171ZM193.011 23.56H194.011V22.56H193.011V23.56ZM193.011 31V32H194.011V31H193.011ZM177.291 31L176.456 31.5505L176.752 32H177.291V31ZM173.651 25.48H172.651V25.78L172.816 26.0305L173.651 25.48ZM173.651 3V4H178.491V3V2H173.651V3ZM178.491 3H177.491V24.68H178.491H179.491V3H178.491ZM178.491 24.68L177.667 25.2473L178.907 27.0473L179.731 26.48L180.554 25.9127L179.314 24.1127L178.491 24.68ZM179.731 26.48V27.48H188.171V26.48V25.48H179.731V26.48ZM188.171 26.48H189.171V23.56H188.171H187.171V26.48H188.171ZM188.171 23.56V24.56H193.011V23.56V22.56H188.171V23.56ZM193.011 23.56H192.011V31H193.011H194.011V23.56H193.011ZM193.011 31V30H177.291V31V32H193.011V31ZM177.291 31L178.125 30.4495L174.485 24.9295L173.651 25.48L172.816 26.0305L176.456 31.5505L177.291 31ZM173.651 25.48H174.651V3H173.651H172.651V25.48H173.651Z" fill="white" mask="url(#path-1-outside-1_14_273)"/>
</g>
<defs>
<filter id="filter0_d_14_273" x="0" y="0" width="198.011" height="38" filterUnits="userSpaceOnUse" color-interpolation-filters="sRGB">
<feFlood flood-opacity="0" result="BackgroundImageFix"/>
<feColorMatrix in="SourceAlpha" type="matrix" values="0 0 0 0 0 0 0 0 0 0 0 0 0 0 0 0 0 0 127 0" result="hardAlpha"/>
<feOffset dy="2"/>
<feGaussianBlur stdDeviation="2"/>
<feComposite in2="hardAlpha" operator="out"/>
<feColorMatrix type="matrix" values="0 0 0 0 0 0 0 0 0 0 0 0 0 0 0 0 0 0 0.5 0"/>
<feBlend mode="normal" in2="BackgroundImageFix" result="effect1_dropShadow_14_273"/>
<feBlend mode="normal" in="SourceGraphic" in2="effect1_dropShadow_14_273" result="shape"/>
</filter>
</defs>
</svg>
